<mxfile host="Electron" agent="Mozilla/5.0 (Windows NT 10.0; Win64; x64) AppleWebKit/537.36 (KHTML, like Gecko) draw.io/27.0.9 Chrome/134.0.6998.205 Electron/35.4.0 Safari/537.36" version="27.0.9">
  <diagram name="Page-1" id="xeLaiachlwJUPD9PTsqn">
    <mxGraphModel dx="2900" dy="605" grid="1" gridSize="10" guides="1" tooltips="1" connect="1" arrows="1" fold="1" page="1" pageScale="1" pageWidth="850" pageHeight="1100" math="0" shadow="0">
      <root>
        <mxCell id="0" />
        <mxCell id="1" parent="0" />
        <mxCell id="uVx2HJdYI7VX6Kx993Vf-2" value="" style="rounded=0;whiteSpace=wrap;html=1;shadow=0;gradientColor=none;fillStyle=hatch;dashed=1;" parent="1" vertex="1">
          <mxGeometry x="-1650" y="470" width="150" height="490" as="geometry" />
        </mxCell>
        <mxCell id="uVx2HJdYI7VX6Kx993Vf-3" value="&lt;b&gt;Sources&lt;/b&gt;" style="rounded=0;whiteSpace=wrap;html=1;" parent="1" vertex="1">
          <mxGeometry x="-1635" y="450" width="120" height="30" as="geometry" />
        </mxCell>
        <mxCell id="uVx2HJdYI7VX6Kx993Vf-5" value="" style="rounded=0;whiteSpace=wrap;html=1;dashed=1;fillStyle=hatch;" parent="1" vertex="1">
          <mxGeometry x="-1480" y="470" width="440" height="490" as="geometry" />
        </mxCell>
        <mxCell id="uVx2HJdYI7VX6Kx993Vf-6" value="&lt;b&gt;Data Warehouse&lt;/b&gt;" style="rounded=0;whiteSpace=wrap;html=1;" parent="1" vertex="1">
          <mxGeometry x="-1320" y="450" width="120" height="30" as="geometry" />
        </mxCell>
        <mxCell id="uVx2HJdYI7VX6Kx993Vf-7" value="" style="rounded=0;whiteSpace=wrap;html=1;dashed=1;fillStyle=hatch;" parent="1" vertex="1">
          <mxGeometry x="-1020" y="470" width="140" height="490" as="geometry" />
        </mxCell>
        <mxCell id="uVx2HJdYI7VX6Kx993Vf-8" value="&lt;b&gt;Consume&lt;/b&gt;" style="rounded=0;whiteSpace=wrap;html=1;" parent="1" vertex="1">
          <mxGeometry x="-985" y="455" width="70" height="25" as="geometry" />
        </mxCell>
        <mxCell id="uVx2HJdYI7VX6Kx993Vf-9" value="Bronze Layer" style="rounded=0;whiteSpace=wrap;html=1;fillColor=#fad7ac;strokeColor=#b46504;" parent="1" vertex="1">
          <mxGeometry x="-1460" y="490" width="120" height="20" as="geometry" />
        </mxCell>
        <mxCell id="uVx2HJdYI7VX6Kx993Vf-11" value="" style="rounded=0;whiteSpace=wrap;html=1;fillColor=none;strokeColor=#b46504;" parent="1" vertex="1">
          <mxGeometry x="-1460" y="520" width="120" height="430" as="geometry" />
        </mxCell>
        <mxCell id="uVx2HJdYI7VX6Kx993Vf-12" value="" style="rounded=0;whiteSpace=wrap;html=1;fillColor=none;strokeColor=#666666;gradientColor=#b3b3b3;" parent="1" vertex="1">
          <mxGeometry x="-1320" y="520" width="120" height="430" as="geometry" />
        </mxCell>
        <mxCell id="uVx2HJdYI7VX6Kx993Vf-13" value="" style="rounded=0;whiteSpace=wrap;html=1;fillColor=none;strokeColor=#d6b656;gradientColor=#ffd966;" parent="1" vertex="1">
          <mxGeometry x="-1180" y="520" width="120" height="430" as="geometry" />
        </mxCell>
        <mxCell id="uVx2HJdYI7VX6Kx993Vf-14" value="Silver layer" style="rounded=0;whiteSpace=wrap;html=1;fillColor=#f5f5f5;strokeColor=#666666;gradientColor=#b3b3b3;" parent="1" vertex="1">
          <mxGeometry x="-1320" y="490" width="120" height="20" as="geometry" />
        </mxCell>
        <mxCell id="uVx2HJdYI7VX6Kx993Vf-15" value="&lt;span&gt;Gold Layer&lt;/span&gt;" style="rounded=0;whiteSpace=wrap;html=1;fillColor=#fff2cc;strokeColor=#d6b656;gradientColor=#ffd966;" parent="1" vertex="1">
          <mxGeometry x="-1180" y="490" width="120" height="20" as="geometry" />
        </mxCell>
        <mxCell id="uVx2HJdYI7VX6Kx993Vf-16" style="edgeStyle=orthogonalEdgeStyle;rounded=0;orthogonalLoop=1;jettySize=auto;html=1;exitX=0.5;exitY=1;exitDx=0;exitDy=0;" parent="1" source="uVx2HJdYI7VX6Kx993Vf-15" target="uVx2HJdYI7VX6Kx993Vf-15" edge="1">
          <mxGeometry relative="1" as="geometry" />
        </mxCell>
        <mxCell id="uVx2HJdYI7VX6Kx993Vf-17" value="" style="image;aspect=fixed;html=1;points=[];align=center;fontSize=12;image=img/lib/azure2/general/Folder_Blank.svg;" parent="1" vertex="1">
          <mxGeometry x="-1603.11" y="540" width="50" height="40.58" as="geometry" />
        </mxCell>
        <mxCell id="uVx2HJdYI7VX6Kx993Vf-18" value="" style="image;aspect=fixed;html=1;points=[];align=center;fontSize=12;image=img/lib/azure2/general/File.svg;" parent="1" vertex="1">
          <mxGeometry x="-1573.11" y="555" width="26.23" height="32.32" as="geometry" />
        </mxCell>
        <mxCell id="uVx2HJdYI7VX6Kx993Vf-19" value="" style="image;aspect=fixed;html=1;points=[];align=center;fontSize=12;image=img/lib/azure2/general/Folder_Blank.svg;" parent="1" vertex="1">
          <mxGeometry x="-1600" y="644.71" width="50" height="40.58" as="geometry" />
        </mxCell>
        <mxCell id="uVx2HJdYI7VX6Kx993Vf-20" value="" style="image;aspect=fixed;html=1;points=[];align=center;fontSize=12;image=img/lib/azure2/general/File.svg;" parent="1" vertex="1">
          <mxGeometry x="-1573.11" y="656.34" width="26.23" height="32.32" as="geometry" />
        </mxCell>
        <mxCell id="uVx2HJdYI7VX6Kx993Vf-23" value="CRM" style="rounded=0;whiteSpace=wrap;html=1;strokeColor=none;fillStyle=hatch;" parent="1" vertex="1">
          <mxGeometry x="-1606.88" y="590" width="60" height="20" as="geometry" />
        </mxCell>
        <mxCell id="uVx2HJdYI7VX6Kx993Vf-24" value="ERP" style="rounded=0;whiteSpace=wrap;html=1;strokeColor=none;fillStyle=hatch;" parent="1" vertex="1">
          <mxGeometry x="-1603.11" y="700" width="60" height="20" as="geometry" />
        </mxCell>
        <mxCell id="uVx2HJdYI7VX6Kx993Vf-27" value="" style="line;strokeWidth=1;html=1;" parent="1" vertex="1">
          <mxGeometry x="-1630" y="730" width="110" height="10" as="geometry" />
        </mxCell>
        <mxCell id="uVx2HJdYI7VX6Kx993Vf-28" value="&lt;font style=&quot;font-size: 10px;&quot;&gt;&lt;b&gt;Object Type:&lt;/b&gt; CSV files&lt;/font&gt;&lt;div&gt;&lt;font style=&quot;font-size: 10px;&quot;&gt;&lt;br&gt;&lt;/font&gt;&lt;/div&gt;&lt;div&gt;&lt;font style=&quot;font-size: 10px;&quot;&gt;&lt;b&gt;Interface:&lt;/b&gt; Files in folder&lt;/font&gt;&lt;/div&gt;" style="rounded=0;whiteSpace=wrap;html=1;fillStyle=hatch;strokeColor=none;" parent="1" vertex="1">
          <mxGeometry x="-1635" y="760" width="120" height="60" as="geometry" />
        </mxCell>
        <mxCell id="uVx2HJdYI7VX6Kx993Vf-29" value="" style="html=1;verticalLabelPosition=bottom;align=center;labelBackgroundColor=#ffffff;verticalAlign=top;strokeWidth=2;strokeColor=#b46504;shadow=0;dashed=0;shape=mxgraph.ios7.icons.data;fillColor=#fad7ac;" parent="1" vertex="1">
          <mxGeometry x="-1420" y="610" width="30" height="40" as="geometry" />
        </mxCell>
        <mxCell id="uVx2HJdYI7VX6Kx993Vf-30" value="" style="html=1;verticalLabelPosition=bottom;align=center;labelBackgroundColor=#ffffff;verticalAlign=top;strokeWidth=2;strokeColor=#666666;shadow=0;dashed=0;shape=mxgraph.ios7.icons.data;fillColor=#f5f5f5;gradientColor=#b3b3b3;" parent="1" vertex="1">
          <mxGeometry x="-1275" y="612.27" width="30" height="40" as="geometry" />
        </mxCell>
        <mxCell id="uVx2HJdYI7VX6Kx993Vf-31" value="" style="html=1;verticalLabelPosition=bottom;align=center;labelBackgroundColor=#ffffff;verticalAlign=top;strokeWidth=2;strokeColor=#d6b656;shadow=0;dashed=0;shape=mxgraph.ios7.icons.data;fillColor=#fff2cc;gradientColor=#ffd966;" parent="1" vertex="1">
          <mxGeometry x="-1135" y="612.27" width="30" height="40" as="geometry" />
        </mxCell>
        <mxCell id="uVx2HJdYI7VX6Kx993Vf-32" value="" style="html=1;shadow=0;dashed=0;align=center;verticalAlign=middle;shape=mxgraph.arrows2.arrow;dy=0.67;dx=20;notch=0;fillColor=#cce5ff;strokeColor=#36393d;gradientDirection=north;" parent="1" vertex="1">
          <mxGeometry x="-1510" y="634.55" width="60" height="20" as="geometry" />
        </mxCell>
        <mxCell id="uVx2HJdYI7VX6Kx993Vf-33" value="" style="html=1;shadow=0;dashed=0;align=center;verticalAlign=middle;shape=mxgraph.arrows2.arrow;dy=0.67;dx=20;notch=0;fillColor=#cce5ff;strokeColor=#36393d;gradientDirection=north;" parent="1" vertex="1">
          <mxGeometry x="-1350" y="634.55" width="40" height="15.45" as="geometry" />
        </mxCell>
        <mxCell id="uVx2HJdYI7VX6Kx993Vf-34" value="" style="html=1;shadow=0;dashed=0;align=center;verticalAlign=middle;shape=mxgraph.arrows2.arrow;dy=0.67;dx=20;notch=0;fillColor=#cce5ff;strokeColor=#36393d;gradientDirection=north;" parent="1" vertex="1">
          <mxGeometry x="-1210" y="634.55" width="40" height="15.45" as="geometry" />
        </mxCell>
        <mxCell id="uVx2HJdYI7VX6Kx993Vf-35" value="" style="html=1;shadow=0;dashed=0;align=center;verticalAlign=middle;shape=mxgraph.arrows2.arrow;dy=0.67;dx=20;notch=0;fillColor=#cce5ff;strokeColor=#36393d;gradientDirection=north;" parent="1" vertex="1">
          <mxGeometry x="-1070" y="634.55" width="60" height="20" as="geometry" />
        </mxCell>
        <mxCell id="uVx2HJdYI7VX6Kx993Vf-37" value="&lt;font style=&quot;font-size: 9px;&quot;&gt;&lt;b&gt;Raw Data&lt;/b&gt;&lt;/font&gt;" style="rounded=0;whiteSpace=wrap;html=1;fillStyle=hatch;strokeColor=none;" parent="1" vertex="1">
          <mxGeometry x="-1450" y="656.34" width="90" height="25" as="geometry" />
        </mxCell>
        <mxCell id="uVx2HJdYI7VX6Kx993Vf-38" value="&lt;font style=&quot;font-size: 9px;&quot;&gt;&lt;b&gt;Cleaned, Standardized Data&lt;/b&gt;&lt;/font&gt;" style="rounded=0;whiteSpace=wrap;html=1;fillStyle=hatch;strokeColor=none;" parent="1" vertex="1">
          <mxGeometry x="-1305" y="660" width="90" height="25" as="geometry" />
        </mxCell>
        <mxCell id="uVx2HJdYI7VX6Kx993Vf-39" value="&lt;font style=&quot;font-size: 9px;&quot;&gt;&lt;b&gt;Business Ready Data&lt;/b&gt;&lt;/font&gt;" style="rounded=0;whiteSpace=wrap;html=1;fillStyle=hatch;strokeColor=none;" parent="1" vertex="1">
          <mxGeometry x="-1165" y="656.34" width="90" height="25" as="geometry" />
        </mxCell>
        <mxCell id="uVx2HJdYI7VX6Kx993Vf-41" value="" style="line;strokeWidth=1;html=1;fillColor=#fad7ac;strokeColor=#b46504;" parent="1" vertex="1">
          <mxGeometry x="-1455" y="700" width="110" height="10" as="geometry" />
        </mxCell>
        <mxCell id="uVx2HJdYI7VX6Kx993Vf-42" value="" style="line;strokeWidth=1;html=1;fillColor=#f5f5f5;gradientColor=#b3b3b3;strokeColor=#666666;" parent="1" vertex="1">
          <mxGeometry x="-1315" y="700" width="110" height="10" as="geometry" />
        </mxCell>
        <mxCell id="uVx2HJdYI7VX6Kx993Vf-43" value="" style="line;strokeWidth=1;html=1;fillColor=#fff2cc;gradientColor=#ffd966;strokeColor=#d6b656;" parent="1" vertex="1">
          <mxGeometry x="-1175" y="700" width="110" height="10" as="geometry" />
        </mxCell>
        <mxCell id="uVx2HJdYI7VX6Kx993Vf-44" value="&lt;div&gt;&lt;font style=&quot;font-size: 9px;&quot;&gt;&lt;b style=&quot;&quot;&gt;Object Type:&lt;/b&gt;&amp;nbsp;Table&lt;/font&gt;&lt;div style=&quot;&quot;&gt;&lt;font style=&quot;font-size: 9px;&quot;&gt;&lt;b&gt;Load:&lt;/b&gt;&lt;/font&gt;&lt;/div&gt;&lt;div style=&quot;&quot;&gt;&lt;ul&gt;&lt;li&gt;&lt;font style=&quot;font-size: 9px;&quot;&gt;&lt;b&gt;Batch Processing&lt;/b&gt;&lt;/font&gt;&lt;/li&gt;&lt;li&gt;&lt;font style=&quot;font-size: 9px;&quot;&gt;&lt;b&gt;Full load (Truncate &amp;amp; insert)&lt;/b&gt;&lt;/font&gt;&lt;/li&gt;&lt;/ul&gt;&lt;div&gt;&lt;b style=&quot;&quot;&gt;&lt;font style=&quot;font-size: 9px;&quot;&gt;No Transformations&lt;/font&gt;&lt;/b&gt;&lt;/div&gt;&lt;div&gt;&lt;b style=&quot;&quot;&gt;&lt;font style=&quot;font-size: 9px;&quot;&gt;Data Model: None (As- is)&lt;/font&gt;&lt;/b&gt;&lt;/div&gt;&lt;/div&gt;&lt;/div&gt;" style="rounded=0;whiteSpace=wrap;html=1;fillStyle=hatch;strokeColor=none;align=left;verticalAlign=middle;horizontal=1;spacing=0;spacingTop=-10;" parent="1" vertex="1">
          <mxGeometry x="-1450" y="760" width="100" height="130" as="geometry" />
        </mxCell>
        <mxCell id="uVx2HJdYI7VX6Kx993Vf-47" value="&lt;font style=&quot;font-size: 7px;&quot;&gt;&lt;b style=&quot;&quot;&gt;Object Type:&lt;/b&gt;&amp;nbsp;Tables&lt;/font&gt;&lt;div&gt;&lt;font style=&quot;font-size: 7px;&quot;&gt;&lt;b&gt;Load:&lt;/b&gt;&amp;nbsp;&lt;/font&gt;&lt;/div&gt;&lt;div&gt;&lt;ul&gt;&lt;li&gt;&lt;font style=&quot;font-size: 7px;&quot;&gt;Batch processing&lt;/font&gt;&lt;/li&gt;&lt;li&gt;&lt;font style=&quot;font-size: 7px;&quot;&gt;Full Load&lt;/font&gt;&lt;/li&gt;&lt;li&gt;&lt;font style=&quot;font-size: 7px;&quot;&gt;Truncate &amp;amp; Insert&lt;/font&gt;&lt;/li&gt;&lt;/ul&gt;&lt;div&gt;&lt;font style=&quot;font-size: 7px;&quot;&gt;&lt;b&gt;Transaformations:&lt;/b&gt;&lt;/font&gt;&lt;/div&gt;&lt;/div&gt;&lt;div&gt;&lt;ul&gt;&lt;li&gt;&lt;font style=&quot;font-size: 7px;&quot;&gt;Data cleansing&lt;/font&gt;&lt;/li&gt;&lt;li&gt;&lt;font style=&quot;font-size: 7px;&quot;&gt;Data Standardization&lt;/font&gt;&lt;/li&gt;&lt;li&gt;&lt;font style=&quot;font-size: 7px;&quot;&gt;Data Normalization&lt;/font&gt;&lt;/li&gt;&lt;li&gt;&lt;font style=&quot;font-size: 7px;&quot;&gt;Derived columns&lt;/font&gt;&lt;/li&gt;&lt;li&gt;&lt;font style=&quot;font-size: 7px;&quot;&gt;Data Enrichment&lt;/font&gt;&lt;/li&gt;&lt;/ul&gt;&lt;div&gt;&lt;span style=&quot;font-size: 7px;&quot;&gt;&lt;b&gt;Data Model: &lt;/b&gt;None (As - is)&lt;/span&gt;&lt;/div&gt;&lt;/div&gt;" style="rounded=0;html=1;fillStyle=hatch;strokeColor=none;align=left;verticalAlign=middle;horizontal=1;spacing=0;spacingTop=-10;" parent="1" vertex="1">
          <mxGeometry x="-1310" y="710" width="100" height="240" as="geometry" />
        </mxCell>
        <mxCell id="uVx2HJdYI7VX6Kx993Vf-48" value="&lt;font style=&quot;font-size: 7px;&quot;&gt;&lt;b style=&quot;&quot;&gt;Object Type:&lt;/b&gt;&amp;nbsp;Views&lt;/font&gt;&lt;div&gt;&lt;font style=&quot;font-size: 7px;&quot;&gt;&lt;b&gt;&amp;nbsp;No Load&lt;/b&gt;&lt;/font&gt;&lt;/div&gt;&lt;div&gt;&lt;font style=&quot;font-size: 7px;&quot;&gt;&lt;b&gt;&lt;br&gt;&lt;/b&gt;&lt;/font&gt;&lt;/div&gt;&lt;div&gt;&lt;div&gt;&lt;font style=&quot;font-size: 7px;&quot;&gt;&lt;b&gt;Transaformations:&lt;/b&gt;&lt;/font&gt;&lt;/div&gt;&lt;/div&gt;&lt;div&gt;&lt;ul&gt;&lt;li&gt;&lt;span style=&quot;font-size: 7px;&quot;&gt;Data Integration&lt;/span&gt;&lt;/li&gt;&lt;li&gt;&lt;span style=&quot;font-size: 7px;&quot;&gt;Aggregations&lt;/span&gt;&lt;/li&gt;&lt;li&gt;&lt;span style=&quot;font-size: 7px;&quot;&gt;Business logics&lt;/span&gt;&lt;/li&gt;&lt;/ul&gt;&lt;div&gt;&lt;span style=&quot;font-size: 7px;&quot;&gt;&lt;b&gt;Data Model:&amp;nbsp;&lt;/b&gt;&lt;/span&gt;&lt;/div&gt;&lt;/div&gt;&lt;div&gt;&lt;ul&gt;&lt;li&gt;&lt;span style=&quot;font-size: 7px;&quot;&gt;Star Schema&lt;/span&gt;&lt;/li&gt;&lt;li&gt;&lt;span style=&quot;font-size: 7px;&quot;&gt;Flat Table&lt;/span&gt;&lt;/li&gt;&lt;li&gt;&lt;span style=&quot;font-size: 7px;&quot;&gt;Aggregated Table&lt;/span&gt;&lt;/li&gt;&lt;/ul&gt;&lt;/div&gt;" style="rounded=0;html=1;fillStyle=hatch;strokeColor=none;align=left;verticalAlign=middle;horizontal=1;spacing=0;spacingTop=-10;" parent="1" vertex="1">
          <mxGeometry x="-1170" y="710" width="100" height="240" as="geometry" />
        </mxCell>
        <mxCell id="uVx2HJdYI7VX6Kx993Vf-52" value="" style="shape=image;aspect=fixed;image=data:image/jpg,/9j/4AAQSkZJRgABAQAAAQABAAD//gAgQ29tcHJlc3NlZCBieSBqcGVnLXJlY29tcHJlc3MA/9sAhAAFBQUFBgUGBwcGCQkICQkNDAsLDA0TDg8ODw4THRIVEhIVEh0aHxkXGR8aLiQgICQuNS0qLTVAOTlAUU1RamqOAQUFBQUGBQYHBwYJCQgJCQ0MCwsMDRMODw4PDhMdEhUSEhUSHRofGRcZHxouJCAgJC41LSotNUA5OUBRTVFqao7/wgARCADaAOYDASIAAhEBAxEB/8QAHQABAAICAwEBAAAAAAAAAAAAAAcIBQYBAgQDCf/aAAgBAQAAAACWgAAAAAAAAAAAAADWwAAA+me7ChwAOPN4AD55C2skk4gYHPB103QgHEW1Fvlm04nXjv442kPIc/L7Ea6wAVBk2cU4muYPf9ajjddz+UBWGMbEABVzZJ/TiwmBxW5ZfWNswfghecMt7UR4oBVzZJ/Ti0TD4/Z9y9POgYaNJQ3bOo+08BVzZJ/Tia3hN+QJOv380B2C+HqalHYCrmyT+nHDYXaPhkkBzr9uuvZGGp4a7GACrmyT+luPPBJGfivTMFm/rYXXoa06ZZRwcVgKubJP6cMRh8ljtvQFOPr+Uc73DE786/Fx8NO3flVzZJ/TiRtqc6oLmn1eWotxOOzVY4K91dujKqrmyT+nFXLV8Xu0+ZdAGqxRLs3blHXq0wrhWi4UyKubJP6cXgjnV5t9kNTT5MdVC3frrj+fVv5oK31ouHMirmyT+nEjrWJriyGpLl371TtsrJQK2GYqXc2Na0XDmRVzZJ/TiDy15sH7OfhEEs1toPa/E1mtzrlaLhzIqhvE7pxA03citH5/3k9dELX4ms1udcrRcOZNNpNeHale+3Rw6nXP+qnVqfvU+1eLrRbXXa2Wzh/QbRzcR92579ue3bnt6tFp3av3VGtx4Kq3G12rl1ZQAADjVNqaptfGrbX117ZAAAAAAAAAAAAAAAAAAAAAAAAAH//EABwBAQACAwEBAQAAAAAAAAAAAAAEBgMFBwgBAv/aAAgBAhAAAADzSAATAA+RD0sD5RtUNnynH6WwY9jj/WPQcIFvgV/0tWo9ryy42LgOnLXGrvpbBg1+6ksXGqcWuNXfTP2BV9lZJ0Dj1IkxrXGrvpaN+fxstxrIvFKr3DlOxjV30tj/ADs483XfOL/eh8pnxq76WM+D8/XMbJn5TZqpqOtHxEsuCr2XPScNLAZ2HN8wgAAAAD//xAAbAQEAAgMBAQAAAAAAAAAAAAAAAwYCBAUBB//aAAgBAxAAAAC+gAEYAM/VCPPXvX2Rr2LKhSZ82fCfbuQ5k27Qu5LXcOdu7Fy2znSbtAln6/B1JsrR1TnSbvzv3qWrlVmOaz9eOTnSbtCtmxW+Zzd6e19KpWOCTdoXT2a9lqbvtrcOxwybtCMMxYdGOx6HR2a09JdDPoaGHX96oDBlizAAAAAH/8QAOhAAAAUDAAgEBQIEBwEAAAAAAQIDBAUABgcIEBEWFzVVVhIUIDYTFSEwNBgzIjFRVCMyQEFEUmBw/9oACAEBAAEMAP8Ay++FpdwMK3wtLuBhW+FpdwMK3wtLuBhW+FpdwMK3wtLuBhW+FpdwMK3wtLuBhW+FpdwMK3wtLuBhW+FpdwMK3wtLuBhW+FpdwMK3wtLuBhW+FpdwMK3wtLuBhW+FpdwMK3wtLuBhW+FpdwMK3wtLuBhW+FpdwMK3wtLuBhW+FpdwMKTuy1lTgQk6wMYhinIByGAxPRw2yN2ZPVw2yN2ZPVw2yN2ZPVw2yN2ZPVw2yN2ZPVw2yN2XPVw2yL2XPVw2yL2ZPVw2yN2ZPVw2yN2ZPVw2yN2ZPVw2yN2ZPVw4yJ2bO05sW92hAO5teXQJu1cfRn1bt3H0Z9W7VydHfVu1cnR31btXJ0d9W7VydHfVu1cnR31btXJ0d9W7VydHfUrATqJBOrFvCFt68Lit5cqke/UTLYGR467EBROQG8l9qWuBnFuo9BdNUx/SYoCAgP1CdtongOuzJsN9gQAQEBDaF9YwiLgZqqtEEmsi1dSdvzRFkjGQeW5NoT0Gwk0dgB6TCBQETCAARQhw2lMBqCl5BigfwLOkUzXq9Zry9sGRdJKB84ieoNqAwGABAQEBHYAjRF0VB2EUIYddzRnlXQLphsT+zm+GSY3Uk7TAoBgZ6orbEg2H+Xpu3YNvPqx6ABGPNUtacLKu/MOklDKXTbMTGyMCi2TOBOH1sj/x1aTTKmmQhf8AK8/FcViUACfc+iYZFeMFkQABN9nSB5rB1gDks36TXHBFMJRkUAG5JyIcwjxFB8iopZUrGsmDkjp2mkbeSB28yb0iqkskmomYDEuK3l5V7DOU1yJlGndywDJwo3cybdJZzd1sGbrgEw0EcayTCOmV1XjlNBPfC1etNaYyDGQQ+O0cprp6ptt5aTckANhfsaQPNIOsAclm/SpYMYdQ5xdOQGas5hHxjh0m4XMe2bZaS7RdZZZYghjuN2CPm3Wxk2TaNUG5BESiIf11TWOomXk3L9Z27IotiiEIgqcHz3bZNvNbgk1WrlVVMg4lgf799VvQDWCj/Jt1VVCarwRAHLZYPs6QPNIOsAclm9Yfz13b7efVj7lrzXkMRC5F6jPwW2p3+K4rE3P3NGMQpTGMYAK2fM3fj8u6RW13imAskDgH1+xpA80g6wByWb9Fxcgl6sERG2GlPGbd43UbuCeNOOi2EamdJoiKZPpQCH9ayHs3kcVGGIDFsIiFbQ/rRyAchiCG0Ie04CGcGXYMxSUmuTSdYP8AolPa7oJtiFR2fZ0geaQdYA5LN65tGYUjjBFqEI6lGmQSxb0zt82FvbTa9Tw6B4x63Sa2+jcCSC4S7lJZSr4a3CrKICwK8FLyF6f9ZOn6cgk4Er4FgWIxvESFEhJHwpsLz+ITaSS2AH8IVdKc2pBPCQ5/A/fMcxg0ci5dCKNkIXusV8Ftq+ALObZGSlzmn1/Gzq5eSuvs6QPNIOsAclm9YVPkOeClikKJjWMiuhbbUiqR0z3LPtbehnMm5SVURtC8Y66mjlyyQXSKNfSshe416YfgttSyoIpKKGAdll5TgLvklWLFm+SUmdvyWUHZWDVA+HPeEddzm2Q64ehw5btUFF11iJJNsk2O5dEbJTqAqgICACA7Q1aQPNIOsAclm/SFZc9gS9YI5FMVt1X4xfLXAqZJosoVjt8m2AQ2DT78F3Wj17ueagKUu3YUA13cpsjky+jP750lHwbUipio1huRdPrJQBwqY46tIHmkHWAOSzfoEdgDTnPaqDldHd9EaurLylyQTuKGGSQqyMkqWgydtSxiboA0gVu3kKgpP5tCxsj8H4VbA1Xjm9W27mkocIFNel9IpVZBRLdlEKsG9BsuVWfgxK7r9SS2zZuwjVgXge7beLKCzBrSihEkzqKHApC5kxeD7ym9bH412uk1gYgkoU5NekJ+1berBvso+vSB5pB1gDks36Ri4zb+GhWV2DFGw5VRJskQ+DmbRxCS4rIEUH5VGf2SFEIQhClKUClyVdk/DTUY3jnvwUqXjY5Y5lVGSBzPomKBi5EGDYBwCgg5ut2VdIiofKInp7akG6DcngRSImTSik37KwmCLdyokSsHST55ajhFw4OqTXpCftW3qwZ7KPr0geaQdYA5LN+rKrZw4sOWTQRUVPhFk9aQcsDlqsgarjykxgpp3Gqxyyp72u9tcsmxeJNTohxui+kL1ESJJKLYviEEhXwbWToP98CRUqzup2d1HOkCbNWlr7KgtWA/bcpWYLvkrehmiMecUnBJiWTeecJIOCucXXQ9uS1iOXv1c6Qn7Vt6sGeyj69IHmkHWAOSzfr2BqUYsVTCdRskc+XWyKFwxBE0SJgEXHf2aFFIQhAKUoAWnDlu1bquHCxEUV8/4pRkAaDP7aYSLGTZovWLpJy20sPZEFqwF7blK0g/xrd1YG9nva0hP2rb1YM9lH156fIrXBHNSbfHgNuqS3pZcQ/g+zc1kRFxvWzt4q5Ipr0opd6zsZg0QVMQlaJ0o/VhLlYnXEW2lYsluhCJAcPHWAvbcpWkH+NburA3s97WkJ+1berBnso+q8r1irWjjrrnA7mTkJG4ZtZ0qAqOrKt0LdtmPjhAPi6v1W3v0WJoNLC+ujRFBpW310aGodK+/ejw1fqvv/pELQaV+QekwtBpW3/0iEr9Vl/9HhKDSvyF0mFr9Vd/9JhatXSVvaXuGMjnEXEER0jpZzI2zD/GKQNWjjJO2TO5yoH8FaQC5zQMWBxExqwCptgJgmytIMf8G3Q1YFOO6kgWtIMfbgasQLGa43knJT7BfZgvp0iKXnSI0QkvNSAFKVw8eYzxX8iOnKy5SnkNfC2xejJ0GL7F6KlXDGxeiI1wzsXoaFBjWxehN64bWN0FtXDmx+gtq4d2R0JtXD2yuhNa4f2X0JrTSzLVZuEnDeHbJrZsiHshaSardMT6sDRT1tDSb1ZMSI5zi3jy2GjhBITkrBkW8Z2y8crpCQmeoh65iYp+imJ0frWFIh7H2idVymJKz3FPV4+IfpJGOhsrEES9jLKbkdJCkf8A0I7BAQEKUsSzVHXmTwLMVSEIQhSEKBSCUDFEpgAQ3Ds3zXmfkDL4pSlKUClAAA5CHIYhygYqdiWam68ySBZArsAAAACjkIoQxDkAxULOtRu6B0jBMiLf/GP/xABIEAACAQICBgQLBAcFCQAAAAABAgMAEQQSEBMUMXOyICFR0jAyQUJxcnWRw9HTFSJhsQUkUnSBgrMjMzRDkkBgYnCDk6HBwv/aAAgBAQANPwD/AHX4y1xlrjLXGWuMtcZa4y1xlrjLXGWuMtcZa4y1xlrjLXGWuMtcZa4y1xlrjLXGWuMtHcBOtHcykEH+I6Ps+fuV7Pn7lez5+5Xs+fuV7Pn7lez5+5Xs+fuV7Pn7lez5+5Xs+fuV7Pn7lez5+5X7hP3a7ZMHMnMtcB/lXAf5VwJPlXAk+VcCT5VwJPlXAk+VcCT5VwJPlQFyzQuAPeKB64ic0belTUSXkg8jj9qPweMkKRlACAQVH3rkftdI0Otox5fVHgTSi6SKAqvbzXrBz+5kNiDWIjBZf2XHUy/wPSHlNfgdFr2dwp9xpMSS5VwQv3499cVfnRF7jR2BgehMSfQ3gsdAHb106iagxl1/nXpZV5hW1HkXQECAiQr1D0Vipykt3JuMyD/3XFalUAegVq2/KtgfnToWup/4h4LZpOatqi5eiDYguKcLZQwJPWKacsAzAXGUCvXFOoZWG4g1g5i7BgbsCytYf6dCWzIzgEXF6MbAf2go4NlDSGwvnWuIKzFcyHMLjSWzD0N1+B2aTmraouXosSd6d2owCAxW3WbeRRSSlAEK2tYHyg16U7tQxqik7yFFtM2W6oUCjKoTyqeylQt40fcpMMZQYyAbhgPKD216Y+7WsZ7yWJu3qgaXQr/p8Ds0nNW1RcvSyrzCtpPIunUpWqT8tGqb8q2BudKAuSdwApbX1bhrX7baVlA94Pgdmk5q2qLl6GxT8hrPLzmntmFyP/IpnzEZi1zu3tp1KVqk/LQwIIpozGW1kj/dJBtZya2WbkNfq3/3pVkPvPgdmk5q2qLl0lhlLWtYHr3g0MPKZVAW5QKcwFkrM+RXAzAhjfehouNWY7Cy2/ALo1AB1LMBmzHsr13+dZRfWklrfzVYWs72tWYee/z0HV6o3UeeM3j9W6tU+su8HiW66Gq1/XGO3J49bO9hmiP9qStvE0fc5x4HZpOatqi5egcHOAALkkoaDy3VxY+OagKBljALnWOEFrkDeahm1TCYKDfKG80t26dRHWqT8tCKWNuwUmGM5M6RhSoIXzHbtrZJuU1+rDn0kpzA9CNczu5Cqo7STTNYXDqpPrMAKOnZpOatqi5elnwv9dK2/wCEmkwoAUjZh7xQiS/u0amTlr7If+rH0WmH5E9CeSdpEG5jHktow88kCEm5yLYgadmk5q2qLl6MUjpc4zsPDqcxHWjEmQjVuH3ZBU8+uu0+qt90Ja2Ruyv30/TrF4WGbV3zZdYga19OEaMa04vVls8aybshp0K/44/Sp8IcPkMuptdla97N2V+/H6VGeSPViTW+J+NlpFLMzGwAHWSTWsyXudV/3PEplMgKm4IbxSCOhmxXw9G3Tcq6dmk5q2qLl6PDWg+GsVQA/wB+lDH2GZQf8pK4a0BYAdQAqWHM41aPc57eeDobzmRSx8m80In/AMpeyvslzZwGH97HXCWuxFCj3CsZ+klinCm2eMRu1jowmKMcAY3yIVDZB0M2K+Ho26blXTs0nNW1RcvSL4ayRqXY2nQ7hTY+4EqFCRq07dEBS7h1AOdA9QRZCrEG5zZvJXESsVBHMFO9RIA1jatS9h2m1fZTrmlhdBfWR+VtP2v8F9G3fDFY53XXDeiIBe34m9Zi2uErB7nec171BO+HkfdnKgMG9zVmxXw9G3Tcq6dmk5q2qLl8C28sgJ95o4a5CqB59cNaAsANwGiJC8kjkKqKBckk7gKuQZkgmaIH1gtTLmjlicOjDd1EV9r/AAX0bd8MVrMT+SaPtOX+lHWbFfD0bdNyrpw+Fu/85qXGKF/kTwUKZFETKote/lB6GN/SASex8dEQtk0YXEQSQofMM4YPyV9qBrf9J9G3fDFazE/kmj7Tl/pR1mxXw9G3Tcq6CLQ4cH7zt8qxc3UqjeW6gqilTPPxX620+ibv16k3frhzfUrhzfUrhTfUrhTfVrhTfVrhTfVrhTfVrhT/AFaxU6xuY45g3PUePNst/LGdEr4W59UPT44sWJ7EOhcYp96VmxJ5NA/SLn3xpX6yeTRHPipATuBSJav48UQVqmb8ZHY1vhh3iD5v0PWavS1elq9LV/NX8a9B0eivVqJgyOq9YIrB4kTSgb8mUqToxcsYhv5wjvc1hMSXlsLlUcWzaMZiQ8N/KiC2asJLIJu1RLax0YvFNNGDvyZQoNYZpUmIHiZ7ZSdE88k4RhYhHAA/2O976vqv6u6lACqBYADcAKIsQdxFXvfVi1/V3UBYAUwIZSLgg+Qir3vqwRf1d2hhZlIuCOwigbhxCvUf+TP/xAA/EQABAgMEBgUJBQkAAAAAAAABAgMABBEFBhIhEBVUcpKyExY1NmEUFyAiMTJBUXEkMHOhsQcjN0JDUFJTs//aAAgBAgEBPwD7/V0/sj3AY1dP7I9wGNXT+yPcBjV0/sj3AY1dP7I9wGNXT+yPcBjV0/sj3AY1dP7I9wGNXT+yPcBjV0/sj3AY1dP7I9wGDZ8+BUyj1NwwQQaEekATpNaGlKxa165+y5jon7OTQ+4sLNFCPOE5sCeOPOE5sCeOPOE5sCeOB+0Jyudnp44U1Y96pJxbTYZm0D2/zA+PzBh5pxl1bTgotBKVA/MaZh0ssOu0rgQVU+kSMyZqVaeKMOMVpDQRiGZrQwrD8CTCEYkLVX3dF47LTaNmOow1cQCpB8RBFDT0LkOrTbiEA0C21hQ+grF6kpTb88AKDGD+Q0zr1tGWmAqXaCMCqkHOlIsx22RIshmXaLYGRJhpawlJVQKpmIQEE+sSB4Q2Geicoo0yrCw0B6qiT46LflfJbYnGgKDpCoDwVn6Fyu32NxfLF7O8E7vJ5RoAqRE4ypxh9pJFVIUkE+MWfLrlpJlpZBUkUJBi8J+wpof6ghsjAjP4CEOJS2tJrVVKQlvE04uvu0y0X5bwW1X/ADaSfQuV2+xuL5YvZ3gnd5PKNCF0IFB7YdWKqyFAfbE1LpmmMGMpBINUxa1lolZYOB9xRxgUUYbsJFEK8pe+B9sNoXTGE1CKVhD5Mu6rAjIjICHF41VoB4ARf0jW7PhLp/U6GJKbfQpTMu44lPvFKSQNFyu32NxfLF7O8E7vJ5RpW+0UKGLMgiGn2g2kFWY8In5NM6wGyspFQaiJeXddohtNSkRLyUyiVmUFFFLCcIqIek5hlGJaaCtPaDFRF8n+kt14DMISlOi56Ui78mQACcZPEYvGhKLcnwkADpVZRcrt9jcXyxezvBO7yeUaXAOjXl8DDI/dIy+ES0uvGFKRVJFc4W061QqBFYlV/Y5upzommcEk/HRbMg7PXrflWiApxY5akxbt0n7LlUzAmEuoBAXlQisXQ7vSX0XzGLzduz/4pi5Xb7G4vli9neCd3k8o9GXdDbgKiaUMVME0EZiEqChkQc6ZQ1/EA7yv+cX07Bf30frF0O70l9F8xi8vbs/+KYuPZT4mjPuJKGkIISTlUmLem0TlrzjyM0KXRJ+YTlo6+WT/AKH46+WVs8xHX6y9mmPyjr9ZmzP/AJR1/s3ZX4avWJ+3bPSypbLB9VaVEUJMXrmly9iTC23S24SkJINDUmLmuhdhs+viUFrxZ1Naw0811+KsYw4ymvjgpF9VoTYToKgCpaAkRdBaFXflAFAlOMHiMTFt2fJ2zaanbPbm8T1UKJGWH6gxa98pmdlvJ2GBLtkUXRVSR8hkKD7l6amXgkOvuLCchiUTSGZqZYCuifcbxe3CoisYlVrX1oempl/D0z63MIyxKJpDUzMspUlt5aArIhKiAf7H/8QANxEAAQMCAgcFBwIHAAAAAAAAAQIDEQAEBRIQEyExNFORFSBScbEGFCJRYXKBMEEkMzVCUGKh/9oACAEDAQE/AP19c1zE9a1zXMT1rXNcxPWtc1zE9a1zXMT1rXNcxPWtc1zE9a1zXMT1rXNcxPWtc1zE9a1zXMT1rXNeNPXvlQSJJjuW2HsXKMyHjs3giuxU8412KnnGuxU8412KnnGgq5w91IUrM0aQoKSFAyCJGllvWvNtzGZQTPnV2xqLhxrNOUxNXBcyH4REjbP1pBc/uAHkacdyONoyzmnbosbgsXCVT8J2K7uLJBtFE7wQRWHkmza8tNq3hXvDBS87mzpgFIiav28LN48XHnQvNtAAinEJVI2lM04XAkZEgmf3p1VxrmZQkKkwJpsvlXxoSB9DosnNZatK+kHuYrwS/MetYdwbWgmEk1aPBLrDpBhKkqIFXryX7p11IIClSJr2aE4iZ5Sqd/mL8zTjSlutLBEJmaJhQHz0YOqbTyUe5ivBL8x61h3BtaHW8wJzKGzcDVpbrWWkozKWuAE/MmmXHsPu5cZGdEgoWKwbF1Xd2WzbtI+AqlIpz2gczLHujG8jdSloCgkmCrdRQM6RJoCP3JrBuGX959NCnW0EBSwCd0nRivBL8x61h3BtacM9nMYbvrN5VtDaHm1k507gQfnWNez2L3OKXTzVvmbWuUnOkepqwvHMPulL1YUoApIJp55CJWswCaeuWVPMqCpCSZMU3ctOKhJkxO7RhSCmzT/sSdGJk++ufSPSrIk2jJJk5RWK8EvzHrWHcG1pwp5YxOxlwxr25k7IzVj7yjjF4UOHLn2QaccEGDtmgpKqfT/EMQNkmgANFq8lnDkOK3BNWmJIuHCjIUmJFYnxrv49KseEZ+2sV4JfmPWsO4NrurTI7qv6N+B61hPGD7TWJ8a7+PSrHhGftrFrlGr1KTKlESKs2y1bNIO8Dbo7HuPGiuxrjxorsW48aK7Gf8aa7Ge5iaVhuptHioBS94IrDWwu7QFJlMGQRWKpIu1bIECKUhXY8QZyg/8AawkE3YMbAkzWJgi9ckb4jpSLV5y1YCXlNQjaAKtsLbaczrXnUNokfopbQgkpSEzvgUptC4zJCo3SK+lIbQicqQmfkKU2hRBKQY3SP8H/AP/Z;" parent="1" vertex="1">
          <mxGeometry x="-986.9200000000001" y="536.16" width="73.85" height="70" as="geometry" />
        </mxCell>
        <mxCell id="uVx2HJdYI7VX6Kx993Vf-54" value="BI &amp;amp; Reporting" style="rounded=0;whiteSpace=wrap;html=1;strokeColor=none;fillStyle=hatch;" parent="1" vertex="1">
          <mxGeometry x="-1010" y="614.55" width="120" height="25.45" as="geometry" />
        </mxCell>
        <mxCell id="uVx2HJdYI7VX6Kx993Vf-55" value="" style="shadow=0;dashed=0;html=1;strokeColor=none;fillColor=#4495D1;labelPosition=center;verticalLabelPosition=bottom;verticalAlign=top;align=center;outlineConnect=0;shape=mxgraph.veeam.magnifying_glass;pointerEvents=1;" parent="1" vertex="1">
          <mxGeometry x="-980" y="665.6" width="55.2" height="54.4" as="geometry" />
        </mxCell>
        <mxCell id="uVx2HJdYI7VX6Kx993Vf-56" value="Ad-Hoc SQL Queries" style="rounded=0;whiteSpace=wrap;html=1;strokeColor=none;fillStyle=hatch;" parent="1" vertex="1">
          <mxGeometry x="-1010" y="730" width="120" height="25.45" as="geometry" />
        </mxCell>
        <mxCell id="uVx2HJdYI7VX6Kx993Vf-57" value="" style="points=[];aspect=fixed;html=1;align=center;shadow=0;dashed=0;fillColor=#FF6A00;strokeColor=none;shape=mxgraph.alibaba_cloud.machine_learning;" parent="1" vertex="1">
          <mxGeometry x="-977.3" y="790" width="49.8" height="50.099999999999994" as="geometry" />
        </mxCell>
        <mxCell id="uVx2HJdYI7VX6Kx993Vf-58" value="Machine Learning" style="rounded=0;whiteSpace=wrap;html=1;strokeColor=none;fillStyle=hatch;" parent="1" vertex="1">
          <mxGeometry x="-1010" y="850" width="120" height="25.45" as="geometry" />
        </mxCell>
        <mxCell id="Rs1U459UFhCpahJ8OtFn-1" value="" style="shape=image;verticalLabelPosition=bottom;labelBackgroundColor=default;verticalAlign=top;aspect=fixed;imageAspect=0;image=data:image/png,iVBORw0KGgoAAAANSUhEUgAAAgAAAAIACAYAAAD0eNT6AAAAAXNSR0IArs4c6QAAIABJREFUeAHsnQd8G8eV/33JpfiSOJe7VCf+p16Ss3MpZgV2sbvoHaygZMfxpTiOz45Lcklk+1KcxIlL3OQmS7YlW5Zl9S6qi72jEo0g2EFSJEWK6pXk/DMLDLAAARJgkSjl+fOZzy6A3ZnZL/Xx++17b95cdx38BwSAABAAAkAACAABIAAEgAAQAAJAAAgAASAABIAAEAACQAAIAAEgAASAABAAAkAACAABIAAEgAAQAAJAAAgAASAABIAAEAACQAAIAAEgAASAABAAAkAACAABIAAEgAAQAAJAAAgAASAABIAAEAACQAAIAAEgAASAABAAAkAACAABIAAEgAAQAAJAAAgAASAABIAAEAACQAAIAAEgAASAABAAAkAACAABIAAEgAAQAAJAAAgAASAABIAAEAACQAAIAAEgAASAABAAAkAACAABIAAEgAAQAAJAAAgAASAABIAAEAACQAAIAAEgAASAABAAAkAACAABIAAEgAAQAAJAAAgAASAABIAAEAACQAAIAAEgAASAABAAAkAACAABIAAEgAAQAAJAAAgAASAABIAAEAACQAAIAAEgAASAABAAAkAACAABIAAEgAAQAAJAAAgAASAABIAAEAACQAAIAAEgAASAABAAAkAACAABIAAEgAAQAAJAAAgAASAABIAAEAACQAAIAAEgAASAABAAAkAACAABIAAEgAAQAAJAAAgAASAABIAAEAACQAAIAAEgAASAABAAAkAACAABIAAEgAAQAAJAAAgAASAABIAAEAACQAAIAAEgAASAABAAAkAACAABIAAEgAAQAAJAAAgAASAABIAAEAACQAAIAAEgAASAABAAAkAACAABIAAEgAAQAAJAAAgAASAABIAAEAACQAAIAAEgAASAABAAAkAACAABIAAEgAAQAAJAAAgAASAABIAAEAACQAAIAAEgAASAABAAAkAACAABIHCVEAgGg9cPDg7+z/Hjxz9xlUwZpgkEgAAQAAJAAAjMlEB/f/8ng319S/r7+/uPHBlAg4ODP5hpX3AfEAACQAAIAAEgsMAJdHV1fbm7O7g0GAye6e3tQ319/ejIkSNoYGBwywKfOkwPCAABIAAEgAAQSJdAIBC4taOja3VXV9el7u5u1NMTRMHeXtTX14f6+7EAGDg7MDDwkXT7heuBABAAAkAACACBBUYAIfRPra2tikAgsLOtrR21d3Sgzs4u1NWFBUAPCgZ7US8vALAXgA8DFC6wR4DpAAEgAASAABAAAqkScLvdH/R6vXf6/X6339+KWgMBxAuA9g7U0dnJC4DubiwAgogPA/RHwgDvpDoGXAcEgAAQAAJAAAgsEAKBQOAGl8v1oNvjCXq9PuTztaAWvx+1tgZQoK0Ntbe3o46OTtTZ1YWShAGOu93ogwvkcWAaQAAIAAEgAASAwFQEbDbbF51O5/PO5uZTLpcbud0e5PF6QwKgxY/8ra0oEGjjvQAdJAzA5wFMDgMMDQ3pphoLfgMCQAAIAAEgAASuMIGGBsfXrVbrKpvNftHucCKnsxk1N7uQCwsAjxd5fT7UggVAgjBAZ2d3Y3d392PBYHAiLgyw9go/FgwPBIAAEAACQAAIJCLQ2Nh4S0ND0+qmJssli9WKbDY7stsdyOF0hgQA9gJ4PIiEAfzRMICnvb39sfb29q+TfoPBYE0vvxqgn6wGOHP06NGPkd/hCASAABAAAkAACFxhAvX19d+ura1fXV/fMNbQ0IgamyzIYrEiq82GbFgAYC9AczOKDQP4PD6f/zG/3//NRNMPBoP3J1gNcGeia+E7IAAEgAAQAAJA4DISKC+vEVVW1+yurqmdqK2tQ3X1DYgXAI1NqAkLAKst5AUgYQCX66TH41nmdru/M900Ozs7PxsMBsfiwgD7prsPfgcCQAAIAAEgAATmiUBFRcV/lZdXbqiorEJVVdWouroG1WABUFeP6hsaUAMWANgLEA4DOBwOn6O5eUlzc3Nadf2DweDBSBiArwo4MD48PPz5eXos6BYIAAEgAASAABBIRODw4cO3HDp0ePPhsvKJsvIKVFFRiSqJAKipRbVYABAvQJPlnNVqXW2328WJ+krlu2Aw+BMcBghVBYwUBfplKvfCNUAACAABIAAEgMAsCZSWHvrqvv0H3zlw4ND4wUOH0eHDZQgLgHIsALAXoLoGVWMBEAoDDDY0ND3a0NDw77Mc9rqWo0c/FgwGT8aFAVyz7RfuBwJAAAgAASAABKYgUFpa+oXde/Yt3bt33/l9+w+g/QcOooMHD6FDWACUlaNy7AUgYYCams7a2voHLRbLv0zRZdo/9fQEX44LA+AdAmfsVUh7AnADEAACQAAIAIF/FAKlpaU37NhV+uSu3aXnSkv3oj1796F9+/bzAuAAFgDYC1BWznsBKisru6qqqn5cVlb2z/PBp7u7++ZgsHeCbA4U3hvg7fkYC/oEAkAACAABIPAPSWDDhg3v37595z3bd+wc3LlzN9q1uxTtLt2D9uzZh/ZiAbD/ADpw4BAKhwH6yyoq7sP1/ecbVjAYPBwXBjh7/PjxtBIK53uO0D8QAAJAAAgAgauSwKZN29Rbtmxzb922HW3fvhPt2LkL7dq1mxcApXv2or3YCxAKA5w9ePDgn/bt23fZtugNBoNF8WGAoaGhB65K0DBpIAAEgAAQAAILgcCmTZtu2bhx855Nm7egLVu2ISwAtm3fgXbs2IV2YgGwuxSFwwATe/fuX3vgwIH/d7nnjRB6fzAY9ETCAAP8FsHuyz0PGA8IAAEgAASAwFVPYNWqrf+6bt36V9Zv2Hhpw8bNCAuAzVu2oq1bQwJg+46dSBAG8O/du1d6JR86GAwW4jBAf3SLYDQ0NERfyTnB2EAACAABIAAErioCa9euvW3te+uOvLduPVq/fiPasHET2rhpM9q8eSvasnUb2obDADv4MMCFXbtK/1RWVvbhK/2ACKF/6u3tbezr60f9oaJAaHBwaNOVnheMDwSAABAAAkBgwRNY+e67X3nnnTV71ry7Fr27dh3CAmDd+g1ow4aQAEgUBtixa3d/aWnpht179z64b9++DGyIr9SD9vT0q+LCAGODg4NfvVLzgXGBABAAAkAACCxoAsuXL//A22+/8+jbq985u/qdd9GaNVgAvIfWvrcerVu3Aa3fsBFtnD4MQFYDDB44cGDn/oMHf3/48GHdvn37Pn05H76vr29vKAwwgAYGBnEYYOnlHB/GAgJAAAgAASBwVRB488036ZWr3nKveutt9Nbb76DV76xB76x5F737LhYAIS9ANAywBYcBjofCADtIGADt2hVaDhhaDbCfXw1wgC8KdJgvClReXt5dXlGxo6Kq6onq6urba2pqvltaWvqh+QDU3d39lb6+/jOCMMCp0dHRf52PsaBPIAAEgAAQAAJXHYHnnttw/euvv7n0jTdXTry58i20ahUWAKvR26tDAgCHAdYmDgM4Nm3accuW7dvv2bZtx9YdO3edjKwG2JO8KBBfFbCiKro3QG3dpdq6hrb6+oa99Y2WV5qamn5htVqNFovzVovF8jlcc2CmUPv7+x/o7z+CjoRWA6DBweHfzLQvuA8IAAEgAASAwDVDYNmyN763fMUKz4rX30Svv7ESvblyFVqJBcBbWABgL0AkDHCBDwOsjw8DbIlU2lu+3PKBHTtK2d279/y1tHSPdc/efRORokAHI0WB+KqA/OZA4b0BaqJ7A4S2CG5qQhayRbDdjhwO57jT2Xyk2eVyuFye3R6PZ5XX2/K4z9d6v9/vX9Te3q5ra2uTtrW1ZbS3t3+9ra3vpu7u7k/gJYE4D6G/v38brgo4MMiHAYIIoQ9cM39AeBAgAASAABAAAukQwG/Vy5Ytf3jZa8svvLb8dbRixRvo9TfeRG+8iQXAW2gVFgChMMCeNWvWUGvXrpWtfW/d2Hs4DyCyGiCyHPDBRGPjmP+ePfvvCG0OdLAXVwWM7A1QUSnYGyC8ORC/RXAjasRbBFvwFsE2ZLPZkd3hQE5nM2pudiGX2408Hi/yen3I19KC/P5W1NoaQG1tbai9vQN1dHairq4u1N3dg3qCQdTb23u+r6//1JHoagA0PDz834nmC98BASAABIAAELimCTz//LIvvfLKq5WvvPoaenXZcvTa8hVoORYAr2MBgL0AfBhgaNXq1YVCEO+9t/4PSVYDjG3dujNfeG2i87Kysi8dPFh2R1lZxbLy8gpXRWXVeGSLYLw7INkiGAuAJkvIC4AFgN2BHE4ncmIB4HIjt8cTEgC+FtTi9/MCIBBoQ23t7aijoxN1dmIB0I16eoIo2Eu2CI6GAYaGjrZi70CiOcJ3QAAIAAEgAASuSQIvvPDinS++9MqJl15+Fb3y6jJeACx7DQuA1xEOA7zBhwHealq5cuVN8QAee+yx97373oaDeDlggtUAZ7Zu3Zkdf89Un6uqqj5RWVmpr6qufqKmpqaqtq7uXF19Q4IwgAOHAUJeACwA3B7k8XqRDwuAFj/yt7YiXgC0taP2jg5eAHR1YQHQg4LBXhQtChQJA2AvwB1TzQ1+AwJAAAgAASBwTRB47LFVH37++aVvvbD0JbT0xZcRFgAvv7IMvfrqawgLAD4M8DofBqhes2bNDckeeu3atZ95b/2GIBYAuCjQpk2hMEB4NcDwrl27vpXs3um+x6sB6urqqIaGpl83Njata7JY/BarbTylMEBgqjBAH8JFgUJhgEE0ODSEjh496gMvwHR/EfgdCAABIAAErmoCzz777E3PPvtC43PPL0UvLH2RFwAvvvQKevkV7AWICQN4Vq1aNe0yuXXr1mWtW7/hXLQoUKgqYHhzoCO7d+/++lwBq66u/pjF4qBtNsf9DqfzjeZmV53L5R5NFgZoJ2EAPg9gchhgILwaYGjoKBYBt83VPKEfIAAEgAAQAAILisAzzzzDPP3McwPPPPs8wgLg+RdeREuXvoSwAIgLA5xcvnx5ypXy1q9ff0eCMEB4c6CdPaWlpSn3NRNgLS0tN3o8HrnP5/t5S0vLUr/fvy0QaLO1tXUMJwwD9JG9AaJhgKNHhz0IoffNZHy4BwgAASAABIDAgiXw5JNP3/fU089c/NszzyEsAJ597gVeACQMAyxb8eN0H2T9xo1/SxAGIEWB+v5eFvjmdPuci+v7+/v/pbu7++bu7m66u7vb2Nvbe2cw2P9gX1+/Iy4MgEZGRhbNxZjQBxAAAkAACACBK07gxRdf/NBfn3zqjSeefBo99fQz6Om/PYueefY5XgAkCQPUzaRuP04KXL9+83vCzYHCYQC0Yye/RfCx3bt351xpIG1tA58O9vZuInsDCMMAIyMj7QihD17pOcL4QAAIAAEgAARmRQBdd90/Lbv/vh+/8MgjfVgAPPnU33gBQLwAkTDAi9EwwEvLllEzHXTDhg0f3LhxU2n8FsE78BbBu3ajXbtLj+/Zs0c+0/5ne193d7e5p6dniF8NkDgMgFcE/Hy248D9QAAIAAEgAAQWBIH9HJW5RaPa8+Y9d/c988QTiAgAYRjgxdBqgOrZThhn72/atHnH5i1ki+BJewNc3LNnz09mO0469wcCgS90dHaux8sBcVGgIF8UqA/19fOrAcbx5kDh1QBYAAyNjIwkXfmQzrhwLRAAAkAACACBK05gg9n8/n3izP/bR2We3VxgOPPmgw+gF556ik8GjKwGePGVo6+88trWl19d/uirr76eO9O6+3gXwc2bt67GywHjwgBo9+49CG8OtGfPvidw2GA+wQQCgRsCbW1/aW9vP8MXBZq0GqC/pbe397sDAwPOwcEhNHT0KBYA6NixY4/P57ygbyAABIAAEAACl53AfvF3v3tQnOE+ILoV7RdnoB1GDXr37p+gFX/4PXopXBMgUhRo2Yqh5StWPLVy5cqvzGSim7duf2Trtu3j27bvQDt28HkAOAyASksjmwPtPnjw4L/PpO+p7rFYLB/w+/33+Vtbh0hRoA5SFIivCtgzEQz2rSBv+keOHMkeHBwcG+JrAgzjZMAzw8PDn59qDPgNCAABIAAEgMBVR6BU+7UPHaAy/nZQnDF+UJyBSDvA5qIdhQa04e6foNX/9wh6/YWlpCjQ+OtvrNywatWqL6X7sJu2bVNs27ajdzvOA9i5ixcAu0v3oD179qLw5kBdhw4dSqtqYLI5lJWV/bPH4/m+1+fz81UB8d4AfFGg9sjeAJ2d3c3d3d2T8hAGBoZeiIYBRtDo6OibycaB74EAEAACQAAIXNUEDoq/JzogzggcpDLQoZiWiQ5TobZfyaCdi4vQpgd/jt79y1/Ov/X6648vX778XxI9+IYNG67fsGHD59dt2fKtzZs3M5s2bc3fsm3bj7Zu3f7X7dt3ng+vBoiEAfbu3Yf27T+A9h84eOHgwYP/O9OQgNvt/qjT6XrQ5XJ3RYoCCTYHCoQ2B+rq6Oi4M9la/6GhoY8ODg75SRhgZOTY2PHjx29N9JzwHRAAAkAACACBq57AgYyMjx+kbt1EBAAx/IfpTERaGZ2JSDsszUV7Cw3nd/3oB4HNjyzxrXvxJf+aNe/2vbt23bm/bxCEQnsDbEIbN25GeDXAli2hPIApwgBo//6D6MDBQ+jQocPVFRUV/5Eq1HqX6zN2u/Nxh8M54mxuDm0ONHlvgKFAoP2hQCDwoen6HRoa+u7Q0NC5o0f5MADOBahPJhim6wt+BwJAAAgAASBwVRA4TGfefZjKvECMPj4Sox85SjJRuSRrUiuTi9H+knxUet/daPsf/4C2LFuGNm7YGL83AF8UKDYMsI8PA2AvwIEDhxDeIvjw4fIzhw+X/xLH8ROBwzUKGhsb2SardbXVajsX2huAbA7kCm0OhLcI9vmcfr//rmAweH2ifpJ9NzQ0dN9RPhlwBAsAdPz48buSXQvfAwEgAASAABC4JggcpjNyDtOZXZOMvyRzuFySNRpv/CuYLBTfKpksVMlkowoVgw7eYUb7fnE/2v3E42jHG2+gHVu38UWBdu3ajXAeAF4NIAgDoIPYC3C4DJWVlaPy8gpfVVWVgYCtrq6+sba2/pH6hobWBrJFsNWKeAHAbxHcjJqbXWMul3uzy+XjyH0zOQ4ND2/EqwFGRo7hXICjJ0+enPNExZnMC+4BAkAACAABIDBvBPaKRP9WRmfu4d/6JZmoLPTG31fBZInRdde9r0Ys/jQ+r5Rk31XBZP2tgsmqqGCyzhPDX8lmI9Kq2GwkbJUyESovMaFDP78bHfjTH9C+115De7dtQ/v27cd5ACQMgA6XlaOy8gpUUVGJqqqq91dX1+6oqam9VFtXj+ojWwRbkMViRVabDdntziaHw/FLh8MxJ5n7eHXA0eHhlpER7AUYRceOH18+b8ChYyAABIAAEAACC4UArhlwWJL5XNwb/4VyOuveRHOsFYmur2CyZRVc9uOVbHaL0Ojz51w2quKyUTXfclA1F201XA6qylejyp/eicof/TUqf/4ZVPbuGlR24CAqr6hElZVVqKq6BlXX1KLa2jpURwRAY1O/xWL5nd1uTzlnINHck303MjJy8/DwyCkcBhgdHR0/ceJEVrJr4XsgAASAABAAAtcUgXI660flkqzzWAgQV385m/W6JSMjYXyePHylJPfWSibrb1Vc9kBSwy/NQTUJWq00B+FWIxOjmiIdqrn3J6jmsUdRzasvo5rNm1FddQ2qb2hEjY1N401Nlq1Wq9WQLF+AzGemx5GREfPIyLGJ0dFRnAtgRQj980z7gvuAABAAAkAACFxVBColmVQFkzVIBAA+VjLZ++pzcqYtl1vDZouquZyJmDf+KYx+rTQX1cqirU6WiyY1hQjVLTKhhgd+hhr+8hhqfHMFsu7eeczR1PCaw+Gg5xruyMjIMzgMcPz4cdwenev+oT8gAASAABAAAguWQBWd+ZUKJjuAk/v4xsf5s5rLuJwvTDfpai73LSwApnrbFxp9fD7J6OPv5LmoflIToXp5qDWoaNT4/UJk+flPjzUaZE80KnJL6uU53w5otdMu/5vqGfBb/7Fjx8p4L8CJE+dPnTp1y1TXw29AAAgAASAABK4pAnzyH5vdFJfg11XB5EwZg69WUjfWSHPOCgUAdvHXSbN/UyPL+UGNPOd/a6S5z9bKRKtrZaJ9dbLc5jpZ7kCdLHdiWqMvF6EGRfLWqBChRoVorFHL9tl+ftcZx+O/Pe5+c/mor3TXsTa7o6urq8vV3d1jCQaDh4LB4L7+/v4N/QMDawYGBpYPDg4uP3r06PKRkZHlx44d2xoOA6ATJ082QijgmvqnDQ8DBIAAEAAC0xHYp/r2R6rYnNKYJD8c55dmf2eqe2uk2c9iAUDi+6E3ftHfprrHbb75g03yzK/UyXMV9XLR3Q3y3CfrFaIN9TJRdYNC1J7I8IcNPjb6oaYUoUa+iVGjMtSalGJEmiVPiex3fR+5fv8waln+Cmrftgl1NzWi/v5+NDg4iIaGjqKj/HLA0GoAHAY4ceIEOnny5MNTzR1+AwJAAAgAASBwzRFw33zzB6vYrPdikvvYnJEaNitplnyNSvzpWmnuOaGrv06W24seu27GuwHiPhuVInmjXPxAoyJ3RaNCZG1Uii5OZfCJ4Y85qsSoKdwsKjHCzWqQoua770C+PyxBbSteRt27t6MBhw0dGzpKBAAOBdx8zf1x4YGAABAAAkAACExFAC8TrOay18Ql941WSXMykt1XK819Kz6+Xy/PkSa7fibf4+WIjSqRuEkhesiipLY0KsXHEhl7YuinP1LIooppE45i3TH33T8IeB64e4dVKf6hTUllWowZCfdGmMkzwD1AAAgAASAABBY0ASwCaqQ5q/E6fkF8f6SWEX0v0cRr5OKsmOQ+nNAny12R6Nq5+g57GKwqOsOqon5tUYkrLSrx2GSjHzXwVhWFIk1NIWvqbdyqptosamqbTUX91aahb7Op6e/gMMZcPQv0AwSAABAAAkBgwRDABha/2RMBEI7xD9fLcxK6x+tkuQ0xiX0K0bHLaSRtWsmnmlTUTywqqn+Ghp4XBTY1hVJsl2xq2mvT0BvtKvEfbCpxsUUl+mYZx0E9gQXzrxgmAgSAABAAAjMigEVAjTRnbcj4R9bwd+Ps//gOGxSiO0NL+aLL9+oV4rz46+brs1Ut+ppVQ+2b6s0+RcOObBoq/RYVDhdsasphU4vX2jXUIzYNZbJrcr80X88N/QIBIAAEgAAQmBcC+C0eL+EjSX7Y1V8vz7HXa2OLBZVx3Ifr5aJRvHa/IbqEb/W8TErQKR7XqqEfs6qpc0LjHzb2F61qeoXQ8Ns11Hqbhl5q14iX2zTitfgN3qahDtg0lMWmoTqtGvqkXUOjdJtNQ6NoSyggRmwa8UGrhvqbXU3fblXk/icOtQgeBU6BABAAAkAACCwsAmUc91HexU8K+eAYv0K0L75scINcvCZuCd/wfBo5q0aktqqpgNDAR841dI1TJf4WFgjRN3ps2CU/nI4ufi6LWvI5m47KDL3B0/faNPSfHRp6tV1D19i19EC6AgFfn0AgnLZpqFqrSvyKVS3+kUNN3TKb1RPTPRf8DgSAABAAAkAgbQIWLuOTdbJcnzDOXycXvYWuu+6fSGf1CnEREQBkvX6DmpKQ3+fq2KjjPmtXU+sjxh6734nbXk2N2tTUPUJDatfQJyIGW00/PhfzcHPcR3EyoF1Dm+06+jG7lt5o19Jeu5a+FBkrRU9CSBhEnuEE7ylQU3/B4sMlz/nMXMwX+gACQAAIAAEgMGMCtZzoa/Xy3BFSopc/KkV/Ih06Vd/+SKNCdJYYf1ygp0kpfor8PhdHm1pcZFNTRyMGnzf8IZe9TS1Zh8VB/Dh2jSTAG2UtjWxaybr43+fyMw6ZONWSW+1ayU8dOvo1p5ZucmjpCw4tjeykTSMM4gQBTkrssqmpdVY19ZBFLbl1Pr0qc8kC+gICQAAIAIFriEC4et8lQZwfNSpzI271RoV4OynYE16n752Lx7coMj5uU1NvRw1/NE5v09A9Ni2lTTaOQ0PXYAPMG2ENbUl23Xx9j0WBQ0PRDg39W6eOPuDQ0mci80lBFMQIglCy4QmbitptU9NL7CqROD4UM1/PAf0CASAABIDAPzgBXKGPuPrxsVEhOlevChUKalBSd4Xf/CNleXGG/myQ2TU0Z9NQXQlc6xMODf2GRaH4+FT9O7T0VmJwHVrq+FTXXo7fsCCwayXU38MF/+fQ0vsdWvo0md90XoIEYgB7CM5YNdQha2g5IgNLES/HXxHGAAJAAAj8gxJoUIjejLr6RahBKe6ycNwncXa7sEJfuDjP/TPBxCfwaeln7Bp6fJLx19L9Do1EnUq/Di2z3KmTINJwzYBU7rtc1+A3eIeGetihpS8RIUCOvCBIEjKIekNiaxdY1dQJq1q81aqhfuZUMV++XM8B4wABIAAEgMA/AAFcIrdRKXIL3f2NSvFeHJ/my/SGa++HBcDWdJFgr4FdQztiDH/Yje/Q0bvSMeIOHf1nYvzxsdnAitKdz3xdbzfQXLNWUubUSpCTPF+SYzIxkMQrEKl2aFFTfpuKXtqkpHRQ2ni+/pLQLxAAAkDgH4hAk0r8rUal+Kzwjb9RJfqVVSUqjS3LS42mk7hm10ry7RrqeMT4Rw3iBaeOflC48iAV3C4d/UAzNvzh5tLRP0jlvvm8xmWgOadOUiEUJjHnIUHQ5NBSm4g3QHhMLgbCqwmihYkiQiBcJ+Eczh/AVRPTEVHzyQL6BgJAAAgAgauQgEVJ3UMEQNjoX7CqxdtD5+H6+2oKNalF2dM9Hl6659DQT9g19AQ2cEKD59DSAziRbro+Ev3u1EsWN+sliDSngXks0XWX4zu3gf5Os16yh4gR4ZEIAIeO3u/USOR4Pg6dZCX2DmAWTq3kUbzk0KGh9zi09DH83SyEAN4MacyipMosKvH9jSrmpsvx/DAGEAACQAAIXEMEmiIGP7TlrkVFjfP1+AUb7lhU1MO0NydIAAAgAElEQVRTPbJTpfqIXUNvSWD4cVU+i2sWBsqpZWQuvQS59Axpa6aay3z8ZtdwX3Lp2Xdcesk4ngsRI5GjTjLRrJNsbdbTMbsuNuskHiIMXHrmP8ncsBfEqaG+4dDRP3Bq6RUOLd0S8ZgIcgYieQLJPAKRHRHFExaVuMGiEj0826RNMkc4AgEgAASAwDVOwKakbrSoxMcjb/0Cw4/dzuGCPQeSYXAYRJ+3aWlr3Bs//9bbrJPsqjWLrk92byrfO/XctwTGHzXrmfpU7puLawLanBtcBvZpl565IJxD9JwXA3tcOiozfjy8uqFZJxknAmA6l71bx33WoaNK7Br6Zbua9goFQbwQEJZN5s+jQgDhv2OTSlxrUVP3NOvpT8TPCz4DASAABIAAEIgQsKrou+Pf+gXGH1fqO51ovbpDR3/dqaW7440/dns36+j1ie6JDJriibNA/Gm3gUGCNpzirTO+DIczXHrmx24DMyAYl5+Dy0A8EZIyt4FLGtZo1tMKQYhgTFjdMJWJ2XTiLzo01M/sanqrXUOfTJQsGCME4kRAWAica1JSG6wqkQGWF6ZCHa4BAkAACPyDEcAuaatKXE4MSqRMb7hEL34bderoHCEWh5b5nkNLDwqNP58Nr5MgHPtOJ3FQ2G/8Oe7HbWDGhYZ4Pt9sXXpG7DYwFuF4cec+l5E2xM8z/rPLwDwWCRHo6YH439P5zFco1DIyu4Z62qahm3mPQNg7Q/5m5GjhhQAJ5/DeAFLTYaBJIXquXp7z7XTGhmuBABAAAkDgGifQpKG+YVVTF2ONf7Rin11L/YogsOsZMS7KQ4w/MfzY3d2sZbbMlfEn47kNzJDHwCDS3EY2i/w2V0csKrwmdoXHyE54jCyKtOi4w26D5OepejVcekkZCRW49XTlXM0T9+PUcl+wa8U/tWmozTY1dQL/zYgA4I+JvAGh0s5EDNQ0qqhFqT7LXM4d+gICQAAIAIEFSMCmoV4k8WZhDJo/10q24ynjXfaI8Rcafmz8HTpJzWxj/omweIysO2KQjSxyG9nbEl030+98BuZ2r5Ed8BpZhJtwLI+RveQ2Ms/b87l/TbX/To77sMvAnIsKAGZ5qveme11Aq/2QVUUb7SrqnVARobAYSCQCcH6AQAg0KsV9jSrxb2tU4k+nOy5cDwSAABAAAtcQAYuR+6RNTY3GG//wm/4I3kHPqZUM48/xxt+lk7T6CuT/Ph84PAb2MDbKxEB7Tezv5mIcXz73JW8eu89rYhHfhGOEzuvcOu676Y7l1TGMMGzgMjAPptvHTK7H1RftanGeTU29a1VTJ7E3YIqQAC8GcOnnRqXofJNC9HaDcnIy40zmAfcAASAABIDAVUgAu/ojAmDyev4T8YY/nOh2IX4J3Fw+utfIrRMYf2ys355N/zjnocXE3eMzsSd9JhYJW1gMHPOYuJhtidMZD8f/YwSAiVWmc/9cXIs9MVYNXWBV0e9ZVNTp0CqPUG5A02RPABYBeF8I1KAQ1dYpc03pFmyaizlDH0AACAABIHAFCWCXsl1D95L4vvBIlrSRYyTLXU8vmc8p+/LYF8lbethY18x0PK9O9kWfiTvgM3EocWM3ukzyz8y0f3yfx8DUR/IV8KqBWfY3m7nge7EYaFKJi60q8SaLSnwhvEIgPhwgFAFYCNga5KJ8EAKzpQ/3AwEgAASuIgIOjeQXMYYfl7YVbMgTMfw46U8vqUh3iVu6KFpM3G+jb+nYcLOD6faBr28xSX/ckseeaMnjUIJ2tCVfWjKTfoX3+I3cJz1GdjyaR8AEhL9f6XO86VOTivqFRSnyTOMJwCIANchzHY2K3EIQAlf6LwfjAwEgAAQuAwFc2c+hpY8mivVHjH+4Il6oOh5T3axnlnhM3Ky2Dk72aL487mfkbZ0Y7oBWe0Oy6+O/bzcrPu43SdeSe+OPfhO3s8WkvDH+vpl89pi4O0i4IiwCVs6kn8txj1VFZzSpxMublOJTJDmQzwkIbRMdEgChsACql4vcDQrRnXO9wuNyPCeMAQSAABAAAmkQcGglv08S74+UwiVZ7uToNjATbgPT4NYzS7wG5j/SGG7KS/15bEG80fYaZLdOeVP4R38eK2nJY7v9eRya3NgTLSbu+6n0k+o1PhO3Jiah0MDdleq9V+q6ahP1sUaV6O4mpbghlBQo5vMBwjkBESFQLxehOpnIVSsXaa7UXGFcIAAEgAAQmGcCHrXo35w6yTns+o+89Ydc/iiuNr+wSl/kHMfA3Qa22WPiHnOZJLMqPtNiklJCAYAN+XTuemQ2v9+fL3vMny8d8+dLUYLWEMiXfXUuMeKCPS0mdhSHK0jOgt/IfXMux5jvvqzynG83KqmXG5XiS1gAJBIBWAjUK3J316pEV9WzzTc76B8IAAEgcM0QcOglayLGP+ryJ5vy8Edhtjs+55PfjEzMWvqwSzzgNbBPefKkOenGk7E3IfL2ns8hP2550keTgQ6YJZ9qzef2t+ZLUYI20Zovfcpyd8YHkt0/0++9JqmehCrCOQt96T7rTMee7X1ujvtoo4IqbFKKVzYpxUPh5YGTBEADNv58y0X18tyLtXLRC1U07DkwW/5wPxAAAkBgQRFo1kpYXgAkMv6x9fn5N/+Q8Y8W0iGxcP4YfisOG8agL0/6YouJleI39ekemo/h84Y/+ibfWiBNGFsPFMhFrfnSYIzhL5Ci1lA7GsiXqaYbb6a/+/O4VdhTQURAi5F7faZ9XY778DbCFpX4f5pU1B6LSnwupaRABREA+MiLAFQnyx2ul+fcB/sNXI6/GowBBIAAELgMBPDba7NB0oJr2pM4P3+MM/5kyVs08z2maA/vDo/N4ueQj2Tim7ihFhP3hj9PqsNLEJM9Vmu+9HyMUc/nJpXXbS2U3d9aIL0QKJCiBM3SUSj7YrL+Z/u922z+YEsed0wYqvDmsQWz7Xeu72+S01+xqsW/sWqopkRlg4UiYLp8AOIJqJPnYhGAm6dBli2b6zlDf0AACAABIHAFCLgMkkeExj+xyz/5W/8kw29KuAQvlKCXzx1vyWffbc2XFvUbjf8ifNzIW330bb6f/I6Nb6BQ+kYCo0+EwMrOH3IfJtfPx7HFJDXxuQlE2ORx51tM1MfmY6x0+7SqRV+zaaiHbRrKQvZ6mLx3gGADodhywaQ+gKdBIarklwbyywOJJyDsBYiKgIk6We6Kem1Oyqs00n0euB4IAAEgAAQuAwGnhvoGEQAxxl/PrvIYmB0eI3uavPlHXP6x7v6oSzxqHCPr8PnYPonrh5P1wm/6Z1sLuC2BfO6OznzuX1sLpNY4Az+BlyvieH9bgawyUCBDpLUVyFBbId8utBfI7rkMmK7z50u3hXITQqsNfHncgcsxbrIxXCrmJoeWXmLXUrZIZUcNjbd2RolEwKSSwUrxhSYVdcCiEj+AvQb8SgGFqCMiAOJCAQIvAO8NqJHm9sBqgWR/HfgeCAABIHCVEHDpGW+M8eeT/dgf4enjzHePQSr3mtinvQa2mWS/h978BfHwOOM/heEPJe6F3/TDRh+79c9EBUDY2OfL72grlHWGjT0x+uR4LFCs4C4HYm+h5HOt+dJL0ZUGHGo1cZdFeAifz6JQfNyhpX/s1NCHHVp6nBRzihUASURAaPOgIYuKehtXDYx/g29SipbFrQoob1CIzpAwAM4HEIqAWlkuwq1GlrOqjPtuyhspCZ8HzoEAEAACQOAKE/AYJX8RCgA+5m9iH0k0rUAh9wWvkfmJz8RtbDFxo8KYOD6PzeYPJfXFxPZjDT9x4Uff7kNv9sTITyQx/m0dZuk3Es1vPr4L5HFLyDOERcBFXBFwPsaK7xNv6evU0sZmHb2eLNvESzeJ8SfHWBFARTwBVjXlsmmoJ+wqkThZkZ8mFaVsVIonBPsFtOCNh6qV1I0NcvHr9XLRmCAhkOQD8AKAFwLSnL4qWa4xfu7wGQgAASAABBY4AY+OziECIJLpb+BemG7aOCvcX8DRLXnc4y15nMWfx47zbvJwRj8xmvxxCsOfxMjzIqC9UIZiWpGs2n/b5TG++PnRY4+9r7VA1sqvMiDLDvOku6ZjM9vf+dCMgX262SAZxEmaZLlmpGSzNlYE2LU0CouAC3aNZJ9VTf3crsn90nTzwJ6AJqW4G1cKDFcJnGhUiRnhfY1S6pZ6uWhXMi9ArTQH1eAmy3nHosj4uPBeOAcCQAAIAIEFTAAbcreBORUx/kYWuY3cunSn3Fag+nRLPndHS74UJ/oNRQRAwqz9SByfvO1HjnEGH7UXyUi71FYk/fV8ZvvHP3MgT2YkoYnwUkMUKJjb6oJkTLypj8vI/sBlZCpcemYilJvB78cQqs4o2K+BFwJREXDGoaU22dX07ThMQPpL5dikFL0RVyZ4ebL76uU50jpZriu8IoD3BIQ8ALkoIgKkOe21MlF2sj7geyAABIAAEFhgBDwGyQGS7IePXiNTPpsp4jdnf6E8q7VQ+rtAobQmUCAdCxnSxIY/YvSjxj5s9OWoo2hyay+SWzuLZUtwSGI285zu3kCBrDyUfBheelgoPe02cx+d7r50fvflMf/lNTAvuw3MKPHEuPAug3rSwiIgXLUx7AU4jgs5OTRUocWYEbOiItWxLWqxvkklniACoEkp7rNz3JTxfBySqJPlLqmT5Z7BQoDkAggEAPYGXKzmcn51tRRJSpUXXAcEgAAQuCYJeIzs74kAwNn+HiPrm8sH7dbTnwgUSUsCBfI32wpkJ4jbP7Hhn2zwIyKgWI46BK2zWD7eUSw72Fkkuw0vF5zLObcXyrPIPCMioFD6xlyMgb0uHhNrdhuZcsIde2CIAMDHqABgyP4MJ1w65u1mDaPDyZmzmYdNK/mURSUe4LcODi8LxJUCU+2zQZX95TpZ7m6hAIgRAVwOquZydkEVwVSJwnVAAAgAgStEwGNkZKE3/3CRHxM7PB9TaSuU/bCtUHYpkeGPGHnhG3/Y2HcWy1EK7UhXsfxPXYXqz83F3NsKpeuIAMBHLAKwKJhN324d91mvif2d18T2kmWVEQGAhddkEXDGpWfWuwxsQSc3d7UOrGpqOzb+vADARyW1ZSbPVSsTmWtluQPhZMBQLkA4J6CaFwHZbZXynFntFTGTecE9QAAIAAEgkCKBgFbyKWKQwkv9LqZ4a8qXtRfJHm4rlE3wxl/g6p9k+NMz+qirWB5pYZFwrqNY/spscgUCRdJb2gtlY3iuAhFgTflh4y70G9ksn5F912diL5DiScJdBSMiICQALrhxDQYDc/tchxvwtKwq+m4rvywwUhzouE1JzXi75EqJ5FO1ctG2GA+AlPcAYC8Abqer2Ozb4pDARyAABIAAEFgoBHxGdpAXASYWYSM1V2+cOB+grVD24uS3ft7VP9ZeKH+PFwHTvOV3mRUozXaxy6x4teM2+WfSZdxeJNsaST4kIqBA9tN0+sEx8FaTVN9i4srJckmyjwDmS2oqEOHlMbKNbhP38/lcYmhXMv9hVVOncaXASHEgNTUnNQ3quNy7aqU5p/gVAdgLEDL+YRGQjSqlWX+FvIB0/gXBtUAACACBy0TAa2TLsFEib6g4q3+2Q+P6/+2Fsg3xxj/81n+xo0hR0m6Wb03g3r+Iv0vT4Ce7/mRXseK3qZYL7iyS5nQUySfai+Rk9QFeijiS6ts4fuaWAumP/fmsJ658MF8hMSQCQpy9JrbHY2D/+nc3/3/OlvV09+O8A6uaqidlgnkBoBZXoceue99096b6ey0n+lqNNKeOiICwBwBVc9moistG1UzWJkvGzJIWU50DXAcEgAAQAAJpEvAa2VeiAoBDgXzZV9PsIuZyvMtfW4G0LNblH0nwO99ZrMjD8fquYvkloQDoKlZc6lkk+2rQrPivbrPywS6zYneXWXG+26xACVuJAnULW4LrsJDoNCtau8yqaTez6SyWHxKGJUKeAOkfYx4uwYeAVnuDP1/6SGu+tB8vgQwVDQoVRyIeAHz0mbhzPhO3psXIyObS+CaYUsxXdjX9OC4TTASAVUWdt6hE34y5aA4+YKFRzeX8rUaaMxEVADm8AKhis1EVm91UTc085DAHU4QugAAQAAJAQEjAa2SWkLd//Jbams99V/h7OuctJuWNbYUyZxLjf66rWKbF/XUWyx+JMf4hN/+78WMFvq+9oWeRfHF3iXxHd4niUozBFxr/ZOdRUTDRVaJYifuLHwN/7jBLTXg+/EqDaDLimamKD3nM6n8LFEj/GCiQjgoLBglLB2NPgC+P9bTkcw/h6xONPZ/f2dS0wqamxoUCwKahfzufY9bKss3VXM4pIgKwByAsAFAlm91VxmXMufiYz+eBvoEAEAAC1ywBn5H7YUgAhGr8t5pkMRXhUn3wziLum3/P9u9KYvxPtxcr5bgvHA/uLJK3xbn6JzqK5FNmjXeauc8GS5S/6SlRdveUKNHULc47gAVCSAy0d5nlIuEz4R0KO4vlXUSQRERAsexF4XXkHG9UFCiQPdFWIDtJigXhY5wIOOsvYN/GFRPJfZf76JLnfMamoY+QjYKwB8Cmphvwm/p8z6VSnnNzNZfTEhIBoTCAQAQMV0lzc+Z7DtA/EAACQAAITEPAb2S1RADwrup8mWqaWyb9HCiQi9oKZcOxMf+I2/9kR2FUVHQXK+Vxxh/H8FMus4s47p97FqkW9yxSunoWKVFMSygM4sSAWXGpq0TxK/IQ3WbFE8T4k2NHsfx8/GqCrkLJ59oLpM+2F8pOkxUCkToBUQHQFsiT/gLvdEj6vxJHHGLApYFxmWAiAGxq6kyThrpseyngcsPVbM52kgcgEADYE3C6ms3kvUFXgg+MCQSAABAAAtddd53HxHyPZKljAeDPZ9P6H3OgSGZsK5SdwUZR+PYfjqePdhYqcoWgO4vl78Un+XWbFWm/KSOz+f09JaofB0uUweAiJRK2iCiIEQQCIYBDDsWKtd1mVUaXWXGBzxUQrkYokkf2ROgtkP97R5H86fYi2RkicIgAwMdAgWyiLV96AJcPxisfhM96pc5tGuphslFQRACoxPdf7vlgIVLDZb0QFwbAAgBVMtkXy9ls8+WeE4wHBIAAEAACYQItRubLQgHgK+AMqcJpL5L+GBf4SWL8h9vM0gxhX9iY4sQ+oQDoNiuqhNeke45d+L0lqkeCi5THhSKAnPNiICIEYkVAN/YGCJYZhj0AJwJm7adaTNTHOs3y33cUyY9jMRO/PDDkCZC+hmsHpDvn+bzermfEdg19KUYAaKn9V3IpXiWb/YsqNnscewF44x8SAKiCybpUwWR9fz55QN9AAAgAASCQhIDfIPs8FgCRjHWT1JTk0pivW/Nlv8UFfsjbcPTtn3f9DyaK6XcWKX4hNLg4Lt9lVuhjOp7hhyNm7ad6S5QbieEXHmNFgDK6eiCcJCicU0ex/C9dZvkvu4rlRyP5ALwACIuAQtlAe6H0EVzmeIZTnbfbmvX0J5xauluwSyCO+486tTnzundCKg9UxWabq9jsc3ECAIuAsXI260ep9AHXAAEgAASAwBwSwOv+hQLAn8cWTNU9dr0HCmWvEsOf4O2/v6tAkXB9e5dZ4SHGNmz8nXP9ZhpcrL69d7FyRCgAyLkwcTCyokDgAeDnVqw4RnIB8FEgAjrai6X3Bs2i66fic6V+wxwdWnqrA28RHN0mGNm11IJ5w67icuhKNns0HALAxp+08TJJ9l1Xih2MCwSAABD4hySA3xqFAsCXLy1KBgIXuwkUSNfj5LfEAkDa016k/I9E93eXKCmh8ccCoKdEOS+lYgdvk3+md7F6e2+i3IAk4QAyN3yMEQBmmaujWHHn5cieT8Qt1e8cWsn92PiTFg4BzKjWf6pjzuS6Cibze5Vs9nBIBEQEABYC42WSrDtm0ifcAwSAABAAAjMggGPdQgHQYmITJmZhl3dbAVeZaHvfkPtf2tFlVn052RS6zfJVxMjyS/IWKdqxNyHZ9bP5fuAHqo/0LVK/3rtYhaYSAcm9AOFNiIpkT8y1h2I2z5XsXoeW+Z5TKzlPjD/vBdDQ/Q3y7H9Pds+V/L6Gy/puJZt9tDLqAeA9AeWSrEuHJZlJBeiVnDOMDQSAABC45gh4CyWf8+UJcgCM0rz4hwwUcl9oLZC6o+veJ3kAWtvyVDfF30c+4+qAXWbFGaEA6ClRzkktejIGOQZvV2f3LVa18sYfC4BEIiDeC5AgFyDsBRjrKpb92XJ3xgdI/wvtiAWcUyfxO7WSyNu/Q0tP2DWUbqHNVTifCkb0X5VM1qAgDIDKJVm4XTgsyZ6TvBDheHAOBIAAEAACcQR8BfKvRxIAsRAwcRrhJQGj9JbWAmlP1PhLY9z/bYUyL14jL7wn/rzTrPgfofHvNiuOpFqjP76vZJ+xN6F/seq3/bepLvYtViHcoiIgwTLBsAhI5gWICQMUyxuShTaSzedyfe/QS9Y4dRIUIwB09GuXa/zZjFNNZd1SIRABYQGARcDZQ0yWeDZ9w71AAAgAASAwDQFfvjRDKAB8+RxHbsGV7FrzpcdwlbskAsCZyuZBXWaFNUYAlCiXkDHm4jjwA9WX+xdrqvtvU6E+0hILgHacEChcFZCiAEAdRfJT7cWKwrmY71z10axjfsYb/1gB4Hdz3Efnaoz57qdSknFrBZN1AnsCBAIAlUsyRyqYWxMmk873nKB/IAAEgMA/BAFs8IUCIFDA8qVy/flcfmu+9Cze4CaJALD4CuTTxpi7zVJcbCeyY1+3WXE8WU3+mQA/crv6zv7b1Sf6b1OjKQRAV3CR6vvBRaq2WQgALAImOgrlf1oIBX9cOiqzWSc5HycAztl14hnv5TAT/nNxTzmbI61gss4LBUCZJBOV05ndh0Siz8/FGNAHEAACQAAIxBHwGdnbYgSAifleawF3jz9fOsYb/4QCQF6XarnbzmLFsq5igQAoUf41bgoz+th9u/4Tfbep14cMf8j4RwRANARwqfc29bNDZu6jQUGNgBl6ALAA4AsCtRXLts+liEkXgEct+rdmnaSzGb/5k6aVILuGvjfdvhbK9ZWSzKJySdYYEQFYAJTRvAhwVlPUxxbKPGEeQAAIAIFrhoAvj3tYmAToN0nX+vNxSeDQ1rYJREAFTjxLBQDOxu8slp/A8fSwF+Bsx23yz6Ry71TXHLldLe2/TdWDDT5pEdc/DgHw7n9lY99ixfdwP8FFivtJLQDeAyBIAuwpkW/pNitGw3UJyDxjlwLiegDhXQJJRcCOQpmtwzT7Z5nqORP9hsvrNuslu7DxjxEAOmZDouuvpu/K6cy74wUAFgGH6cxdG+ZpxcjVxAfmCgSAABCYUwJeE7csZhkg3g+A3xMgoQAod5tTjy93FSl+TJLpeAFQLH95NpPH2fh9t6se67tNNR5j8AVx/77FqtPBxeolZIlhz2JlZnCR8jwRADFv/4sUq/F8sKDpLlEu6TIrjoXnGSsAolsEx5QEbi+UdrSZua/N5pnSvdelp/+vWR8y/gIB0G5RKD6ebl8L8foyJvNJLAKIByAsANAhOuuZhThfmBMQAAJA4Kol0GJkdycWACEvAPEABAq40nQz9zuL5TUCAXBpqjoB0wE8Ytbe3LtIZScZ/kmOW4JmWSRmjMMUwUXKjkTGv6dE2RD/PHi5Ymex/MnOYvkFMm9BJUDUTvYEKIxZBtnXVsB9a7r5z8XvHi0jc+klY3EC4DzOB5iL/hdCH+i6695XLsnaGS8ADtOZqIzK/MlCmCPMAQgAASBwTRDwmbiW6QRAIF+21W02fzCdB8ab5GDjSQxpV7H8nXTuJ9fiQjx9ixQ/712sOhtd1idc4sefd/ctVsbsYYDvCy5SbCXGP9b1rzoiFApkLHLES/46iuW78NxjBYAs5AGIFQB4R8Cj870pkMMg+7zLwAzyxj/sAcDxf4eO+RmZ97VyLM3JuaGczvCQt39s/HE7RGVeOExn5FwrzwnPAQSAABC4YgScKtVHfCZ2bCoB4M+Xrp9JIZz2YsXzAgEw0VagSvstudPMfTa4SFlKjDiu6te7mDTe8I/1LlY9h5P84iH2LlI8RO4Tuv17SpQXuhbLUlpj3mGWmjqK5P2h5L/IZkD8tsfCUsi4NHKgQHqkvUD+9fh5zMVnS0bGB1x6ptqlZ5BQADh0kpVz0f9C7OOQOOOrZZLMYWL8D1O8AECHqIx2LBAW4pxhTkAACACBq4aAz8CKfCYWYQGQWARIV5NYejoPhV3rHUXyYT5xDnsBzPId6dyPr+0xK009i5RDxIgnODb1LVLfmqjf4GJVTnCR8gK+J9b4K1DXImVam87gLYzbC+XvkeQ/XPY4gfHn6yS0FkiDeHvlRHOazXduneRZbPxd+M0/Gv+3dHLch2fT70K7F2f7V0pybj7EZKjKJFk/LJdk7k4gANBhKmPNQps7zAcIAAEgcFUR8JrY/5lCALw+0/Xu7UWy20jWPPYCdBWn9saN4eGVA8FFiuXCnfuwEY8KAMXJ4CLlg8mESdCs/rfgImVXrOFXop4SBeoqUbwy0z9QR7HM3F4oOz6NAECt+dKA38h9cqbjxN/nNkqKXHpmIkYAaCXDXp34i/HXLvTPNWLxp6u5nNwKJuv7lZKs35WzWasqmKz9FUyWp1ySdTLJCgDe/S/wAGAvADpA3Zq70J8X5gcEgAAQWLAEvCZ2RUgAhLwApB6AL497eTab4LQXyQ7jhLmwCKhIFUDPInlWV4nCT6rzxYgAfumeYmvv97VJ97bHc+4pUe6IvU+BcH9dJYrymYQyhHPHGf+BQpmDeADCrn/y9o+NP2lVeOdE4b0zOffp6K+7DMyJkPGPuP/HXDpWOZP+Lsc9ZVzGJ2tkWUyVNOfuai7nb9VszuYqLttRxWafrGKzEb8LID4y2WQrYLIRUKQSYKIEwHgBcFCc8cvL8TwwBhAAAkDgmiTgNbJeLx8CiIYBfPnss7Mx/thIthfJJkIuc/7tXzsdPPw231WifLTLrIHN2L8AACAASURBVLjI7xSIN+cpibaeEkVPzyLFpE2K4vvtKVH8KmT8o/fy/SxSdB0xaz8Vf/1MPgfNousDhbKVbaG4f6REMq6WSAQArqHQmsetmQ1HizHjX9wGxkmMP3H/u7TM/85k3nN9Tx2X+6VauUhTJ8/9ZZ00d0Utl1NZI805WiPNQTVcDqqOtGxUxWUjbPxjBUDMVsAR459oCSAfBqAyRw7RGd7D1K0HDlOZfzmQkXFNLHuc678L9AcEgAAQmJaAW8d91mtkJ6ICgBcBE748tsKfJ/29v0D6nWk7SXBBoED2RGh7YJwxL7dPZwQ7F3Nf6jIrqoTlgvF5WAiMdS+Sv5BK4aGexXJJd4niklA4hPs401UUKgiUYLoz/ipQIP1FoEA6jvdIiDf+oSJKHBYB/zfTAdxG5i23Acf9ScPxf+bNmfY30/tqRaLrG5RUZp0s964GWe6L9fKcinpZzmidLBfVkoaNvqBFjX9OEuOPPQAxAmCgXJJVU85kvl1BZ/6hTJJxVzmdZcQZ/xVM1k2l2q/N2psy0+eH+4AAEAAC1xwBt5G9zWtkEd/ivADRUADrac2TPpBq8R/sYm8rlB3BLnI+Vl4sXzwVuI4i+R2dxfLjeLmdsFxwWAxYu82qjKnuJ7/h6oLdZkVfxHsQ3d53otMsX0Sum+tjG94voVB6erIACBVTasnjxlpMrDTdcd0G9qexxp/BVf/K3eab01qKme649dqcG+rVlLRJIfp1ozL3vQaFyNugEI3Vy0Uo1HJRnTwXYeM/AwFwpJLNPlTBZi2vZLN/g0v/VtHZ3ynjbp60giPdecP1QAAIAAEgkAYBHP+fLACioQAiAvCxNY871pIv/U184Zz44doKZQUkPt5WKAskS9TDBXrai+XvkRoBwmNXsfxUZ7HioWT3xo/Jhw/MisPxHgT+c4niz/HXz/XnliIuszVfOojd/+TNH1dSFPA7gr0tqY7rNUhudRuYc7ECQNKWysZLqY6Br8MhhiZlLtWoFD3YpBS/06QQtzQqxeONChHCrYE0gfGvx8Z/egEwUs3mVFRLs1+tkmbdWynNYhvk2dNuGpXO3OFaIAAEgAAQmAUBj5Ht9BAPAD5GvACxCYHEkIXKA3NteIvgZMMGCmSlUQEgT1igJlCs4DqK5D3CVQJRAaDY3rZYdVOy/hN9321WPJHQ+JvlW2a6iiHROFN912KSfsOfL+1JIgCQz8QeSmUuzXr6E24D0xFr/JnjLj0z621xHTr66xYV9d9WFfWaRUU5LSrxWJNKjJqUodaoFKNGZZzxV5A3f3yMNf51styLtbJca40s9/VaWc5DdVyuolKS8bmpOMFvQAAIAAEgcIUJ4LdMbPzjBUBUBEyuC4CFQEgEsOMt+dLfxcf2282K/xcokI7hmHhbgbw/PgseVxJsL5Y+1V4kG8cJghEBwJfXlfd2mWUF6WLpLpIZu4rlE1EBEak86Ew1bJHumMmu9+VzX/Lnc4G4t/9IjQWfiZ0yax3zdBuYHbzxj8b+L84k4x+/3dt0Ysamoh62qantVjU1ZFVTyKqikEUljjRi/PFxKgHQIBedr5eLmurlOa/VS3PurpfmZMx3OCIZZ/geCAABIAAEZkHAo2ce9xgYXgCkIwJ4AcBvFIT3CZC9U8Zx/0ym4S+UPYaNfzgp7tfke3xsLVD8Z1uhzMYnB+L8gKJIG+soki9NJclP2B8+7y6Uf6WzWHFssvGXDeHEwvjrL8dnb6Hkcy15nI94TfAui6EiS9irwp71Gpj/SDYPt4F5GBt/wdv/hEsvuSPZ9cLv8UZAdrVEb9fSTzk0dJ1NQ120qSmEG2/4w0eLQABMfvsX867/RoXoXL1S1NCgEL/aIMu9q1Yh+h6uRCgcD86BABAAAkDgKiXgNjBebGg8Rl4EnPUY2cFU8wGEIqAlX/oujsHj1pov7cbJcIEC6Sgx6PitNlAovbetUHY2GhoIJQji7XTbC+VZM0GIcxE6zXKr0PjzNfuL5Rc6iuWSmfQ5V/e0mJQ3+vO4ABYBAuPPh1i8RrYKb+cbP5Zbz0o9BmZMYPyR28D+Jv468tli5D5p10rynVrJ8w4tZbNr6TG7hka42fgWMv4xAkBg/LEXQPD2H2hQilc3qsT3NilE3xOKOjIeHIEAEAACQOAaIODOk9xM3jTDXoDd2Ci5TFym18T82Wtkh6OhgMRJgdFwAB8WeMKfL9OSNfCtBbLHMaYOk/wzrfnS3SGvQEz53FOBIvkvZ2NoOopkK4QhhMh5oXxB7BbnNij+n8/EdZIiS5hnRGAZ2XuF/4xaTNSNbgMzwBt/4vo3MEuF1wS0OTc49YzJqWOWOnW0y6GlJxxaGpFGjH9IACQw/mrs+sdNdNqqEpdbVKK/Nikpk00rmZPaCMK5wjkQAAJAAAgsUAJuA/MEEQD8Uc8sEU4Vv717jOyjXhN7ghiwRHsFCETAhD9f2sYXv8mXnmkrUH06kCczthZIB0lIIHIslO3AuQLC8dI97yyU/TBi8KPVBnHNgRfS7Ws+r2/V01/xmdhe3vgLBIDHyI6QjH4sgtwGppL8PfCaf7ee2VBrFl2PvQIuPfN4s46pc+okl/DOf3zTSiKGHwuAWOOPPQAxrv82q4p6x6qk74O3+/n8a0PfQAAIAIEFTgAbHJee6ScGBx+bDawo0bRxGVqviW1OUQQgfz6HK+G92ZrHLWvNl07wHoFwkZxAgbS3NV9alGicdL7rKJJ/u71IdkaQQ0DyCfbNxqOQzhzSudaXx/yX18SOkrf/SOKlgXkZ9+MyMM+Qv0W44M+YS89UNOslZwWb/oQMPxYA8cY/VgCM29SU3aoWv2BXSfKdKvGn05krXAsEgAAQAALXMAG3gTWSynJhw3N6qgQvnE3uM7EbUhIBfHIgeyK0FC5SFnc8kM+9FNBqZ719a7tZ8fH2QllrJJEwXGyovVDm79bTn1iofzaPnpV4jSzOswglXYYS/S65Dcxv3QZmAv8dyN8EH4Xb/TaTt/7wkbj8w0cc97fYNPSzTi1txEsIFyoDmBcQAAJAAAhcYQLNesk2obHxGJhd000JV/fzmdg90bwAktwWU+yGL3wTWiaIVwjgJrX782XZ0/Wfyu84mbCtSLZZmEgYPh/tMEu/kUofV/Iaj4k18wIgnOVP3vrjjT+p948Nf7zxd2rpSw4d3eDUUU/jjH9cte9KPhOMDQSAABAAAlcJAZuJurFZL7mE3zCJCGg2MN9PZfpOleojXiPbEBUByZMDW/K406153K/m0iXfVij/X7z5TpwAGAsUSdWpzP9KXIM3DfIauXyPkV3tMbKjOOFSaPhTMP4XnVpJbbOOfsKpozVkZcWVeBYYEwgAASAABK5iAs1a5kn+zVKPN5XhRcDpVIvleE1SvdfI9vGx7LiKgZMTBNm+2W67K8QcKJCLAgXSi5FEwnCtgUCh7CHhdQvhnA+ZGFijN2T0T8a5/WMEABFhoWPob9Ksk7Q3a5nlzXrajNf2L4RngjkAASAABIDAVUwAv8E7dZIR4loOx5nXTPdI9nzuXz1GdjkxZCSZjWS2x+cG4MI3fBEcE2ueru9UfueXEhZIe+ONf2uB9K1U7r8c1+DYuzePudNnYDd4jexpzIjwSsHtfxRn/Tfr6bu9OvEXL8d8YQwgAASAABD4ByLg1DEPkmVkERGgpbRTIXDpJXq3gekXVgzEBi0iAkL7B4z5jNwPfZHVApESwpVT9Z3KbziE4C/gDkfqC+RHEgurcFnhVPqYr2vw5j4tJu4er4k94DWxlwiTeMOfwO1/zq1nDjbrmSVOg+TWREWB5mvO0C8QAAJAAAj8gxHAhtSpozuIAMDHZp3En8z4YNezyyBZKYxXh0RAtHRwWAhMeEzMjzFOXFzIZ2LPCD0CfoP0O7NB7c/jngjXFsDLC/nmz5d24ToDs+l3pvd6dbIveo3cQ14TW+U1seO8F0QgiOKNv4Bfs9sgedaj4zQ4RDDT8eE+IAAEgAAQAAJpEXBoJHeQ5WMREaCV/E+iTlwGRuXSMT04Li0wYJHzGG+AgX1A2IfHxP5VGBrwmthXhb+nc95ikpr8+dxEaDVBZFXBKX/B7ERFOnPA1/oK5F/35XEP+0xsk8/ETpDnI2/8idz9HgNzzG1g3/v7rn53etUS2B0vXehwPRAAAkAACMyewAaz+f0OLd1CBAA+4lwAnBMg7B2/mToNzNJmvWQiNjltshDgRYCefVR4Pz7H1e28RvYkbxxx5TsT2x+/Y2D8PYk+ewtlX2zJ44b5XAKyA2EeN9GSLy1JdP1cf+cxSm/xGrklPhNTTTwa0xp+I9PuMTBLvXpOAbvkzfVfBPoDAkAACACBtAnYNNRP7IKa8bwQ0NF/Fnbk0LPSZp2kM3aFQHSpIC8IBEvYXAb2r8L7hedeE7NM+Hbsy5dmCH+f7ryT4z7sy+NsxPhHjibut9PdO9PfsUjB9Qpa8rgnfSY2MJXRF7zxX/AYcPyfedCllX11pmPDfUAACAABIAAE5pwAfhO1a+guUis+7AU4iXeSw4NhL4BDL3nJqZNMhPMC+OIzsUIgtkqdyyh5caqJugwcR2Lh2Fj6DMwfpro+/rcWI/c6WVYYWVGQx62biSchvm/hZ7x7odckY3xGdmmLie2ZZPQFtfuJoME7JnqM7Eq3UVoEa/KFNOEcCAABIAAEFhQBq5q+jxh/cnSE3/4dGoq2a+m2cEggWms+XIEuVgSEvQE6ycrpDDFOLAwbSn4pnNvIWFKFEl5NgIgxxkKgxcTZLUbjnCTO8RUNDYzKZ2KX+0zsAB4n4tpPYPDDb/s2t4n5sydPmpMsaTLV54PrgAAQAAJAAAjMOwGLIuPjNjU1yO8MF94n3q6mR21K6kZcO96hpcfDHgF+Zzm8yUwkQVAoAvA5XziIXo/zCVKZuNvAbuTzBAz8qoGJQApbzraYJN/2mtizQoPsM7FDvnzuS6mMmewaHFJoMTEmr4l922tijwn7J2/2wqOvQD4WuOcOj8fI/Myp5b6QrF/4HggAASAABIDAgiRg1VDP2dThfeHx9rAaCtk1kt12Dd0S8QbE5waEEgQnCQGnTrJzqg2D4gG49ZKHYlYQ6CVTluvF7nSvkW0RGmKvgb3oM3BcfN+pfMbVDT1GpsRrYtd7TeypmH4Fy/bI974S7UTvM39GJ2oq0Pi5cwghNJzKOHANEAACQAAIAIEFRcCiEn3TqqYuWokAwMeICIjdP35SgiAWAUJvgF5yEL9Fp/OAXh3DCAWAxyB5ZKr7vUZ2LckbEBzvn+qe+N/4anwGvhrfdq+RPUeMu/Ao6Bu1LNZP9D3/BDrZUIMmLl7ERl/43wRCKK1njp8PfAYCQAAIAAEgcNkJNKmoPdj4C1usNyBOBGhoPgwgDAnwuQFaps7NcR9N9wFaTNSNcSsHNiTrA7vaBeGCUN6AiX072fXC7/llh3itvZHd6TGyF4QGPtF5y+1G1PvcX0JG/9Ikoy8UAPgcyvIKYcM5EAACQAAILGwCTUrKZFGJkUVFIStuISEwA28AZcP7AMzkaXGioEvPnI7WE5C0JerHreO+6zYw54TeApeBqQtotR9KdD3+zpXH3OQxsA94jGyFx8iOJTL0HiPOPWAQFhb+O/JQ/yvPotN2C5oYG4s38lN9zk02B/geCAABIAAEgMCCIlBtoj5mUYl7QgIgKgIsKuphq5pyEY9ArDcA5wbEeQS0tMeWQuLeVA/frJc48N72YREwEYjbux5/dhuYVqHxx/sOYO9BfL8eE/c1t55Z4jYwDW4DMxF3T6RKIfm+5c4C1LfseXSq2YYmxsenMvJT/VYYPw/4DASAABAAAkBgQRJoUopealKKURPvAcACgG91OHvfpqb+SAQAPkZEQCQ/ICIC2vBKgdk+oEsn2RTecTC09bBJ8m1hny49sybqIeBrDVx06lkJucZjpG7hjb6eqSaGfapjy38X8Ub/ZLMdjV26iMbHx9HExATfprLyU/x2H5kLHIEAEAACQAAILFgCjSqRuEkpHucFQFQEnG3SUN/Ak25Uir8rCAmQ0EBUCISSBHvsmtktuyOAmnWSpyK7DuKlhIKdB516+l4sDgQeAuwp+IlLx2W6DcwTbj3jjxMHxJMQc/T9sBj1vv4yOuF2oosXLqCLFy+iS5cuobGxMV4AEBEwhZEnP10gJ4Lj4+RZ4AgEgAAQAAJAYEESwDHzRqXI04gNv7ApRA8JJ2xRiTricgOEQmDAGRYLwntmeu7U0Q/E1BXQSn6K+8Jb4DbrJOeFhYaa9ZKTTr2kKyoKJomDiOH3LDag7qVPoRFrEzp39iw6f/48unDhArpw4WKMACAiAHsBEvw3iBDaiRBa8vdjBkJInOCaN2f67HAfEAACQAAIAIHLQqBRkfvnRoUINSpxE/OtSSE+HF+5zqIWPxuTHxBeKWBTUyNWTayLfrYTd+okRXEC4I94m2GnTtI2qexwwsJDpACRBLkKlajjyT+goaoydPrECXTmzFl09uxZdO7cOV4AnD+PBUDUA3BpbCziBQgLgF6E0BqE0N0IoW/GPxtC6HqE0KU4EbAn/jr4DASAABAAAkBgwRBolInEDQrRWAMWAKQpRUOJ4vgWBUVHBUAkSfBkk1qUPdcP5NRSuWRZIa4r0Kxl3nTqJRuFoiD+XBgycJlkqO13v0L9e3eiE8NH0alTp9Dp06fR6TNn0JkzZyIC4Nz58xEvAAkBXLp0qX9sbGzD2NgYNvi3pPJsCCFXnABoTOU+uAYIAAEgAASAwGUnUE1RH2uQi9qx8SetUSGaaFCI9Ykmgz0CTSrqiEAEnGlUithE1872O5eKuYkIgPDxFPnMFxoSFhvSRcsQ+x64CwU3vouO9QbR8RMn0IkTJ9HJkyejAuB0nAAIeQHaL1y4sPrixYt3nzt37sszmTtC6O04AdA6k37gHiAABIAAEAAC806gXi5eVS8XIdyIAGhQiJ5LNjBen9+kFJWGVwpcsKpFmmTXzvZ7u0aclajKIBEBwqP7B4WoY/mLaNDjRseOHUOjo6Po+PHj6PhxLABORATAqVOneS/AmTNnJs6ePbvu7Nmzi86cOfO52c4V348Q+kWcABiai36hDyAABIAAEAACc0qgViYqqJfnolALiwC5yIK3AE40UL085zONSvH2cJLgWKOCKkl03Wy+c6qYLzu09BKHhvZNqi2Aaw0I9h5wmmTI/4ffoOD+UnR0aAgND4+gkZGRiAAYHcUC4HhEAJw8eSriBcAhgDNnzo6dPXu24uzZs7+a6Vu/8FkRQoY4AXBR+DucAwEgAASAABC44gRqZOIv1slyR+oiAgALAdFoLSf6WqLJNSpySxoVouFQoqB4vFEpviPRdTP5Dht9u4Z6xKamHGS/gZgdCIVFhrQM8v7qPtS5dRMa6O1FQ0ND6OjRo+jo0eEYAXDs2OjE6OjxDiIAJoUBJucBTJw/f77i4sWLP0QIpV26GD83Qug/4wQA/viRmTCBe4AAEAACQAAIzDmBUq32Q3Wy3MY6WS6KNHnupXp5jjJ+sCo9/YkGhWgtCQ/w+QHK3Hvir0v3M04wtKqph6xqqj5pcaFIgSEKOW4zodZXX0C9zU50ZGAADQwMosHBQV4ADEUEwDDvARg5dgwdOzbKlw4+fvx4xuiJE0tPnDg5SPIATuFEwNOnI4mAZ8+di6wGCK8EOHnx4sWlCKGb0nkuvPkPQii+bODn0+kDrgUCQAAIAAEgMG8EaqWil2tluQg3IgDqpTn3xg+IBUG9XBRsEOYHyHN/E39dqp/5BEJ1rsKiojZYVNTFZPUEiCCwayXI/Yt7UPu2zai3J4j6+/tR/5Ej6MgRLAAGeAEwODSEhoawB+AoGh4eRsMjOAzA5wDEbB6EEPrAyZMnTSdPn9516tTp8RgBcDZWAAiWA14YGxtbmY4QQAj1xHkBUlpBkCpDuA4IAAEgAASAwIwIVEtzS2qlOYhvYRFQK8t9SdhZrUh0fYM898l6ee54TH6ALPcPwutSPcdv+xaleIlFJe4UrB4gZYb5TYeEYsBxZxFqeeV51Ol0oGCwF/X29qG+vj7UhwVAf1QADAxiLwAWAOEwABYA0TyAJcnmd+7cuS+eOnXqz2fOnOmfth5AqCrg2fHx8b8ghG5I1if5HiFUFycAKPIbHIEAEAACQAAIXBECVfLsr9dIc07USHMQblgE1Px/9s4DurGr2vuhPVoo4UEsWYYECPARSJ2aOpMG5IWQUAKEQCgPAgm9P+ABA4+Mxx6XGffeq9wlS1a1ZMuS1WxZXbIsN8m99+79ca505WuNbMt1nOTMWnfddtr9aZbv/+6zz97nzwok58+/lRxQ8yNnzzQ/etZOWAY2+wdcIcsEsye+9h87+7jmiQeYmifuX9kUXfBz1+QagJanzoHhT7+B9rpa6Onuhp7eXujtdXkFgBvcSAD0kQIAiYCBVs80AEUAUPwAxsbGrpnO8B83sgrMzs6+uLCwYEIBgRYWNscDWF5e8Q8L7AKAbVc9AADXTwAEXE7pPxZ8jglgApgAJoAJHAoB7eMn3ic7f8ZCvvy9e6vk/N1Eul7k+a947MxFxaNnV8lpAXKvfOxMClr+F8zAtI8/8BH1E/f9U/34fW5PVEFKZEFqiGHvcesPXgBzdho4TWbo6uqG7u5u6O7pgZ4eUgC4wO0mrQD9YwMDA3Fut/tuNJbBwaFJnx8AMQ2ALACEH8Da5OTkTcGMF5UBgDfNLS5+cWFhockXFnjZLyzw2hqZHAjFBU7byrkPAAr9BMA3gh0HLocJYAKYACaACRwoAZTJr+n8GW7T+TOANjnaHjnTL3vs5MdQR4qH77tD8cgZnd+0AOkfkO8fDjjQ4NSP3X9K+fj9JarH71uhOAxSIwtuhBh+5nEw/N9fwS4RQ4fTCc7OTujs7NpKAKz1ut1NLlf/S/39/e+i9j04OGhGAiCAH4CRWm43x4uLi48vLS3pKH4AREjgAHkB9ABwq3/bAJDgJwC+418Gn2MCmAAmgAlgAkdCQHbudLTs/GloIrYz0HTuzBh66SNhIH/k9B/kj5xeJC0Dfv4BldTpAf/BImHQ/MjZLykfu68hQDAhamAhQgi0fP95MOZlgt1kBoejAzo6OjwCwEkKgC7oQhaA7h7o7e3t6enp+UdXV9c1L1lyHIODg8JAfgBjY2OpZJm97AHgzcvLy99dXl7uRZkBqdkB/dIDDwLAWWofAPAvPwHwQ+p9fIwJYAKYACaACRwJgaaHT39Xdu40EBsSAOdOz8nOn3mw+fzZW+XnT0sJi4DXJ4AUAcT+/BkBWi4YaJDouuKR+15sfuysZSOQEBFHgIgoSEQVJFcOfP4haP39L8BUXQk2ux3s9nZob3eAw+EABxIAHU5wEgKgEzq7upa6u7vZPT09z/37RerzSwg0BnRtcHCwkuoHQFkO+OJWdXZzHQDetbS0dGllZWWVtAAESA88CwAPk+0GEADXrK4gy+I9JoAJYAKYACZwKATQi77x3OklnwA4d3pedv7k47JHzrzUdP70DDklQO4pAqBB+/SJTeZ2NEAUCVDx2H3/bH707AjpH0A6C24OKHQW1F95EnTRl8CsVILVagOrzQY224YAaEcCgLACEALA4Ozq+qXb7f7P3YAYHBys2hQPwOsHMDw8HDCY0W7appZdXl4+u7a2Zlpd9fkB+H3kwxQAnEF1/h0L4JLfzU3plKnt4mNMABPABDABTODACcgePP3JxodPjzSeOw3ebV527sx3Gs+d5pDWgE3TAl7/ANm5MyqUIIg6IOQrIH/0dLrikdOLZPwAagwBqhhQ/+g7oMvPBpPeAGazBSwWK1isVkIEkALA3k5YAaY6OjpSOjs795xFsL9/sNoXD4BYDkjEA3BRx35QxwDw9tXV1eQAFgDyfT+E4gUAQDR5wbvfc9yEgxo7bgcTwAQwAUzgDUKg8aF7PtTw8Kn2hodPQePDp9G22HjuTHbjOY8goFgEAIkAihAwqB477fsKlz1+4iPyR85c3cZHwBNM6HMPgvoPvwYdlwsGowmMJhOYTGZCAJgtFqoAWLfZ7Y12u/1Ff4e+vfw0AwMDLCQA/PwA8vfSVrB1VldXv7u+vj6PfAEC/FMBQKrf9b8G2zYuhwlgApgAJoAJ7JmA5PztNzY8fEqDXv6UbZgQAhvWAMIq4CcEbMjEjzpGeQJkj5xJazp/ZnkrHwHkLNj8tadAE3sZdAoF6PUG0BuMYDAawWj0CACT2QKEALBY+2022yWr1frJPT9YgIoDAwOya8ICDw//d4CiB3oJAO5eX18f8HvRk6eL5IF3/38H2jluDBPABDABTAAT8CeAvPqlD52qkT50CtBGEQC+Y38h4BUBveil3/DwqQ/Lzp25Kjt/esG3YsA7NUAVAorvfws02RnQ2tICOl0btLXpoY0QAAYwGHwCYM1oNgvNZvNzWq32bf5jPYjz/oEBuycssCcvAFoOODg4SCxtPIj2t2sDAD4JACgw0E7/Lm3XDr6HCWACmAAmgAnsiwAK1CN9+GQm+fKn7v2FQCM5NUBYBE71NT5y6pzs3JlE2bnTiz6rwOapAZB/7mFo/vMfQMPlQktLK7S0tkJrq44iAPSEFYAUAEaj8eV9PVAQlfv7B8aoeQGGh4d7g6h2YEUA4GMA0L2DAog6sA5xQ5gAJoAJYAKYgD+B+gdORkoePAmSh9DmsQBsJwKQKGh8+NRa48OnxY3nkI+Ax1nQJwC8SwebvvQENF96FdQNDaDRaEGrbQEtEgAtGwJAhywAbRsCwDsNMGA2mz/gP86DOjeZTP/R3z+wPjAwQCQG8vgBjOQdVPvBtuNNAYxWAWz1LyLYtnA5TAATwAQwAUxgVwTqHzr1t3r08qduD50kpgGoIgAd+1sDvELA4yxI8RGQfeMZUFyNBaVcASq1GtRqDSEANIQAaPEJgFZdG+ja2kCv12v8/QCMRnPWrh5kF4VdLtcngHJbMQAAIABJREFUUHZAJABIP4Dh4eHv76KJAysKAM8AQECvwH/nG3j1wDrCDWECmAAmgAlgAiQB8f0nfo5e/uS2SQR4LQL+ImA7ISB78Zsgz0yHZkUzNCtVoFSpQKXyCAC1RgsarccK4JkG0EGrjpgGUCuVyve26Q0DesOGH4DRZF43m82PkWM9yH1/f//n/dMDDw4OfvQg+9hNW/9eApi5hQngn7tpB5fFBDABTAATwAR2JCB+4MQPxQ+cWBc/cBLq0baVECCmBbaxCDxyFhp/+Qo0lZeDXK4AhaIZFM1KjwBQegSASq2ZVWs8VgDfNIDHD2Ctra2NWMuv0+tfQVYAnx+AZzlgh1arvSao0I4Pt0MBt9v9sl964O4dqhzKbQC4HQAqtrEA/O1QOsaNYgKYACaACbwxCYgfPPm8+IETq+IHToBn84qA3QiBxx6Ahj/8GhpYLJA1yaGpSU4IADkpAJqVoFQqm1QqzfNqtfYf5DSATwAQfgBtGeQvgLz99XpjOxIAm5YDmiy5ZJmD2rv7+6Op6YGHhoayD6rtYNpBiYDW1tZy1tfXV7f48icv/yWY9nAZTAATwAQwAUxgRwLi+048J7r/xIrofvLlT91faw24xj/giQdB+offQENtLTQ0yqBR1gQyWRMhAJrkCpArmufk8uZ0uVxNpN1FDncqlbqfFACEH4CW8AMYb21t/RB1wHq9/mvUaQAUEMhkNoPJZH2JWm6/x66+Pr5HAHj9AAYGvrvfNoOpDwAhq6urcWtra0vbRAUkX/5o/8dg2sVlMAFMABPABDCBbQkIKC9/JADIbcMSQIqBAELg8+dB8tc/g4THA6m0AaQNjf4CwCGXN/9GJpPdRB2EUqn8TmA/gJYfU8uRx3qDoXpjGsAjAMxmy4LFYrmXLLPfvdvdN9jX1wekH0B/f/8t+21zu/oA8P6lpaVXV1ZWZlFiIDI5kF9EQOQIuER9+wPA77ZrF9/DBDABTAATwAR2JCC4757nhffduyq8/wSgjXz5U/cBhcAXPwfiiHAQC4VQL5GCRCKlCoC1xsam2qampidRGtxAg1CpVK1IAKjUGqD4AdQDwJsClTeZTDSDwTh6TVhgs9VpMBg2iYtA9Xe61tk5FOJ29wESAF4/AOdOdfZ6/9/Jfd6xuLj4+6WlpbHl5WUiNXCA9MDoxV/z7+0eAEDhgKn/cDKgvcLH9TABTAATwARuuEF49t6vC+67d0V4373g23YSAk89DqJLr4JIIASRuB7E9RKor5eQAmCsoaHxskwm2zZynkKhfkxJrAbwCgDPcsA5rVb78e1+F73e9E2qHwBKDOQJC2xrdLlc79yu7k73enr6nnC73eBGAqCPmALI3KnObu8jMbSwsPDiwsJiz+LiIiwtLQESAMvLK4QIoFgA2ABwgmwfAJqob38AOPSASGTfeI8JYAKYACbwOiPAP3vvC4L77l0V3HcvkJtPBCBB4C8EnnkSBNGRIOALQSgUgVAk9ggAMRIA0pb6+oYfKBSKoF7CCoWy0bMcUO1bDqjRtAT1VWs0Gos38gJ4kgMR2QEttmoAeMtef6be3t7fuZAAIKwA/Wga4Nt7bStQvdnZ2c/Nz8+3zc8vwMLCApACYGkJCQCPFWB1dZWzvAyn/OsDALKMUP+94F8Gn2MCmAAmgAlgAjsS4J299+v8s/eu8M/eCwK0UUQAOqYKAcEzT67xIy4Bj8cHPl8IAoEQBB4BsCgS1ReIRKL7duyQUkAuVz3a7LccUK3WKLaaKqBUJQ71ev27jUaTjpodcCM9sDXNv3yw5y6XK29DAPSB2+0OC7buduXm5ubumZ2dFczNzcHc/DzMz8/7BMDi0hJhBVhaWuItLy+f3aodAOBR3/4A8KWtyuLrmAAmgAlgAphAQAJ1p+95nn/2nlX+2XsACQBy8xcC/Ke/sFgXHQVcbh3U8fjA4wuAjzaBsFcoFP9FJBIRWf4CdrLNRYVC2eCJB4CWAxLxAJDp//9tU+WaWxaL5RajyTQcKD2w1WqP3sqP4JqGKBd6XS69y0VaAPraKbf2dDgxMXHL9PR03szMzNrs7CzMIgEwN7dZACwu8lZWVu7fqYMAAuD8TnXwfUwAE8AEMAFMwEeAf+aer/HO3LPCO3MP8AgBgETAZiHA//wj03XhrwKnlgscbh1w63hIAKzX1fHFdXXCr0gkkrf6GtzlQVNT0yOb4wGoQKlWv7LLZojiBoPlYZPJvERJDwxWqw1sNjvY7fbUYC0KqDG0JLG317XkEQBu5Ai4Z0vC5OTkTZOTk5enpqYXpqenYWZmBggBMOsTAOvz8/Os+fllItBRMM8OACI/C8CBrXwIpn9cBhPABDABTOA1TIB35p6v1pEvfyQAyI0UAufvn+D842/LbHYt1NZyoZZDCIDpujpeQm2t8NP7fXT0VS6TK1SEAEAhgT3TAJy9fK2TYzEajV8xmc0ryBkQTQMgAWC1eUSAzdZeGKxY6e7uvqe31wUulwvQNIDLtfv5/66urndMTk7+bnJycnxycgqmpqaAFAAzM7NIBKzNzc1VoCkBcvzB7gFA6icAPhFsXVwOE8AEMAFM4A1MoO7UXV+pO333ct2Ze4DcSAFQ9+Cp4dr//ctITXUNsNi1wGZzoLaWY+FwOD+tqal5z0Fha5TLv0kEBNoICzykVCr3NI1AHZPJZHrebLasbvgBkFaAdrC3twuCyR7Y3d37g97eXuhFAoCYBnB/ktrHdsfI0jA+Pv7t8fHx7omJCZiYmITJyUmfAJienlmbmZkpnpmZ+ex27Wx3L8AqgH1z264/fA8TwAQwAUzgdUAAvfy5p+9e5p6+G+qIzSsCzp4YZf/8FVt1eSVU17CghsUGFosQAKz9fJUHQsblct8ua1J0kmGBUV6A5ubmpwOV3cs1k8n6XbPFsmqxeqwAaBrAZrcjAQDt7Q707/bt2u3t7U2gCICxYJ9/bGzsibGxMd3Y2BiMj4/D+GYBsDI1PZ03PT29K/+GQOMEgDY/C0BQqy0CtYWvYQKYACaACbwBCLBP3/Vl7inPyx8JAI8IuGuh7pGHIivLyherqmqgqrrGTwCwnz1oNA0y2W+peQGaFMqUg+7DYrE8a7FY53zTAEgA2AkBAA6HY6qjo+MbW/XZ09Mj70EWAGIaoI+3VTny+vDw8N3Dw8P8kZFRGB0dBSQAxpAAGEcWgInlycnJjMnJyW1jGpBtBbMHgB6KAFgOpg4ugwlgApgAJvAGJcA5fdcXOafuXuKcuhu4aDt9N3DO3C1kn7n7E5WVlXdVVlZDZVX1hgCoYSMrwBKTybzxIJE1NjZ+qFHWNE7JC2Dj6/XvPsg+yLYsFstZq9U2TPoBeARAO7Q7HOBwdEBHR0eew+F4L1ke7VHsgO6entmeHo8AcLvdW6baRamBh4aG8oeGh9eGh0dgZGSEEACjY2MwOjq+OD4+noS8/6ntH8QxAExTBMDQQbSJ28AEMAFMABN4HRLg3nvno5xTdy1wTt0FSABwTt09VnvyrpfghhuIMLsVFTUPV1RWbQiAapbXCsDSHDSOxkZZVmOjjEgMJGuSL8vl8msC3Rxkn2az+Tar1WbwrAYg/ADQNAApAKDD6ezu7Oz0raPv7u7+dHd3D3gEQC90u91P+Y9neHiYNjAwGD84OLg0ODQEQ0PDQBEA86OjY1dHR0cZ/vUO4hwA3ra+OTmA/iDaxW1gApgAJoAJvM4IcE7ceab25F3TtSfvgtpTd61zTt+Vxz5x4oPUxywvr37aJwCqaqCanAZgs4up5fZ73NDQcH9DQ+M6EgBEdkC5/EjS2Gq12nfZ7fZswg/ANw3QAY4OZAVwgtPZCZ2dXayenp7bu7u7X/AIgB5A0wADAwO+TIRdXV3vd7v7X+3vH5gdGBiAwcFBGBwkBcDwzMjIyOWhoaFDdcgDgJs3v/9BsN/fBdfHBDABTAATeJ0R4Jy44w72ybvQ1z7UnrirHVkCAj1iWWXlVwgBUFkNm/wAatj/F6j8Xq4xmcy3SKUNuoaN7IAydG0vbe21jq29/ft2e/s0sgAQ0wAUAeDs7ITOrq61rq7ubooA6ER99ff3v8vlcv3R3dc3vik9sEcAzAwODl7s7+/fJKr2Osad6gHAp/wEQN5OdfB9TAATwAQwgTcQAfbdd3+CfeKuAfaJu+bZJ+++wL3ttrdv9fhllZXPkAKA6gdQXc364VZ1dnu9Xir9BUoP7BUAUw0NDR/dbRsHUd5qtd5qt9vrN/wAkAXACYQA6OyCrq5u6O7uhu4eNA3QU97b2/uyy+Xq3wgLTOQFgP4BZAUYijiqFz/57P+OAnjWTwBEkvfwHhPABDABTOANTqD61Gc/zDpxZzfrxB0S9ok7dlx2VlZZ+cWKiirwTQOgKYBqFlSxWN87CJRisfgWiUQ6jQSAFFkAZLIXD6LdvbaBlvU5HI6XHY6OiQ5kBUACwDMNAF1dXdCFBIDHD2CNshzQmxiob66/vz96cHDw5r32v596q6ur/4UEAEUE/HY/7eG6mAAmgAlgAq8TApV33nkz6947G9gn73yRdPLb6dEqKyu/UF5RuSEAvMsBq1is/96p7k730cu2vl7Ck0ikICEEgKx0pzpHdb+zszPE0dGR29HhXPcIAGIawGsFICwAhB+AZzmge97tdsd2DQ/Tjmp8gfpZXV394draGlUA4EyAgUDha5gAJoAJvJEIME+ceF/1vXf82t/JbycGTGbVaZ8AIPwAPMsBa2rYP9qp7k73xWLJ9+rrJVDvEQAumUx20051jup+R0fHzR0dHVc6OpxLSAAEngboXerpccX19vaGHtW4tutnZW3tgp8AeGy78vgeJoAJYAKYwBuAAP/OO/e0nr6iouIWQgBUVMGmeADVrD/vB5tEIqGJxfXjYiQApNI1sbghoBPifvrYS12TyXSjzeH4Y7vDMeWJB+D0TAMgR8Br/AB6110u11WUIGgvfR10ndXV1Uw/AfCZg+4Dt4cJYAKYACbwBiHAZDLfSQqAzX4ANbn7QSASiVkicT0gASCRNFzeT1sHURctB7TZbH+02+1j3rDA1HgAyA9g2iMANvkBgNcPQNXb23tg0fz2+jyrq6t8UgB4/QDet9e2cD1MABPABDABTOCGiorKEd80AIoI6IkH0LxXNEKh8EcikRi8AqANxf/fa1v7rWez2d5jtVr/x2q1DfnyAvjiATjWHR0ddR0dHU92dnb+udOzHBD5ASxTlgN6wwK7ptxu93f2O5791F9ZWTEjAeAVAaP7aQvXxQQwAUwAE8AEbigrr5T4BMBGWOCpYFPoUhGKxeKPC4WiGaFHACzU19dfFzO1wWC4yWw2/81stoz5pwdG8QAcDke8zWb7FDl2p9NZTvoBdHZ2/66np+eP3T09i2RYYDI9sNvdJ3C5XNclBe/q6urU6qpPABx4pEaSBd5jApgAJoAJvEEIlJdXxJPTAFQ/gMpK1rndIEDBfQQCYZNAKAJCAIjqf7Gb+gdRVq/X32w0ml81mkxTJpMZzGYLUNIDu2022x+cTucm0zlardDhdPaTywGdzt6TaCy9vb2f7elxtaJpAEIAEOmB+6Cvr2/h39EA/+5wOI7MsgEA711ZXYXV1VXCArC2tnZsVlQcxO+G28AEMAFMABPYggB6SaFti9v7ulxWVvHj8vJK2BQPoKoGamrYEbtpmM8X/oUvEAIhAIQi3mGNN9CYDAbD/2trM6QaDMYFg9EERpMJSAFgtliMVqv1e1s583V2dt5JiQcwQbV8aLXat/X09Pyj1+VadhECwI0EAPT1o6BAA86BgYEXURKhQGM6yGtLS0ufWVlZoQqA8INsH7eFCWACmAAmcAwJ5OXlvfswX6ZMJvN2JAB80wAbfgDWYPvl8/kP8/iCFa8AGOHxePSjQNnW1vaIrq2N3damX9frDaA3GMFgNILRiASARWKxWP5rp2do7+j4PZkXwOl0BsyB4HK57nS53M1utxvcSAD0EQIA5QuAgcFB68DA8NcB4M2H9cyrq6tPUgXA6urqS4fVF24XE8AEMAFM4BgQSErK/BQSAIc9lLKyij6fANjwA4Campov7NQ3n8+/uY7H7+PxBYAEgFAo/OpOdfZzH5neW1tbv9PSomtt1elAp2uDtjY9tBECwLBqMJiYRqORMOMH0097e4faIwCI0MDf2qoOesH39vX91O3unyTzAvQjATBAJgYaMgwOD/+3y+V651Zt7PX68vLyj0kBgKYBVlZWHt9rW7geJoAJYAKYwDEmgObTU1JSnkhNTX3XUQyzrLwyn/QD2LwckF2/Xf8XLlx4c11dHb+OxwdCAPAFZduV3889lUr1UY1Ge0mrbRnWtrRCS2srtLb6BMBcW1tbgsFg+Nhu+ujo6LiNEg9g3t8/IFBbKDBQf39/mXcawCsABmHIlx54eHRkZCRiYmLilkD193JtaWnpVSQAVlY8fgAAsKvn3EufuA4mgAlgApjAERPIzs5+R2JKyjeOMmNeeXn51z3TAJS8AN70wDU1NQ9shYDL5f6FW8cDQgDwBKMikehAU+Kir26VSvVFlUrDUas1axqNFrTaFiAEQAshAIZ1Ov3ftVrtnjLy2e2OfyABgNIDOxzOgq2eM9B1t3vgkf7+/jZfeuANAQAjIyMwMjq6Ojo6Jh4bG/vR9PT0fwZqI9hry8vL+cuEACD8AFYA4G3B1sXlMAFMABPABF4DBGJjY9+fmJj869TU1CP9A08EBCqvnKROA1DSA9vQfX98XC73HIdbt0oIgDo+1NUJvu1fZq/n6GtfoVD+TalUdSlValCp1aBWawAJAA0hAFo6tFrdKyjAz177QM5+7e0ON5ke2Ol07jq0LnIA7O/v//HA4ODw4OAQYQUYHh6GYSQARkZhdHQUxsbGYGx8fHl8fJI7OTn5w4mJiVt3O+bl5eWG5eVlZPpHm2239XF5TAATwAQwgWNMID4+PjQxMTkiLi7uyJaXUXGUl1dkUAUANT0wi8W+Si2L5v1rudw+DrcOkADgcnls6v29HCuVyvfKFIofyBXKBoWieb25WQnNShUoVSpQqTwCQK1pUWu12ucOwjpit9u/3N7eDkgAdHR0dO3Hia+ra+L9Q0NDEUNDQ3NDSAAMIwEwQgiAUSQAxsZhfHwcJiYmYGJyEiYnpxxTU1PJMzMzX5ufn//ITryWlpa6SAGwurpavlN5fB8TwAQwAUzgNUIgISHhk/EJSezExMQbr9eQmczKBwP7AbCguoa1XlNTS3zho3n/2lqOoJbDBUIAcHkzXC43bC/jRsvsmpqanpTJ5EWyJvl8k1wBcrkCFIpmUJACQKlaU6vVNc0azfm99LFVHbvdLt8IC+z8+1bldnN9ZGSEPjQ0nDA0NLLknQaA0VEkAMY2BMAEEgCTMDU1BdPT0zA9PQMzMzMjs7Oz/Pn5+Uuzs/Pfmp+fv29ubo5YSYGsDEtLS8ukAFhZWbmwmzHhspgAJoAJYALHlEBMQsJn4uIT25EIuN5DLC+vkPusAN7lgFXVNUgAQA2Ltcxms7/PZnP+l13LAUIAcOqAy+X+cTfjZrO176pvaPiKVNqY39DQON7YKINGWRPImuTQ1CQnBIDcIwDGFQrlZTQdsJv2gylrs9ketdntYPeEBV6zWrt2bZbfrp+BgYFbh4eHc0ZGRleoAmB8fIKwApACYGoKCYBpJABgdnYWZmfnYG5uDubn52FhYQEWFhYXFhcX7UtLS4AEwPIy4QPw3HZ943uYACaACWACrwEC0QkJn7waF98fHx//peMw3PLy6qd9AoBID1wDPgFQwwYWiw0sdu0aIQBqucDhcO1MJnPHbHkSieSDYrH0OxKJpLJeKp2TSBtAKm2EhoZGaCAFgKyJEABNcoVBoVC+tJ/5/Z1YWm02McoNgASAw+Go2qn8Xu8PDEzcOjo6Gjc2NjY3No6mATYEwOTUlM8KgATADCEAZn0CYJ4QAAuwuLgISAAsEQJgGR1/eq/jwfUwAUwAE8AEjgGB2NjYW69cjXddiUtIOgbDIYaAguaUV1TqUVRAaljg6moWigwINR4BAGw2B2prOejr/8lAYxeJRP8pEAi+LBCIrgpFYoNIXL8u9mYHrJdIwSMAGkC6IQDmm5qa8hsbFbsKPxyo752uWa3W+602G1AEwH071dnv/enp6Q+OjY1dGB8fH6H4AfgEwDQSADPIAuARAHPz8z4rgE8AeKwAiwDw1v2OB9fHBDABTAATuE4EwpOSboq5Eme+cjV+EHn+X6dhBOy2srLy0U1hgdEUQDXhB7BJALA5HBZqgM1mv4vDEZzkcnk/quPzE3l8vp7PF6wJyLDAKDGQSAybBIBEClKPFUArbWx8WSKRHBkDi83GsVo9AsBma5cGhHBIFwHg7ePj489PTExKJicn1/38ADYEwNxmAbC4uERYAZaXl/WHNDTcLCaACWACmMBhE7hw4cJ/xMTGSWKvxEFsXNwLh93fXtovr6ws9QUEqqJMAyALAKsWTQMAu5Zjr+Vw+zmEH4BnNYA3HgDwvVEBPXkBPALAmx4Y6uslI/X10rj6etldexnbfupYLJazFot1nRQAdrs9oAVjP30EW3d6evpTk5OTEVNT084d/AB80wDLy8uFwbaPy2ECmAAmgAkcMwJRMVeSY2KvQsyVq/Kd4tRfr6FXV1d/uKKyegFNA1DiARDTAF4/ACQAoNbjB+BZDYACAtXxgUdGBUQWAIEIhER2QFG/SFSfKBaLHz2IJXx74YJYm82WZkp64Lbjwn92dvaumZmZCzOzsy2zs7MrpCPgNX4AKyt/2suz4zqYACaACWAC15nA5ZiY70fHXAFCAMRc/fJ1Hs6m7plM5m1MZvlLZeWVpeUVlcPB+gFQlgNCHRkVEFkA+KIuPl8YKxQKH0RLBzd1dh1OzGbzC5vTA1u3jPt/HYbn6xIA3r2wsHBubmGhjlwNQPoBLC4uft5XEB9gApgAJoAJvDYIREVF3R4VfWUBCYDY2Csd1+tLmKSVn19BLyot/XZJaWlWCbOsm8ksB2ZZOZSVV3gyA1ZQwgJv5QdALgdEAYG4dS5uHZ/J4/F+IhAIPkH2cxz2aEWByWR2IQFgtljBYrWajyKN726ffWJi4v2zs7O/mp+ft81d4wewuA4AH9htm7g8JoAJYAKYwHUkgEL7Xo6OaYmKjoXomFiIir3686MeTmFh4U0FBcVfLiwuji8qKrEUFZdCcUkplJQyobS0DEqZZRsCIEB6YN9ywM1+ACgeQPdeAwEdFQOj0XjBZDKDRwBYwGy2PXNUfQfTz+Tk5Mnp6enMmZmZuS3iASA/gPZg2sJlMAFMABPABI4RgciomL9djoqBqGi0xa5GRUXtKXnNbh4JZRLMySn4XF5eQURefqEmv6BwtaCwCAoLi6GwqASKiks8AqCECSVUAVBWAWVUAUBJD0wEBKIuB/T6AdTW1v33bsZ2lGWNRuOHjUbTHBIAJjMSAeamo+x/q75QQp+pqalvTk5OqcjVAEQ8AMpyQDQFMD+PAgIR266SFW3VL76OCWACmAAmcEQEIiMjPx55OXoBCQBCBETFKg6ja2RlyMzMfTArJ+9v2Tm5DTm5eUu5ufmQm1cAefkFkF9QCAUFRVBACIBijwAgrABIADA9FgBm+RizrKKWWV7RRoYFvjYeAIoKSAQE8sUDqOVwx1B+gMN4rv22aTQaWUajCYwmExAiwGR6cL9t7qc+MvOPj4//YWJiotebF8AvHoAnKiByBPSLB/DL/fSL62ICmAAmgAkcMYGIyCh25OVoQBsSANHRsX89iCEgx7qMjIx70tMzf5uRmcXNzMyZyczKgazsXMjOyYWcnDzIoQqA/ELIJwRAERQWFUNRUcl6UXGJtaikNKuYyfxvJpN5O/KKR1nyyssrelF64E3xAIj0wJR4AKxaYHuWAxJhgWtr647dF6rBYPiWwWAEw4YAqDkI9ntpY3h4+LbR0fH4sbGxGZQYaBwlBqLkBZjayAuA4gHoZ+fm6sjVAMgCgPID7KVfXAcTwAQwAUzgOhC4GBn5QERkFESizSsAYmJiTu51KElJmZ9KTU19OS0tvSw1PWM0LT0T0jMyISMzCzIys8EjAHIIAZDtEwD5hAUgL79wLj+/SFpYWPxqQUHJF3NzKwPmqC8tL3+WcASkTgN48gK0VVWzVJ68AJviAVDzAry412c76Hp6vf5mvd44oicEgBGMRvOq2Wz+zEH3s1N7Q0ND94+MjFSNjIyuUdIDBwgLPL00NTVVPD09TVgo5ubmEikCYBkArknJvFPf+D4mgAlgApjAdSJwKfKyOCLyMhAiwCMAVlEgoGCHExeXHpaYmPJiYlJKbnJyqis5JQ1SUtGWDqlpGZCWnkEIgPQMUgBkQ1Z2DmQTVoC83pycvOKcvLxf5OXlnURf9sH0yywrE5QRfgDe1QCVnrDAFRU1T1VUcG6pZrHGNoUFJv0APNkB5zgczh3B9HPYZdra9CVtegPoDQYgrAAGU8Jh90m2jywpg4ODTw8NDcl2Sg88OTnpmpqa+t/Z2VkaWR/t5+bmZKQAmJ9fbKHew8eYACaACWACx5hAeHj0PZciLgPaKAKgc7shJyQk/GdcXOLX4uKSkhISkmwJiUmQkJgMiUkpkJScCskpaPMTAIQVIGs5IzNblZWVfSUzM+fr6ekFe0rPW1JS8kkms3ydSRUAnuWAMnLcNTU1TxHpga/1AyDTA9u5XO57yfLXY6/T6Z5ta9NDm14Pej0hAAZ1Ot2hhxs2mUz/MTAw8N2BgUHT4OAgDA0NwdDQMAwPjwBKD4wsAJ7sgOPrY2NjoomJia8Eiu2PBMS/lwNOEn4Ac0RmwGOTL+J6/J64T0wAE8AEXlMELl2KyAi/FLlJAERGRguoD5GYmHhjbGz8k7Gx8ZevXI1rvXI1fu1qXALExSdCfEIiJCRQBUAKJBMigBAAI6mp6ay0tIw/pWRkPIw8/qnt7vW4pKT0X9D+AAAgAElEQVQ8vpQaD4CYBqiCsurqh6htVrNYfyYcAf38ADbCAtfxg8kSSG3zoI5bW1s/pNO19euQAGjzCACj0fidg2o/UDsjIyPvcbvdv+nr63f19w/AwMAAIAEw6BMAw4QAGBkdnRwdHY8bHR39f4HaIa9NTEzcSiwHRI6AnvTAz5P38B4TwAQwAUzgGBOIiYl558XwiBmqAEBWgIjL0RlRUVcejoqK+UdUdKwsOubKMooKiPICXEHb1XjwCQBCBBACYC0xKcWUlJScnpic9j3kB3AYj15cXBxaWlq24IsHUFYByBGwvKKKE6i/mhp2JiUvQICwwILSo44AiL6cW1p0ta26NtC1tZECQIquB3qG/V7r7OwM6e11v+p2u8fdfX3Q19cP/f39hAAYQAJgEFkAhmB4eNgwNDLyk+Hh4RuD6XNmZuarfumBGcHUw2UwAUwAE8AErjOBixcjnr0YHgE+AbB5GgCiiJgAKCiQJyxwLCkCPAJgJi4+QXw1PvGf8fFJTx5VtsCSEma8bzkgigjomQZYLS8vvzMQztRU7dtq2GyhNzEQIQB8YYGJvAA84PIEyYHqHtY1rVb3y5ZWHbTqdKDTEQJgua2t7cAd/1wu1209Pb3Jvb2uBZfLBS63G9zuDQHQP4CsAINLg4ODJcPDww/v9nmnp6cvk+mBZ2dncQCg3QLE5TEBTAATuF4ELl6KSKMKgM1+AJ7lgJ6ogEgAXOmKuXK18MqVuJ/FxcXdc+HChaCc9Q7y2QoKKsKKS5gLPgHgnQYoL6/Ydu6Zz+e/m1Vb28RmczzJgTyOgMDl8oDrywvATzoKS4BGo7lH29K62NLaCq2tHgGga2uLOEhOTqfzZHd3N7O7u2e1p6cXent7oRcJABcpAPqgr7/fPTAw8NeRkRH6Xvuenp6RoaBAaBpgbm4ufa/t4HqYACaACWACR0zgYniklRQAPiuAZyngUmRkdHNkVExMdPSVr0ZExIce8dACdldYXJqwOSwwkRdgvKiIvWPEQuTwx2Zz1ER2QCQAAqQHFggEpYfpE2AymW7UaLV2bUsrtLR4BEBbW5tVoVAcyNK5zs7Oz3V2doo6u7qgq6sburt7oKenB3qQAOglBMC62+0Wu/r7vxrIqS8g9C0uogiB09PT86QAmJ2d/fYWRfFlTAATwAQwgeNE4NKlS++7GB6xjgQAKQJIC0BERPRjx2msaCz5+czbiopLFgkBQAkLXFZWEXS+gtra2pvYtRzV9umBBYKamqb3HMbzazTaXI22BbTaFlIArGj1+jP76Qstm2xvdz7vdDp1TmcnODs7obNzQwB0IwHQ0zvV2+uK7+7u/vR++qLWnZqaOj09PQ1EWODZWRQA6MPU+/gYE8AEMAFM4JgS+FdExEny5U8VAEgEXL58+VilAEYIC4qKa4m8AMWlUEIIACIssBmFFt4NYjQdwOFw+P5+AHU8PvBQemCBEAQCoV0kEt2+m3Z3KqvRaH6m1mhBo9X6BEBLi+7Vneptdd/hcLzdbre/6HA47A5HB3R0OMHpdPoJgG5bT0/PH7u6ug58aeHk5ORfkACYnplBIsC51TjxdUwAE8AEMIFjRuDixYivXCMAvMsBIyOjv3echltUVPQ0ERYYJQbayA64XlxWdn4v45RIJO/gcLhVHCI9MNUPQAB8UgQIRVOC+vov7aV9/zpqtfqcSq1ZVms0oNF4BIC2pdWAXuL+ZXc6t9vtH7Tb7X+32+0j9vZ2aG93gEcAdEAHEgDOzuXOzq7Srq6uczu1tZ/7k5OTUkIATBM+AFn7aQvXxQQwAUwAEzhCAhcvRnzfXwD4/AAuX/7VEQ5l266ys7PfUVBY5PTmBQBfeuASZsa2FXe4yWQy38Ll1sURIoB0BORtEgAgFIrWxWJx+H78AuRy+S0qlXpYpdaAWu0RABptyzJyBtxhiJtuW63WW61Wa5zVapu12exgs9vBbt8QAI6Ojr5/WwD+3t3dvWenvk0dbnOClglOTU0tTU1NAxIBs7Ozxya08jbDxrcwAUwAE8AEEIHw8IhXqAJg0zRAZNQ/jgul/MLCvwdIDzzIZDI/cBBj5HB4P+XW8Vbq6vjA2zQNIEICAIQiMYjE4tb6+vpdL9PTarXvalapWpUqNahUakIAoGkAtVb7u2DHbjKZ7jKZzYVms2XFYrGC1WoDq80GSAR4BYDE4XA8p9VqdzUVEmz/gcpNTU09NTk5RWYHXJ+bmzt00RFoHPgaJoAJYAKYwB4IvBoe+b2tBEBERGTRHpo88Cp5eXmfzc8vXPRPD1xSUvLNg+yMw+F9gcfjTfj8APiEHwAISAEgqgexuH5BVF//G2Q5CKZvFNSnuVlZ0qxUgVKp8gkAlUZbHUzAH5PJ9IjBYKozmkzrKD2w2WwBJAAsVkIETNts7UkOh2PXoiSYse9UZmJi4iopAKamplp3Ko/vYwKYACaACRwjAuHhl78cSACgaYDwiMv66z1UZHbPy89vzb82PXDAiH/7HS+Xy/14HY/fRjgCbvgBeCwAhBWgHsT1EqiXSDX19fUndupPoVBcVjQroVmp9AkAlVrTKTMYbtqqLhIXOoPhOYPBoPZLD0wIALOF+PdTh8NxXXMYTE5OWiYnJ0kLwMWtngdfxwQwAUwAEziGBF59NfLeawWALyrg4vUI9EPFlJOX96+8/ALYLABKJoqLiw9tuRlyDuTz+Rm+1QDIAiAUgYgqAOolIJVK1+qljXkikShgqmK5XP6KXNEMhABo9gmARaVSGVA42Gy297TodC/p2trsZF6AjfTApjWTycK2WCyPB2M5oDI8jOOxsbGwiYkJoAiATfkXDqNP3CYmgAlgApjAARKIiIh4z8XwiLVrRYAnMdDFqKhtE8Ec4FCuaSovL+9Mbl7+Sl5eAeQRFoBC8PgBlLxwTeFDuMATCH7IFwhnBAKqHwAxDQD1HisASKQNIJU2DEmljS9TUxjL5fJvNskVa4QAUDRDM2EFQFMAmh/7D1Wl0n+0pUUX09Kqm6KEBSYyA+oNhgGDwfTPtra2YxVff2xs7AekAJicnJpEAYH8nwufYwKYACaACRxzAhfDI/RbCYBLly7/6HoMP5HJvDEnN8+em5sPuYQAKID8gkIoKChmHuV4eDzebQKBsNnPD4CcBgCJRIoEAEgbGqFBJrM2NjY+09jY+JisSb7UJFeAXK4ABWkFUKmiqWPXaDQPaDQt5VptyyqKCEjkBfCGBW5r08v0ev03Ucpeap3jcjwxMVGOBMDExCSyApQfl3HhcWACmAAmgAnsgsDFi5fiAgkAjx9AZM0umjqQosjEnZ2by8zJyYMcQgDkg2caoGCgqKhox3C/BzIISiPoy14gEP1NKBSvbJ4GkBICgLACIAHQIIPGRhk0yppWZU1yaGqSbwgApZIJAG/W6/XvVirVL6nUGh25HBBFBPSGBZ7V6XSpLS3GgAmNKEO6roeDg4PvHh8fnxvfEAA/vK4Dwp1jApgAJoAJ7I3Aq69GPOIvANC5Nx7A7IULF96xt5b3ViszJ+e32dm5kE0VAHkF63l5hf+1txYPppZYLD4tFIntIrHXEZA6DUAIgEZSAABVAMjlzTKFQnFPc7MqTqlUTRLLAdWe5YAoIJBG22LTarW/1Gq17zuYkR5uK2NjY18bGx+H8XFkAZgA5A9wuD3i1jEBTAATwAQOhQDyOr8YfsntLwLIgECXoqKePJSOAzSalZV1LisnZyXLJwDyIDcvH/Ly8mMCFD/ySyiEsFAsSRaL69f9/ACgAYkAjwUAZLImwgKApgGaFM16haJ5nfQDUKqI5YCrGo2mSqPRPHEcnPp2A3JkbKxkbAwJgHEkAAy7qYvLYgKYACaACRwzAuHhEX/dUgBEXC4+iuHm5uYyMrOyB7OycsAjAHIhJzcPvfzV+4nCdxhjr6+vj/AuB9zsB4AEQKOMEACEFcDfD0CpWlUqleFarfYjhzGuw27T5XK9c3R0bGZsbIwUAP887D5x+5gAJoAJYAKHSODy5cs3XwyPmKGKAMIHwJMXYCkyMpJ2iN3fkJeX9+7MzCx1ZmY2ZBICIAeyc3IhJydvIi8v76OH2XewbQuFwvcJheKfiURi08Y0gL8fwBbTAKQjILEcUC3QarWvyah5o6Ojz46OjiGzPykAdhXKOFjWuBwmgAlgApjAERK4eDEynCoA0DE5DRARGRV1WENBUxDpGVmsjIwsyKAKgOxcyMrN/dph9Rtsuzwe714+X5gmEIhmN8ICo+WAEr/lgI0jgaYB0EoA6nJAFBFQqVIPqVSqb73mzP8jowWjo6OEABgbH+8KliEuhwlgApgAJnCMCVy4EPv+i+ERA1QRQAqASxGX52JiYg5lLXpqemZCenompPsEQDYQ0wBZeVevF67a2tqb6urqXqmr42t8AYFQimAyLDByBPQ4A3ZLJA3hDQ0Nd0gkDRcCCQBiOaDCsxzQzw8A5QWQqFStd12v59xNvyhr4cjIyCQSAKNjyAowcSz8MnbzDLgsJoAJYAKYwBYEwsMjXrhWAHiCAkVERJVuUW3Pl9PSMn6Xlp4BaT4BkAWZWdmQkZXTmJqaeqTBZZAlora27vNcbl0xl8tb4JLZAVFIYL4ABKQAEIuHRSJRYn19/QPUL3iptKGZiAew2Q9g/Zp4AJS8AER2QI1mXaPRVLS0tBzr5X8jIyNfHBkZgREkAEaJKQAc/W/P//NxRUwAE8AEjiGBi+ERRaQIoPgBQERkFERERT17UENOTkv7Zmpa+lpqGikAMiEjMwsyM7Pd6enpIQfVz07tsFisz7DZnIvsWo6rlsMFDqcOuNw68AkAT3rgGb5AlM8Xi5+kRvwj25bJZDdJpA2rhABooPgByBQvyeXyH8nlCpd/WGDPcsBN6YHXNS0tIq1W9ywSI2Tbx2U/NDRUSAiAEUIADALAsRvjcWGFx4EJYAKYwGuSwIULF268GB5ppYqASxGXPQIgMmo0Ojp633H4k1JTn01JTVtOTU2HTQIgI2sxPT377GGDq6qqurW6mvU/NTVsPYvFBha7Fti1HKitRQKACxyPAFiqq+PV1NXxv8lms9+13Zjq6xu+7g0LTF0O2E2m50X5BeRy5W/l8uaRjWmAjfTA3ngAgIICoaiAra26/tbWtvjWVsPDKIDQdn0fxb3h4eEbh4eHZ4eHR2BkhPABSDuKfnEfmAAmgAlgAkdM4NVXL3/2YnjEHBIBFD8AQgRcvhzdhnII7HVISUlpTyanpC6lpKRBik8AZADyA0jLzD600MMVFRX0qqqan1VUVcurqmvWq6tZUFPDhhpSALCRAOAs1nI4tRwO7/s8Hu8DwT5jvaSBJ5EQeQE8YYGJaYDGl/3rK5XK9zY3N/9vs1LdR00PrCYCAml9AoAIC6zTgU7XBm1thv62NkO8wWA4F8j64N/HYZwPDQ29MDQ8DB4BMIJWABxZbIjDeB7cJiaACWACmMA2BMLDI59HiYL8pwEiL0dDZGS06MKF1G2/igM1nZCQ8lhScspCcnIqJPsEQDqkpREC4MCd/phM5kfKKip+VVFRKauoqFqrqKyCyqpqqKquASQAqmtYSADM17BrK9ls7gtoqV+gcW93TdDQ8Il6iXR9U16ABpmby+W+fat6yDLQ3Kz+hkqlknn9AABZAXxhgVsJKwAhAHRtemjT64nkQAaDccZoNPGMZvOfjEbj/aSFYat+Dur60NAQd2gICYBhQI6AAHAscxQc1PPidjABTAATeMMTCA+PfCn8UuQ6aQVAfgCRl9EWDZcvx0gvXboU9AszLinpocSklNmk5BRI8gmANEhNIwQA56DmvZlM5qdKS8v+WMpkqpll5etl5RVQXl4J5RWV4BMAVTUzVdWskpqamudQdL/9/NDi+voYFBUQCQAyL4BUKnsp2DY1Gs09Go0mWaPRjmqIvAC+aQBo1bWBrg1ZATwCgJIeGEwmM5jNllmzxSI0m63hNpvtOYfD8XGqY2KwY9iu3ODg4M2Dg0MrpAAYHh3N3q48vocJYAKYACbwOiHwanjkr6kCwCMCouFyVAxERcXYoqOjP7nToyYkpDyRkJg0m5iUDIlJmwVASmq6IS6u4L07tbHV/ezs7HcUFRV9oaikJK64pLSjpIQJJaVlUMosA2ZZOZSVVQAhAioqJyqqqvIqK1nPZGdLDiS/gUQiuVEsrh/3Cwts3oupHn3NazStT2q12tyWltapzdMApAAwgMFgBKPRRAgAk5kQAWCxWMFqtYHVZgObzT7Z3t4uaW93xNodjh86HI77urq63r8Vv52uDwwM/GxwcAiGhoYIC8DQ0NjndqqD72MCmAAmgAm8TgiER1z+C3IEJJ0BCQtAVIxHBETHzkTFxm6ZES4+PunZ+ISkxYTEJEhMpAqAVEhJSRtMyMi4ZbeYCgsLb8krKPhJQUExu6CweK6wqBiKikuguLgUigkBwPQIAGa5q7SsIoVZWfmFwwgnLBSKL3jjAUA9sgAQm+yLu30e//LIabClRf90a6suSadr60QWAMo0ACEAjCaPCDCbLYQAsFg9IsBms4Pd3g729nZob3eAw9EBHR1O6HA63U5np7Czs+tqV1fXj7u6us45HAMf8u/b/3xgYFAxODhICIChoWHs/e8PCJ9jApgAJvB6J4CmAy5FXF4hLQCkCIiKjoXomCsQFXNVGBUXdzuVw5X4+G/HxSeuxCckQkJCEiT4BEAKJCenzqWmpp6hlt/q+IJE8ta8vLxzOTkFEbl5BUZPeuBCyC8ogoLCIiAEQFEJFBWXrhYXlyqKS0v/zGQy796qvYO4LpFIaCKReIYaFlgqlYoPom3/NvR6/ad0ev2v9HoD12AwThmMJqAKALPFAlQBYLPbNwkAR0cHEgDgdHZCZ2cXdHV1QVd3N3R390BPT+9ob29vo8vlSnW73b/q7+//XH9/PyHKhoaGPj4wMLCOBMDg0BAMDg4fuJ+G/7Pic0wAE8AEMIFjSODSpajPX4qMmookfAG80wBIAHhFQEzs1eXYq3GZMTGJt129Gv+Tq3EJa3HxiRCPNp8ASIakpJSV5OS0bb+UMzIybsvMzv5RVnYuMzsnd2JTeuD8AsjL9wmAwcKiooKiotJvFxUVffCosAkEohShSAwUAbAkEjVuEkCHMRbkK2Eyme42Gs0/N5vNpSaTxU0IAOo0ABIAdtIC4ABCAHSQAqATOpEA6CIFQA/09PZCb68LXC43uN1ucPf1QV9f/0x//0DvwMAADCABMIgEwGBQgu0wnhu3iQlgApgAJnCdCVy6FHNHRGRU74YFIAZIK0BM7FWIvYK2uNUrV+PXr8YlQFw82jYLgISk1GumDNLT08PS0zNfTM/IyknPyOrx5AXIhqzsHMjenB54Li+vgJdXUPDb3KKiOw/a6S0YvCKR6HahULTiEwBEaGDJv4Kpexhl7HY7w2y2PWOx2P5ltdn4Npt9zCMA2qHdsTEN4ERWgE7SCoAEQDd09xBWAK8AcIELCQA3IQCgv78f+pEAGCAEQMf1YH0YvHCbmAAmgAlgAnskgLIHRl6OrkOOgIQzoM8CcAU8IiAOrlyNh6txaKMKAMIP4O+o2+Tk5JtTUlK+kZyalpKSmtHuCQjkiQfgyQvgCQuclZUzm5WdK87Ozr2QlZf3aFxc3JbL6/b4OLuqhr7A+XyhwpcXQETkBehQKBTv3FVDh1zYarXearfbn7XbHRccjo6ajg5nzzbTANCLrAAu0gqABEAf9CEB0O8RAAMDAzj17yH/Zrh5TAATwAReEwTQ12BEVMxvL0fFLJEWAOQLsCEASBFACgDCD8CekJh8NTEpxZiUnLIeKB5AWnrmSEZGVk16ZuZvUVTAo84JsBN8gUDwGz6ZF0AoBpFIvC4SSR7fqd5xuO9yuT7gdDof6+zs/m1nd3d+V1e32eMHcO00ACEA+kgBMICsAZ8+Ds+Ax4AJYAKYACZwTAhERUWdiIqJbSdFgE8AXKEKgIRAfgAoHsBUckpaU3Jq+tWUlPQX09LSPnOczcwikehjPL5glhAAAhGg9MAiUX3CMfkpgh6Gw+F4b2dn50tdXd2WrQSA1w+AmAYYGBhoCbpxXBATwAQwAUzgjUMAhQaOjo65Gh1zZZUQAIQvAEUAbJoGSCaWAyYkpcQd55e9/6+H1vbX8XiyzemBhY79BhLy7+cwzx0Ox2ecTmeys7Nz1rMaIEg/gP7+Xx/muHDbmAAmgAlgAq9xAjExMadjYq/ofFaALfwAyOWAiclpguTkZMZr4bG5PN6lOh4fCAHAF6L0wKt8sfj+4z52lLXPbu/4ssPRIe7Ydjlgz7TL5WIG8ANYGhjYOV7AceeAx4cJYAKYACZwyAQuXLjw1pgrcb+PvRI3d+UqxQpArASgrgZAEQGJqIBjyclpXz/kYe2reQ6H9wy3jrdOCABPemDg84UX9tXoIVe22Wyfstrt4XZ7u5sMCBRgOeBqV1cPr7u7+4X+/v539fT0POe/HNDt7q845KHi5jEBTAATwAReTwSiEhJuib0aV3DlavwauRwwQDwASl6AVFbGHqICHjYzHo93G4fLm+DW8aCujg88Hh/q+ALxQeUuOMjxO53O91mt1pesVpvcGxbYFw9g83LATmNHZ+fve3t7Q6n9d3f3FnsEgMsTD8DdB273wFPUMvgYE8AEMAFMABMIisDVq1dPXIlLEMdt8gMIGBYYpQeeTU3P/P1x8fyvqal5D4fD1XO4dcDlIgHAgzoef0AkEoUE9fBHUAgJEaPR+Dmj2VxgNlvmUV4AIiqgJy/ARlhgh2Ooo6PjisPhuDfQsLq6ut7R09MzTQoAbzyAPgB4a6Dy+BomgAlgApgAJhAUgbi4pKfi4hNNnoiAfmGBU/zSA6dnmNLSsraNFBhUp/sohJLzsGu5vFoOF0gBwK3jrfB4vEf20eyBVEUOiQaD4XGDwZRqNJpGNocF9goAK5EYaLG9vb3M4XA8vVPq4N7e3i/19KCIgBvxAPr6+i4dyIBxI5gAJoAJYAJvbAIXLlx4c3x84jfiEpL0pCPg5vTA6UR6YE9QoExIT8+UZmVlXZfws2x2bSa7lgOEAODUESKgro5/3bzh0Utfp9M9odPr09ra9CN6vSczoMG4kR0QJQYyWyyrZrO13mq1/thgMNwU7P+4rq6e3B4UFXAjLPB6X1/fp4Ktj8thApgAJoAJYAI7EkDL/xISUp5JTEzW+KcHTk1FIiAD0tIzIT0jEzIystbTM7Mq03NyTuzY8AEVYLFYf2Oxa4EQALVc4BBWAF7uATUfdDNNTU3v0Whav9rSostqbdWNtOp0oNO1AcoOiASA3kCmBzavmkwWicliecVoNO56esJkMv1Hd3f3ODUscG9vb1PQA8UFMQFMABPABDCB3RJITEz5QlJymiQ5hUgPjPwAvAKAGhY4GzKzsiErK5uXlZV3brd97KZ8dTX7pzUs9johANgcqCWsABwVStG7m3b2WlahaLlNo9H8Sq1pEWo02iWttgVaWlqhpVUHra0bAqBNb1g1GAwSvd70islkou21P1Svu7v7KUp2QM80QG/vD/bTJq6LCWACmAAmgAkERSAlJeWupJS0jJTU9IXUtHRI81kBsiAjMwsyM5EIyIEslBgoO1eZnZ33nYPOC1BdzfpxdQ1rvYbFBharFthsDrA5nF42m31osQr0ev27FQrFF5pVqmilUmVTqdSgUmtArdGARqMFJAC0hABoRQJgTafTS3U6w0/3+9Kn/ijd3d15VAGAnAGHh4dvpJbBx5gAJoAJYAKYwKESSE1N/WBqevqfU9PS3b5pgEwkAkgBkAPZObngTQ88nJubfykvL++j+x1UZWXND6qqa9aqa1hACgAWu3aCxeJ9Zr9tU+sjZ7ympqaHZDL5Bblc0ShXNC8rmpXQ3KwEpVIFSkIAqEGt9ggAjbZlraWlRdrS0vJTtVq9ry996jjIY5fL9c7Orq4panrg7t7eJPI+3mMCmAAmgAlgAkdKAC0FTEvL/HJaRmZtekbW6jbpgSEvr2A9P7+wIT+/6IfZ2dnv3+1AKyurv19ZVb1WVV0DhACoYSMRsMhisfY93cA0mf5DKpXe19jY+PvGRlldo6xpViZrgqYmOTTJFSBXNINC0UwIgGZSAKjU02q1plyj0fxAqVTuek5/N8/vdDq/4h8W2OVy3bGbNnBZTAATwAQwAUzgUAgk5+Yy0rNy/pKRld2RRU4D5ORCTm4e5ObmQ25eAeTlF0B+QSEUFBQtFBaWlBcVFT3PZDLft9OAKiurf11RWbVeWVUNhACoZiERsMZisfYUnVAoFL5PLBY/KRZL/lUvlTZIJNJ5qbQBpA2N0NAog8ZGGSABICMFgFxBCABFs7JdqVTHNjdrHkdOeTuN+6DuO52dTI8A6ALvNIDsoNrG7WACmAAmgAlgAgdCAK0eyMzMfSQrOzcnOyd3MicnD3IIAZDvEQD5hZBfUAQFhUVQWFQMRUUlS0UlpbyikpIfF1ZU3EIdBGqroqLy1YqKKqiorAJCAFTVQHU1C6pYrF9Ry251jJY1crmi2wUCwfeEQlGiUCjWi0TiNZG4HsT1Eqivl4JEIgUJKQAaGgkB0OgRAMtyuVzU1NT8a5lK9cmt+jjM6zab7T1OZ+ccEgCdXaQA6H7hMPvEbWMCmAAmgAlgAvsikJ2d/Y7c3Nwv5+YWMHPz8ufzCCsARQAUFkNhUQkUFZdAcUkplJQwobS0zFbCLI8vLS9/uqysIqW8vBLKKyo9AqCyGqqqatAWvdXAWCzWRzgc3le5XF5EHU8g4fH4077sgEJPemChSAwbAkAC9ZsEgGywsVGW1dgo/5pSqXzvVv0c1XWn0/my09kJnZ2dHgHQ1T3kcDjeflT9434wAUwAE8AEMIF9EcjMzHxPbm7Bt/PyC1n5BYULhAUggAAoKWVCKbMMmGXlUFZWAWXlFX4CoLoEfdUj6wCbzf4EmgZgsdnhKCIgm80d8o5Xm54AACAASURBVEUF9OYF8GUHFBDZAUGARAApAMT1UF8vma+XSIUSScP/SKXSUwDw5n096AFX7uhwGp1OJziRAOjsgq6unvAD7gI3hwlgApgAJoAJHA0BJpN5Y35+0VcLCorzC4uKxwkLQHEpFJcwwScAmOXApAoAzzTAXGVldUpVdU1jdTVr2rcaAAUE8sUD2AgL7M0LQE0PjATAqlAoVopE9a+KxeJHjyp2wF7Itre3P9zR4YQOJAAIK0DXWnd3975XU+xlLLgOJoAJYAKYACZwoARQ+Nzi4uLHikpK44pLSpyEACgtg1JCAJR7LADENIC/H4B3NYAvHoA3KiCKCMhBiYHqgMgOyOMv8XgCOZ/PDxcIBP/F5XKvu1k/WIAOR0epX3rg2mDr4nKYACaACWACmMBrikBhYfknmEzmz0qZZbXMsvJZNA0Q0A+AshwQBQTyCws8zOHUhdfyeI8wmYp3vqYAeAdrsVjo7Q7HMlUAOJ3O65p86bXIEY8ZE8AEMAFM4DVIgMvlvr2srOyx8vLKyPLySm1FZdVqZWW1ZzUARQAQQYEoeQG8fgArXB5PV1fHS+fxeD8RCAQnmUzmkS3d2y/u9vb2f7Y7HOBwdACaBnA6nR3HzT9hv8+I62MCmAAmgAlgAkERQL4D5eXVj1dWVl+qrq5pqq5mLfv7AfiyA6IpAC6PnAYg/QBWBAKhWSAU5glEol8KhcIHkcgIqvMjLNTV1fV+e3v7RHs7KQCQCOj4xREOAXeFCWACmAAmgAkcXwK1tbU31dTUfKmaxbrEYtU2sNi1cz4BsNkPAHg8AfD5AuCj1QDEckAxiDyrARbEYkmrWCwplkqlf5VKpc81NDTccT2Fgc1m+5fd3g6kAHB0dEyieADUX+IDH/jAexk02nP+G41Gu53BYNzNCAnZNF1w2223vR2VpdFoH6K2g48xAUwAE8AEMIHXPAHkUMjhcE7W1nJ/zuFwCzncOifhCFjHBx6P77ECEMsB/eIBiFFAIEo8AGkDNDQ0rjY0NjoaZE0smUwWIZMpftDU1HRWotV+8DBB2Wy2UJvNPkMKAM80gDPGv8+QkJCbQ2m0S2hj0GlDDHpICnHMCHkslE6/yqDTVmk02q1kvdDQkC8x6LT1D9PpD5PX8B4TwAQwAUwAE3jdEkBe/3V1dQ/yeIJf8gSCPGIKQCBc88UDENWDmIwKSAYEIqMCorDAKCLgprwARFjgRYVC6WxWKpuUKhVTqVRfVam0f1Rptc9ptdoHNRrNx/Y6X2+12QpsNjsgAWBvb4d2h2O1vb39Y9v9QAx6iO4jN9/sK+MVAJJQGu13ZL0wOr2IQaepsAAgieA9JoAJYAKYwBuOAMoFIBQKzwvF4p+JRKJUkbheLq6XTBIRASVSCDIvADQrPdkBt0gPvNDS2upobdUpdLo2tk6nz9Xr9bFtbYa/6vWmV4xG43dMJtNXLRbL41ar9T6TyXS31Wp92mq1rXsEgN0jANrbK3f6gQIJgFAa7acMOl2O6oaGhr6LQadxGaE0JhYAO9HE9zEBTAATwATecASEQuFHpFLpk1Jp4++ljY1pDQ2N0sZG2YA3LwCRHVBOZge8Jj2whpoeGLQtLdDS0gqtrTpo1bWBrq0N2tr0oNcbQG8wgsFoBKPRBCaTGcxmC5gtFrBYrGC12gAJAJvdYwVAwYB2+iECCoDQkG8w6HTBh2+++eOhoSHfZNBoL2MBsBNJfB8TwATe8ATCwsLe+REa7TMfptM/H0anf4EREnI2LCzsA294MG9QACgngEwmOyGTKZ5valL8Td7cnNXc3FzvmQZQLStVakBWALVaA2qNFjTaFtBqqQJABzodVQAYwGDYEAAms0cEkALAavOKAFt7SzDItxIAYfSQH4bSaL9HL37kM4AFQDA0cZnXPAEGnaa9ZqPRWPt9MAaNVuLfbhidHjAzVyg9pJIsGxZKu7zfvnH9wydw4oYb3sag06IZdNocg04D/41Op2/KVodGdPvtt79m1pYfPsE3Xg9MJvMtarX6wyqV6iG1Wv1ttVb7W41GE6vVaotaWlobWlp0ttZW3SwpANr0HisAKQCMpg0rABIAFuuGFcBut78YDNEtBUBY2AfQ36AwekgVagcLgGBo4jKveQL+f7jJ8w+HhHx2rw+HnGyQFy3Z1sae/ptAbTLoNDtZBomBQGXwtWNF4E2MUBqb/M0C7KdvuOGGN5EjRlaCsFDaBUYoLYm8hveYwFYEFArFO/V6fViryXSXXq9/1Gg0fl1vNL5sNJv/ZDJZLplMlkSz2ZxttVqZVqtdYLPZ+CaTKShxiRz8wsLCGGTfoTTa3xg02lPonEGn5aEpAHQcFkpLCKPRTpPl8B4TeF0SCPDH2/M1F0r7514fmEEP+VPgdrEA2CvT41SPQaN9LdDvG0anTTHotDUGjaYgx4vWWDPoNCdRnkbLIq/jPSaACWACmMB1JhDoD7n3mnWvQ2PQaPrA7WIBsFemx6leKJ1euPn3DYm99dZb3+8d41s+dtNN7yPHy6CHuH1ldyEA0NdXKJ0eTkwP0Wg1aLlWaOjNT1AtC2QfeI8JYAKYACawBwK+P86eedxp6nlYSMgdu22SiK61MSfsNw0QWACEht58f2jozY+jLSzs5jt32ycuf7QEGHSamvL/pOeGG254y1Yj2K0AQEKCQadVoBc/CsiCfAkYDEYYwxO0JT2UTmsI5F+wVf/4OiaACWACmMAWBCh/yIFBo7G8Ztw9TwOEhdL+4WuTRlP4jglREFgAbDE0fPmYEmDQaVbydw2l03jbDXM3AoAI2UqnqcLo9K8yGDffx6DTXwqj03+EphFu/dCHaKgftMoAWZiwCNiOOr6HCWACmEAQBMg/5MQ+lMZEjjCUa7ueBqA69IWFhvyC0hYw6FgABPGTHPsijFBah+93pdGKtxvwbgQA+r8XRqd/G7VHrDAIpfV7V4ioGHTaAoNG+y66hyxGYXRaI54O2I48vocJYAKYwA4EfH/I0Rc6EgAepy3fsq7dmOTpdPq9G+3R29Ef6o1ztFTswAXAW9A0BfpiDAsN+VZoaMgz3mmLLU3SO+C4ISQk5KNhdPpX0HQE+dW5Ux2UNIQREvJoKAooQqN9DUUQYzAY/7lTve3uEyspaLSnQkNDng8NDX2WTqc/tN82b7jhhrcSc+uhIV9C7YbRaE/S6fRP7/ZFShUAyKt6u+cIVgCgICzelzrRnFcAsMm2w0JpkQw6rZc8Z9BoWSj2AHmO95gAJoAJYAK7JLDpBR1KY6K12gw6bXzjesj/Bduk94+0b/ogWAHAoNFEXk9x5C2evFN/yPyLlukw6LSRjXFuWos+zqCHxISGhm6ZjASF/iT79Ib8fHMYjRaPEoNQ2lxj0Gll1Njh5NiIdfA02vcYdFpL4CWPtFVGKK3Zu6zItySOrB9oj5znGKG0f6IXHWUMPjFGeNjTadpQGu2V3aypRyKOQQ/JZ9Bpm3w8fH2E0voZ9JDYm2++OSTQuNA1Bp1mI3kxQmnLvrp02ozvOp3mDKPRMj2hVQnPf/R7rlDKov7RNWILC/vQJ8j+QkNpPwsLDfk5eX6tAAj5H1SPvI9e/qE0Whx5jveYACaACWACuyRA+eNMWABQdfRHnHLdFmSTb2LQad1kPfRlGbQA2EUcAPSiYNBp82Q/O+yH0ZdzoPEz6DQXWRdFsEMvE/Lcfx8aGvopahvo3Pvip76ctzmmy2/54Afp1Db8j1E0vW1e/IHatgcxD/5WBj3kX36iJlBb5LUZZBnwHxs6Z9BpS/5ctjjnMOj0/93iHtkPsUfPTPaFAkCh34E89wqADk8Gt5AUBhIp3vXaqAyy1CCfFbI83mMCmAAmgAnsksCmP9ShNCaqjr6uqNeDmQbY/LKnt6F2Nl/begqA6jewXSAgBj3kz9RxEceeeeIC9AWLvtYZdNqgX5nZQKsZqAKAQadf3OIrHomiZipSBoPxyQCWB/SVKyHSjNJD0hj0kCbv1zr1hde71Qub+PKn03o2j5vezqDTyj3CJCQFOdtdK3zo7dtYAt7k/eqnjgEdd6HrXmsH4jW2uV8UwIn+K+ozo+NDtwDQ6eHUvOykAEDjJBxTabSvU8eErAfb/V+hlsXHmAAmgAlgAgEIbPrj7xUAaK5480su5F8Bqm66RP2CDgul/RHdPEgBEEajnfd7qSKnsJf9l6CFhIS8mxFKi9r0XHQaihO+yQy/SQBsmLTHUMQ65Evg8UAP4TPo9J+QD4q81MPotM5NbYfS2KGhoR8hy5B7r1CQbipL///tnQm0LkV1788d1jK6nomQy+m9q/pcbwzPqBlwiAafJnlqnIcYo8YYZxM06nsYcXiiJi8gZBKDGnEMKiYRBTWoEOMAzgqKAygIhMcgKJOAcBkv9563dnf199XXX3fXrh6+4dz/Weusr4fqGn5VXbW7atfedMb+++9/pyJM8ZtZIxtvndwtmu/FPf83s1GeL114gzof5IcpjktxSvirRD+huF/8igAh9VWa1r9Dtt0VYcq/Q+gAGEPPFwNSRVr+EoBlfpEIAb4FN9H7EDsBRXj8ggAIgAAIRBKYGKDGAsCKfM16984LRLvFMP3Ehd9DRDskfJ8CgGH6ppcfGSRH08VVeSvlf72sMDYhADCtS/5FEa0qruKaJXqDl4d1pwBXq3Do9ClOmXwmObiIr/i1zN8twoiRneJ61W+mcOjpaBim/yiHk+WG0mzBtcaYe5XD+eeiaDgpYPH5ZeGqCD+EACD6B2KnXYRPSccXAFZWVjZLmqL34eXhU2tEDyzO8QsCIAACIBBJoBh4sl9fAEiSh0/cs6sH1EUtGvDjsLlfbQnblwAgHf04fllKSN5Zl5fiemY8RszSjr6sJ5+ZEgCIXlo8W/W7Y8eOn7OcXDeOjy7dtm3bXavC+tfcgO1Ps4smezbIFeEmp+HDSpfW0NtlsHRLBH9ZxFP8Tihj5vYXnl3ca/p1ipXj2YWKGQN5fggBIIuX+QiZgcmP6SjxN1DkN+XkYNkKKMKN6CnIjpXiHn5BAARAAARaEPAGtJESoIvG/6qXQbd2GcBk6965Fr6vyd2XAOAU2UYDU9WaflXR5StS1pBFaz5Nkt/yw5QFgNCWv0khJxNCRtPVfrxVx6LgNsE5SQ70w7n19aJ8l66tbTP+/dhjy3S2l96P6r7ky/HKzI0/C1A3GzGUAJAtPRGdJMakZLllv/32+29eHreIm+HMVzvR1+S+dw+HIAACIAACsQS8gaIsAGQesbz7lcsAzi1s8YV7hz+Q9iYA5NsEswFSpupjy1gVviQAjLaXVYWVa257XjFIr8d4S8z28I9mImjdGHq1n454yfM4Sxo/Fe13t4NhYrbAf67qONcT8D0xJu+qCld3zTJ9e5yX5LKqcAMKAJLcltyaJH9X9BhEH8OY5ImG6JWikCnbREXPoypfuAYCIAACIBBBYNzZ54aA/EfLA5e19r7+fTmWrVnjOPiz/v3eBACmc7w0PuOn0fZ4QgAg+lwoHsPJv4zzQDdrv6olXvmS9Z6V2ZSJQdkZwRFPeiMBwzu+1hr6sCV6ni9c1eVXZjq8Z8X40kiJse4Z/3ppC+i6LH349+V4YAEgS06MHqXMf+LcCB9mTPJCXwmwnCecgwAIgAAIRBKYGCym11U3T1hyYz6iHL1vOtiY5AX+/R4FgGtG+QyYnvXTbzqeEACYTmgKK/dE2W6UB67+Mm6KwzLtHD9PJ5bDiqe7SV2ASmFgT64Mya+oWyZIiR7npSOKik8pp9V0Lpr1/vNV6cxCAGjKI+6BAAiAAAj0QMDv7KsUq9z+evdlmmmGj1JN0/TOnvOgW7dv377P6GZ/SoCbJ/boR7iU9fNSPi4JAMeV75fPxce9x6pyOaT8jH+ebcMbf+Gf4t8rjuULXywYWqYrvbSqZgXk2q02F8gmlgjE8qD/bHn3Q5FW3e/UTod0v/3LYSEAlIngHARAAASWkIA/WFQKAOJ9bTxwrfvLAJnXNncvZf73cvF7nAEYW/4bZgYgLAAwf8bjIIp1UX+ZM5sxx6kZAD8y0aswxjxKlBgN0/e9dKuEgQ/4z075coicAUiJ/s5PDzMAPl0cgwAIgMAGIuB39lUCgBjQya3HFVPS42UACV8872zeT5DpTQDIbNXn6aec/OdEIi1PomcAZB1+PIBH6QA4S3/e4D25JTFUBGPMWsrJn8q2v5IgkcXpfBlk0RhjHuLlU3QAXhSK379vmT7gPb97XjoAfp5wDAIgAAIgMAABr7Of2gVQJFfaV575BjDG3MVb195ZpZndmwDA9OVRPokuL/IV+hVjQaI1boheJVbwfCt8LQQAcdIzGsR9O/bBfORWDEfPlncBhJ7374uDI9kf7+dFdhEUYSp2AQRtJhTPyq9lOsuLu3KmA0sAPjEcgwAIgMCSEvA6+1oBgJkf4IfLHNcQPbW4VucSti8BoDwtLWZ2NbhT5vcWebSGrheLcsVzsQLAlH8EZ+64iK/pN7Nq5wkP/he7sJQtbpJXcYcrehVNcck9N6Pge9mb0Cko2xXQ7ljIHOxMGE+aVlaU9CEAhGoI90EABEBgCQiMBkgZoKZ3AYxKYIkuGIUVk7jelLjs0x4F9A76EgBkwBylnefzTV4ylYcykPr+DFJOPu4HjBUA3IxHYe9AvuYvrpr18NOQY9nOZpnGuxiYrvYd+JSV9nyHOOW4/HNfqbAsgJVmbNbrPPz58cmx788h4030vHIYOY8TADLXv/nsR0P7qkoH10AABEAABAYkUBpYa82risZ5ETZl+oE3/X+tP6D5We1LAJA4JwzUGLo9JXqQn1b52Hn4G027+65kXXwjd8CylbH8fNW5zyBjYeh9ZSdDpee2ise6glv+O2lRMZvSZ7qlCCPb/Op4FnEbs/p7RXj5LS8piM5AybnP1SE/B26GwzOdTFeI0FOk6f9GCgAjq4SG6Yt+PDgGARAAARCYIwF/IGmaARCXwBNh3ZS2YX5PXfb7FABSot+d8Gtv6Po673bOE94eL7+nlQfq2BkAKeOOHTvu5g9+Lv4Tqgz0iIfASdsBmf7AhSXzthk6YejlVYSWU8TmfRVXZ+jnKi/8TpllKIc1RH/lhZHZnR+LjYByOFkeMEQvzbcVjnUcqpQ6i2d9BuXZhyJM8SvLGl4+dlmi5wqbbOmjRsAonsUvCIAACIDAgAS8zrlxCUCyYJnOnQgvQkCD29g+BQBJP3Nb6wQPLx/ninMgMZ1rDb3PEl3u3VuX88I7oY+xjQAgzxtj7ldyCiQD9i1OMe8o2cfvBv7bJvLBdHWd+eBsmaCcb6bbDNOnxbWxm9I/zjJ9qxTnnjrXwaLvIFszS+HX3eyNKEYKr/dPGnoqBIDxTg+fWXEcIwAY5reU81Ccp0SPLeLELwiAAAiAwIwJFJ1x9htYo83MsvoDsKEfNymY9S0ACJrMGQxTeXAdT/X7+WM6h5nvXYW0rQAgcYlr3ZKiXV36xfUz0gqDOn6+jDG/MrndshiMa39v9h0v+XF5x1ss89EThpQm+RT5K353akwHxwgAwr9q62LW3ogO8fKKQxAAARAAgVkSsLlv+Wuz33xNuzZ515nnYZmulS/T2sDyxU70ID9+8cpXFT43b0su3uSDVWH8a9tXV++Rfb3KMkDVgJZ9TSevrVvDlricgZ0izaitcvK8rNO7qfPRGncpL7IE8Q1L9Jyy+1+/LP6xKBW65YuLSnEVA7T8Xm2JjhUG/rNNx8x8f6eLcFNNvFeKxUfRHWiKp7hnmc4s6rVpCagIn7eD5CvTgggfXYTBLwiAAAiAAAioCWSeCJPkQGPMk8VQTsr8B25//iZ1JD0EtNamokSXMj/LMj9bjldXV5MuUcs6uSgupiZ5pvhYkN0BsvzQNOMSSk+M+sisjHByvJ7iXCtvCT3bx33RoSCi+8hsR5WBoT7SQBwgAAIgAAIgAAIgAAIgAAIgAAIgAAIgAAIgAAIgAAIgAAIgAAIgAAIgAAIgAAIgAAIgAAIgAAIgAAIgAAIgAAIgAAIgAAIgAAIgAAIgAAIgAAIgAAIgAAIgAAIgAAIgAAIgAAIgAAIgAAIgAAIgAAIgAAIgAAIgAAIgAAIgsBcQEPO8aZraNaIHZj7miZ5m8/+ny69cy/zZJ8mBYha2yj3ukmPawsx3F7e9Uk5jkie68j9NTPBmZberD5Yw4rFvycuK7A9MIPM5YcyaTZIDU+bH+O+SHBtjHiVtSvwtiJOqJv8XA2cV0YMACOxlBDZba+9rmV9uDX0kc7Bj6PYahzO+Q5vScXKdZTo7d1/Lr0uJ/qc4xll0lsaYbdkAz3yEZf6sZbrQxpVfvBr+MHfUw68QoUnrOGiWbNI0vbM4Hwr9i/A3y3xtwLS2ZgM50ass00ct03mWaVf8+0TXWObvShyG6FXGmIfC98IGbC0oEgjMg4B8jRiit9ppH/algb3Wla0m3C7L/BlL9NRFGljEra/l5FDXwWrKERdGPBwSHWuJHrYoMwQikGkGIXHyM4/2uORpbhK+hpN3Z54eq7xb9nPtNkt0kjiY6uJQaslZI/sgAAItCWw2JnmGZTpDMxj0GsbQj1vmua/HthqT/LFlOr3XcoU79ktSTg6e97QuBIC+mtFEPNKmXigzXzNuU+sivE7kBCcgAAIgUEcgW7fm5Duz76hGMwi76/I25HWZeTCGXmaZLppj2WUG4QpLdMi8ZkIgAPTbysR9tSz9zK1NzV+g7hcoYgMBEOifwL777vvzhvk9lmnP3Dqr/Ct55gJASvS7KdMP5lzu8vLB2bL80n9NN8cIAaCZj/YuEe0nujJzb1MQALRVhnAgsHcSEA19y3z+3DurGQsAsivBGnrfAgg95cG/ON9tDb1plsqCEAC69wGyK8RyctlCvE8QALpXKGIAgY1KQBTQLNMNC9FZzVAAkG1UlumcBSp3MehP/xo6Vb4oZ9EGIQB0o5wyP8Uy3bow7QoCQLcKxdMgsFEJrDH/jmXa2WNnJcsHN3aMb/AlAGOS318woWd60J9WGrxYhJah2yIEgPaEs3YVtzU0VO+7O7+fEADaVyieBIGNSkCM01iWPcQj5btQZzS+T3S56AsYopdk+473249KRn42b9++fR/ZS26MuV9mJIj55fKMW2tv0jMYVAAwJvmjlvutx+VnusUynWaI/la0u0WQStPV35Dyrq1tM/Jr7eoBMpjm2t98pCX6nGW6qRVvV0eG6SfMfO8h2yQEgHZ00yT59Q71e5E1dIxlPkiWD1ZXV5PSbpCt1tpflHbFzPeX7X2G6JXW0Pst0QWNbQoCQLsKxVMgsIEJbLZM32jsOKYFg92G+V9lgOi6Zz1JklW3LeoUy3RHKR+DCQAp859UpOcP7E3Ht1qi48VCW1tDK6LZb23yCKd30HbZ5QrR2RiqbUIAiCcr7cEZ8mlqP+V7uzJ7ALmi56b4VMdPWGtTEcatoVOn9FkgAIxB4QgEQGBlRb40SoNuuXMqn58mX/JDsDPGbJcvaW/pYBABICV6bMvB/6aU6O/EEmCf5ZddF5b5dZbpp5F1IXVz8VA6ARAA4mvZEr0hqg6JPjGUISVr7T0zw135LNW6hQAQX6F4AgQ2KoH999//TjKVrO6wci30LUPzyEztisVBQ7f3nZZMm1uxujc9q1EWdMrnJ9592zbuOz9+fDt27Lhbm+2XKdOXxHa8H1cfxxAA4ijKUpcnvJbbT/l8t+XktSsrK52++DU5lFkBt0RwuSY8woAACOwFBCzzs/UDYXLorJEw8wP6TDProEPrpNOCwQ2pSZ7ZZz5CcYmjl1idjNTQP4Xijb0PASCOWLYWP91+ygN/di7LXnGxdw/d9/vUPUeIAQRAYG4EMpv7ig4r5eQ/u671z62QXsLZV5CivJ5QdKko9HlRzOww9z0QZTVuj1hu7DODEADiaFqi73ltp3Lgz+8nH4yLGaFBAARAoEcC4nVPuUd5z1BrlD0WJxiVW/dv6JSndkCcN/SUfyjToiBpmc7VDSpZ/i/atm3bXUPxau9DANCSWlnJptl1ljNvG0pnQ59bhAQBENirCbh9/4oBMfnKsoPKrPwx/ShiIL1EFBIXodxuYLlYn/fkzX3lGwKAnqQlepqyjj6qjxUhQQAEQGAAApb5RboOi183QPIzjdIyv15X1uwr+sYht9a1Kfga828qZ2tEoLu1L+EFAoC+tgzRX2raWMrJn+pjRUgQAAEQGICAZT5C02FZoucMkPzMosw1s5PrVGVlWhfjQDPLXERCzjuhYsaG1lOif46IujYoBIBaNFM3Uub3atqYGMKaehgXQAAEQGCWBNz+4OCAsuwdllrQkcGfk3fPsg4i09pkib6mGWTEumGSJL8UGf9UcAgAU0hqL1hDH1bVjbX3rY0EN0AABEBgFgQs0ztUHRbR02eRnyHScFbZtMZ1rpDZgiHy0VecmenXaWuJNUIcH9k1XQgAeoKGk49p3idxN62PFSFBAARAYAAChvlvVB0WJwcPkPxMopT9+5oyZmGWZKlDTBAry3RFV+NAEAD0zdQSHaupF2OSZ+hj3VghpT1uJ/rV3Esiv1wMIeWWP5PDU0OvEaukxqw+so/Zq0UgJ8rHUhaxvyB6ReIbpK3p8EUoz6LkQfxjSN9kTPKCrN0YOsy1o0Mt8ytEIVf0pmSn26LkuUM+tu7Ybz+S90bakfgA6eVDVWu0JOXk4x0yP9dHraHPazply/TDlZWVwS0c9gFDGoGyTOuW6Kld0oQAoKeXGvoHXb0k79THuvwhZdDL+xr+TKSDpCss00fFZ0fJudggUERxNtvJIbs5av5lK3EocZmlE6NcztFZ1ezcrmwpL0meUBVX5kWyJn0/X/MY3LJtyYq8ra2u/nJV2Tpc25Jv407eZQ39l+49yxS6d1mmMyzzkeKgq0P66kdTosf59VR1bIxZa4pQ2rsheqllOrnWUy3R5Zab7YmILZnUJP/bcvJGEZbEidgogIqY+QAAIABJREFUXUv0dCXIG/vcWz7KwMAHEfuy18Ui4sDZ6TV6w/RFXd01N5BQpiAAhAiN76cm+V+6OqEfiSOo8ZMb88ja1Qdbok+09LlRHjh3Gua3hDrOLiSdc7ByuqVzPr8uDbGV4rx8lp6Zsi/i7ieHV8VlmU7UtCPJb9XzQ14zRH+lyNse8UHRRz5k3HE+UmK2cNfyN0zflNmnIY3apUz/L8iofll9Sz4TRtcG48gN2u2p45zvfOPXyYzBPfbZ5xfEf4819HYRMLNn0jS1ykTWU0N/XZfQol6PcHJ01bJ1yBFlu6bLzAYEAH3rdvoZtZ3PxLtG9Of6mJcrZOb+2tAnJ8obZ32zieEt4myp69JWFdEuAkD2dRXt3rtGAEiSJ6jYGfpkVTmGvGaZz1fk7bQe8rDZ7Xq6WpFeU3upu3f6UBZe2woAYnTOMn05sryVAoB89cuMifOye7o19HXxMSO+f2QsT4kelNWRZbpQmeDOoYD10Fgqo5ClC13Zkn+sjGCBL6Zpuq9luk1TPmPMQ9sWBQJAFLktKdPPNHVima4ioh1RsS9+4E1u2nKnkkFd56y4nnynb35tBYCUk4On3C6rBJ5qAWBlZWWr0kHbbb2sBSvblQwamnrt6jdFBEhxbqZJq1MYQ7db5pcri68O1kYAkGWyFi7E5T2ZEgBEOBYFf8mwJTpEBCl3fLwsCef3k3dlBUoN/X0ERLGO17h2oaY0cEAH4UZN2eTLbeDsDBK98/eu6CzbG3KCABBXdZbpA5o2J2EM0/cn1uTiklqo0KLYZpj/VVv2nsJdbZPkwL5AtBEAnDO1Pe3KUysArGj1SWTmoa/yh+KRJRhFOa/pouRobfKIli7RFf1g9VKMs5nSm/5XrAAguhwN+iKhck0JADLVX7QLEQDEfX3ej/NXi6WZlOhtWX2Lhqpl2q2o2CwjIpky82+HGsu87zvLeSF4hX/0wd2xDsFDa3lOtqe1TR8CQBw57VdS8b5lnYVdPSAulcUKLeuLEfYpwu+k6uvZdeaGrpd3vQ8isQJAmu733yNcP1eUu14AWEuSXyvaSNOvc9LWR/FDcWy1TKKUWVEO/1r72VQxOCf2S8Jp+On1dGzofX3pBcQKACKAdCjzlACwRvTAQqdNBIDc4V/yHd/AndgAGlW4dv/yKJP51MnrF3ndPGX+s1F+mxptXvEjFst0oPflQJe2LRcEgHhylvmrqrY3bpc3iQJhXx1QfI7bP5EpaemNU1UNHrfY3EeHarauhuuVovDbvhT5k7ECQIv12lL56wUAyVGuvR4c4HbNwrFUyvyYGvYTZWprQt2xv0OTRk2Yq9yySfs4DB3WtQ3J8zECQAsHdRO8q5YAcid/fHTWhtwSgMzcy+4JNzuzacLgnZsFuKkGbDnB8TnR90Ta6ANa33FYQ8eoykP03L7TnlV8uYYsqaYf23YSEADia9MpA7b4kuGvtu1A43PZyxNb47Tes8HsYsvJm8UY0o4dO+7m5yJN0zsbY+4l67IuXlXbzt5zQ1/v+kESIwBkW/XGAty4T4y61iwAOH0KRdz8Yp/jEMey3Szcn7ZzGucGQf37kn2A0snykSd6IKV63yR9nc0VKd+h1KUoGO+WLXxd+UUIAJv17sNrBcGpGQDJv+XkcGtXD5A2VPgeyQz/ET1PfABNldMYenW4giszcYdoF4qhgq7g+nxeOyW5bIqNZUaWSeUlcKT1WY4gcA4BIACo5rZlOqrl+3SbDJCzVO6qKULwsqwjRpTxSpvvfNgajNgFkI+LGGUwQ/QqbdxV4SIEgE2Z/kbNYJ/dM3SYDEJis0P2n7stkU+T/diW+bs5t2YBwCn63qpg3IfWfRWS7Fr+RUnhGZoWH1PZ1kmO8NPCycdk6aU2s6Ubxpi7uKVSpWJqclnXLe9aASBgpO4mS/ShTIvfrj5YloSkLRmz+nui1Jcy/5tbfqoUAEQospy8U9IodsyIwC07aGSHQAlTdiqap59WNLZCWir/3ij7NUWKr4p81td061V0a0l6nHU2O6fnDEWU62LqPGX+wzaJQQBoQ21lRd4D5RTuVF25d/Cnol2+qO1T1hPVfYWhT4meQDuSKytWBtOawbZ0fWeXpQCtAGCJHlZKN69DQ/9lTPLElZWVoE5RIRCEmFhDH6lMa5LHbtEiD8XV9n5goHLtN7lOBtuYNGRLWpMgVSr3DY5tTBKjsKL8pv1YEuF99GCLA60AULNUKLMQb9PM2IqxoND2fLd0c5RlPlreI7EmWFukTJmH6fQS+LoOquZ6cpkhekkhddQmNuANtwNAo9h4zoDZmEnU6qUO5r9okyEIAG2o5c/IrJhlOrfT+yRWz3IT1b1pKbcvUf5kNsXKdJWmXE7buHPec2WmyhnIiX5INNXbli9CAPhQueyy5XgIy3yZVbnJwX6ivEU+RFhsW+7Qc5qPDLF8GIqnfD+fDQnXaaYj0oOibG4YTmXH4GYxNVzOr/ZcIwDIwF3U3ejX0PXGmEdp0xkknNPo/dwoU4rGVxP2Yll7mMcXjKwL1eSp9PLwZweBOMNItTsBZLtnm2xBAGhDbfyMEwLO0LXHxs7wh8Ykf7wIioL6rY5ur/EYR6cjpbfFm4wx29okpBMASHSlJuxvyMyp7N1vk6bimS02M/na2DbE5PfXFHFFB8lM/2o08yMHaNF1UWr8XyvLBNEZr3kg08/JdQhKY0GZb3tHahoBwPKUpb/bRKm7JtszvyzmCMWuuV4Jp05QyOw2Z2Z2O38FaCmI4RtVh2vo/do4FzWc2iKgobe3KQMEgDbUJp8RzduOW338zurslPkPNNPMk7no5yxbz9ZtGz6tb+FfBnbN0l7dGmeIgFIA8OtiXfZvd1neCOVJ7ss+bkV/toeZ766JLyaMs8Y3UeaKvJweE6eEVe482yWOoWLjDoWv/Pouj1+GftzWgqpSAJhgagw9P5Tvmd93vgLCyh9leNXn54hThFl0XJbo8RWNdAJ4dt/Qm2YOtecExbKTqqxEx7ZJGgJAG2rVz4j2rWXSKHVNt9Xpd+pbU5q81cn2elVlXdPQ9V2mUJsybDk5NNTexd57Uxx191oIALIF7z518fV1nZnvHSqz3O+qBFmVXzEhG0q70DKver7qmrPRovi4bFaSrIpbcy1bO1dY7FxjfrQmvnKYFgLAB8pxLMy5SJWaNaBQIxnfT74j2rFDFlAU3sbplad2/PNhGtiQZSvHLYoxqrISHV9+VnMOAUBDSR/Gdeax9r4bBILkK1JH+hy0D+mW1hS6NfyK9qk0PymCRXkKvqL972mjFBcrAIysqTVnuZe7lukbFeUst4sze0nMRSKe5BSzwDfEempULiH9aAidioKP6CwEebadNdU4AxoL9DvFJ0+Rr4X9FR/mmum3INRxwU8eyud3yvwsXT7am8hdlIqSKTJNWdtaA4QAMEhNb8qXbvTbn4J1TPQhcSYySG5dpJb5CEU+LhhaAdgSnRTKh/QBsSziBIDkulmacbbMLw6VWe7HbJEL8dHpF8XpebitjTeHyzKsd9bcWp7/MVh5LC7io/9iZgCEcXQC83pA9iaLO0GrUqKoBFqWWG+ynLy27w5DpqTCDYzWxfbBvFj2la4YVNGU1WIGoC/kvcXjvH+J7wDFV7XifRItYqKXDqUoaJkuCrU1Q/TK3gDVRKSxWTJh6awmnvLlGAGgjdZ7Ob2Y82wPN5NYTSz3oaVzfn1MvE1hNc5pYs0wK/vmq/oeEyrKKaaNg8bvRAmy4tnGSxECwEysODZmts3NbGqISLbCKNZxQg2WMkUaa+192+Sl6hm1YhzRG6qeX6Zr2hkA21LhETMAw7eGTLHO0KfCnXv4XXJxnNHnl6AQcMp/pcGmlB9Dtw+19u/XgkroNfR1/xnNcYwAYIx5iCbOPsOIYRhFGzm7jzSVX8jfjk1LM3sjhrBi420TXmPKWQzvxMYdIQCcEhv3QoWXLRXijELRKJs7jlyqvbnwYNS1kM5DlyJNPqJrWvN+Xq0DwHFTdUW5IAAUJIb/FSdbNcZBFG15ajC+PmV+Sl+5Tg29RvGen9xXek3xZDORwS9hujFW4ThCALgoNu6m8mjviVKaog7WG429KBPLDMeEGOeWHZUxrqw4+yzBr+5ZeWfNZrNDZWzhLlgvAAy7zKGumK4B3SDRj2IT0bFdrQlGKAHORNLsyrfpedlZoekUZCtRUzx19yAA1JEZ7rqzY/5tTb0Gwuyx+U6XznvUNdu2REgYjspEzJssU9DpS6w9AK0A4NzHTmRoRidbnOOkZoGwu1Mbjee/nbHbH8WUbaC9ymzwz4ZawirXkWo7IMd7N9QKAG0UVctlWKhzt//+C6FKVtz/cqxmqQ9Caz1L/Jf7zy3jsdhXV/Bct7AEuHTVK9OPlulMXf2WZgC8LxsZvLvuydcMPLN0E26Zrg5xkWWLmEpXCwC558aYqHsLa5mPDJVbvL51SVDl+a/FtmKNIuMM3RuvZE6nvPekkquhD8eyVAoAV8bGuzTh3T78bh2Xoc/H2pYuAEX4ZP9C8cyy/mrtpEvn1qaMmAFoQ63XZzY7u/vnVHZQoQ5sfP/EttbqnAJa81dnlg6/PNe/4YOG/w0LALHrt1oBYJ4W23LnOfXCXtFGukyjW6bjinhqf+3qg2Nbuc55FH9m+LZTtE8SBdxQu452tKQRAGYp6MTWU1/hNxljnmyZfqiAXFkJDlK0BUFnfrUyzom8dJSU+wLVJR7xxDhRproGTfSwNulAAGhDbZBntjjdlktU9V3RDtrOeInHzLZpzvM5Y5InxdSEVgCIXVqIyYMmrEZPpO2Sn3x0OS9zTf1nK0VDnQJgcEBuytcQ987Q1IkfRiMA2BZLC34aS3MsU49OKz84ZVfZWbTT1Jc1QsWWGbqj7SzDolSAZVItubTdIw4BYFFqOs+H6Mc4hbwbKt+XioF/MhwfFFsip5MwROc6bJxET48pq1IAEPer0R8lMfkIhXX9aYjdJW0UFTWe/9qaWh67QV64Qb6eJdH3QvVRvq8RAJZq/3+5gG3OZT+l7M1tsed5V5okvxWbpmYPq3SMst0lNu5FCq9ZC7WGrm+bZwgAbckN+5wxZk25Lazcue2Mda4i3ggnhYhl6cDjtKyVAsDOYWs2HLvz2ho2ppMkB4Zjmwxhw9tRbxFjPpNP6c4s06VL2I7O05VuHEojAIj+wfiJvegoJXpshSekcidVPj8rVppV+tEW5bjoL6JFqS5nSKbMavq8xZ7ooowQAAoSi/krHgIt086ojtXQ52NKo1Heiko/OEvRk4CRu1FWF1UlAOROYtRxDhXQcPIvYeZxGuyZm+egkbfkg23LpPpYmVXb0KcziACwkM5/2lZs7HNrq6u/bIm+F27A447AmOT3Y9IRxxiq+FtayIvJy1BhZZ+3qozMR7fNAwSAtuRm91y2Rp953Ry/L8F2EfF1KDtIgvHpO9RpAXWoZ4cQAIgumF3N1qfkdogEWCaXxWypEyuSoXruogAZLagO1S7i4h1EABBHe/W1uxfc2XfffX/eMn0r1OC8+1EuJ7UDl2W6JuYlWaSq0RmyIPEVLl4YW/1pOcZOK7fKDB6qJeD8tusVbolOqo2sdAMCgC9Y8fklPPM63WyZggqhYjVRm0GF5z+xjb9JG185HAQArx3t7QKANA43hX2FN8g3SrTGmHuVG1XdudgR0LpeNWb1f9TFs8jXtXoO1tq0bTkgALQlN/vnxPyvZdIqB+7WOrPBEoDXcfPCCAArlpM3BvtOQ8doWmI2Kxsy7U50iCauujDysRXMb9zXeeN40VNamAGoq9A+rutN2dJ6GmmAwzD9h7IRvKOPsswyDvGdoCpbCy1WvxwQAHwai3+sdLaSd5zKrxBL9DxNWxvSfessyKt0ABZIAFC66xWDM0FLkJboDYE6vk10BLrUg+XkskAaopO19ObZVUqAynevC++ledYaOjXcMGjdGvpkTKH0VvLo2h07dvxcTNzzDmuZjlIyO6xLXiEAdKE3l2dlavgsTdtImd+ryaHo32ji2766eg9NfIsaZtkEAOGodGjzyBDzoL2WHnSlLNPZoXY0RzPLIUTq+xAA1KjygFp79pbpwpioZepbv+2QXxwT9zzDyl5wy3Rl6GWS+8aY+3XJKwSALvTm86wx9DJN27BEX9PkUOkZbn1Zl9IKBssoABiTvDBU1yFBT1z6huKItapYMPV/lY7jZuJQys9X38cQACKJOlOjGp/o4uEr6s8ynRxq3HJfKq2rvfSojHUIrNHWzcrccfpfsggBoENFzelRpwsQXh9VWsJM09Tq3qH+vA/OA90yCgDbtm27q0K57lrxxFfHVKzSNdZv3k5aK/8V6VpD72tMJ1//P7MIv6y/EABa1JxlukjROOSL9i4x0cfoGMiSQUzc8wi7//7738kyXaxjRS/rmkcIAF0JzuV5sYQZNhTDdIMyd7KscGO4zfHrlPEtZLBlFAAEpMp2f5I8oQb6FsP0k+a6TV5b82zUZcvJoc3pZMqW8pE3V0uLUYWqCAwBoAJK6JLW65nMFoTiKt0XF5qqAVMMFMl2qtLzC3VqmV+veInk6+/GFqymygoBYArJUlzQKVzRrdrCKLaIRevoaNOeVbilFQCS5OHhPqHagI8x5lGNzxq6XXyr9FEHWpPSYteij/TmFQcEgBbktVvaNBqt5eSVtrOzKdOU+d/Kzy/Kuduqo/myW2/rDKRcVggAZSLLcS7mnxs79ny6VWxgqP4sJ+9UxHejzFCpIlzAQMsqAIgdk9AMasr0M9EdKmO33OwRT1xJl59pe56Zr1Zs8xMjbm3TWITnIAC0qAVpoIoORjtlWc7BVq2Akedh8cwDu6n/0xWMRJDZ2XXLTgEQAkBBYnl+nZJoWAcgwqqdMckzNG1PltyWh9RkTpdYAFhJDf11qH7EcqhfYuf5r9FuhJhu95/pemw1Fis7mC7vmr8+nocAEElR7b6XqbWCiJheDL0g3v1b2jggiix2VHC11b9Mwk4Oj4q8ITAEgAY4C3rL2tUDvLZcKwiInQxtETI78UxhRd3Irbra9GcRbpkFANmCaUOGfAx92OeoEOou7ttKqmV6h6ZtLvMyAAQAv5UpjrWWxtr6M3dZ2KTchlJ0mNdsJ/pVRfYHD2KZX6d5aVyYi2MVJZsKAAGgic5i3jNEf6VrL8mbY0qg8UOfbbu1qwfExLsoYZdZABCGCtfgN/hLNCGHaUO4rE2JHqdqmz3YHZhXu1oaASA19H+J6D7zAlWkazn5iqpRdPTcZ4zZrlxqyIUAosvnLQQoNWcLoWU91mlSUQd1vxAA6shMX7eG3sTMd5++M9Mrstyl8gkQ21Ys84tU7ynR57rYjJ8pLS+xpRcAFBYb15gf7Yq81XJyXUN93tHFhLiHtXy4NbzrINsNsMcY85Dyw8twvjQCgCU6Ptvek29/2zwPuJbouQ2NcDSwyfQWEe3omseU+c+U6eVpG7q+DyMYsfkWSV2sYkXllejY2HRC4SEAhAiN77svsGtSkzxzXgOgMfRqZZu5VRxyjXMfPtq+ffs+lukmTfyG6CXhGPsN0bTXXZPSsgsAzv9J43bNlOhtwoKZf7uxHgdcykkN/X1j2mNFwfOkTJq66zHMpq72YJZNAMgGOsP0TWkUPYIMRiVf1xEOIk4LRqgMYA29X9kACwFklzV0WNeGoczeSpokv26ZzojM47lD2GKHAKCttakp2NOY+f76p7uHtHb1wcr9/+Ih8vg2KVpO3qxsl7dJ22mTRptn8sE7eVebZ4tnll0AkHIojO1cJOFCSoPGJE8quPT9u7a2zVimW1TtiOgTs7ILIM7pRC9GDGl1KfNSCgBFZaRMX5J1mr6VP8pAXWf10yLd4G+PzhPE7r9l+kYwzbEkWggC345xr1kuc+g8TdN9DfPfWEO3R+bt2qGWciAAhGptfL9mDfYUNxB2tqQ2Tmn6KGV+jMIiXNGOZZuo2k2sn1pU5y3Gg5Lk4f7zfR/LkkvKycez96WlUFPkaSMIAFKvob5DLDumzP9eHy65rM1264Kj5jdOqZlO6Dq7E8jTZjcznHkr3KsFAK9RXGo5OTzGBW8AcnZ7dXU1sYaOsUy7vLRGHVPVNZmd6HtK1XVkKuuD5TwZpk8bsyoONnpZNpH9/dnAr3fl6vO6dY35dzTs24SBAKCnViMAuLri80WZM0mSX9LHGA4pei3OElxYQ38s0J4Sjrk+RIQxKjEOdLshemVf70qRK2PMNvfOjJckIAAIHrECeWG5z/LPM2GR6AL/2uRxf7uIivoq/0r9WaarJ9P13S5PHZ8h/WQ5nq7n8rEr44ufDwgA444i77yyxpK8WSw5tdlfLlrpKfMfipEdnUnRicrfZZPkwK4VXfW86BREWAn0B93i+GIxuCPCQIzmvazvG2Meajl5bcuZiCL9W2MVuao4NF1TCwDietnQR2b5L18yTXmf9b1mAWDcpg3T9w3R30pHLOvqsfm8xz77/ILoGVimj6qnUsfv9E5jzK/EpumHl68xKYPfaSqOz3RCc6eZkMwNdv4BMb3WDQEgqybR3m+qD3e/TmDc3Yeuld9e6o4t0XOa8llx72bLyRuttb9YF6fmuugVOLfZZ1aksQ4BYNxZFANN+VckzJNFoSQ1yf8RS3sp87PEb7g4qkkNvSY19A/51Jx8+dAdVaB11/qxQ13XMOSLzDJdosvLuBOfCp9P259niT4he12lg5cvPllry4QE5vc4x0TnWqbbpp4PMy/XwY3WJo+oK1df17UCQA/lKZcveM7M9+6rnH3EoxUASqz2WObz83bDR+dKfHyQDPDG0PPFs5+8T9nau6FPuq+7us47yMyY5AV9lNXp70wPwuF2fLa8F85LZdBPvSyLiaAk75BlOqfEbrK8EACyqnUfNk1tpPbLW2Y3+2gf2jgsJx9srNPq9iSzPseJYSOZSVCktSXXq+IXWaKTQoqsEACqoU++bDMI49xYdvpiUDSOFbccoLWyN3MOFS/IhV3d/Gq4SBgIAFpSU0qAi9BOSnngI/WlCYe0RE/Vu9uuFJ5vskTfy4UfGQiSdzklthPyrcHJZRVtv1QmL14IAKNKs4Y+H8XO9ecyUzuKZAYHzmpl5Zd4RP4vMUxflNlHw8m7s3ZE9CFr6FNupmq8TKQYtyAAKCBFVE79C9uQjhv8Z+YVyikGHjd0uTrHT3RSH05+tO82BAAtqcUWAGS9XF8SfUg3ldr0tdnq/W/1nkAAGFVci+l1qacrZrXTaZTRlZUVZ2XyrFZ13jCGtI0PAsAAUNWVIVPpRIf4DWSWx84ugX53woxYifEMt798ljgwAxBBu+USwNAD5M2ylBBRjOigsvTX07JWNxYQAEZ1J1uCbaRSsSxbjiKY8YF4Ye2oD9Wt7Xj9+F4jAKSG/kk9MHuAhnsm+c6sprab2rfzTXDCcOX0pi3DXG+U9U9R/GrK81D3MAOgJ2uZTlyQNpN1hrKl11p7T30J2ofMtvUSXT7H8n+561bYjbAN0K/BSENie9J0v/3952d9nBk/Y37vHNvQTsv8F13tDiyNHQDZMiLKey00enuTtlxlXyxfEV3B991gZfeBGIaYU4O8QjRelUoufRd9FB8EgBEKzcFWS/TnKo9nYcGvyzt2rqzP9711NgRAlqac2+DZLQkQXSB9WB9l3WgCQNDan98GDX0+VL+zum+JHh9yb9xzn7xLlpzFXXEfZVwmAWBUXmksotXfi0a837Dqj3dbos9JRzWPdadRwRUHKdGDRJqO8iNQX+6mjl1cc54oVrgWhQkEAEUDmQ6y2RjzKFFIUto9b2oT2nu7MmU6osf3ved+unjNV9xWvQ93VBBsKvcea+hUY5I/6tNgzUYTADKbAI37/cczkeIZsLlWZ3s33zqeHGyZLu15sPfb1ZWy7NG3bY6lFAD86pXtVZlyT24y99st9hr7kMfH+RThiWJ1SQwC+Wkuw7ForDoXmh/oWVC6RCymDWztqhXibLvXjPf3a20JLJodgBrAm2ULktjGF2+WlkmUnfrYBirv1SW5bQ1+tmyXq0l/bpdlO1q+TZikD9nTsSO/VrbRyjbjvr7UymAy2xyBtm6Y31J+bpHPLfOzQ++TtCHfS+AilSezOWGSJ2XvjqHrO7YhmZk6S+rQbaEObkNtwyJbWg+0I1kyaxP3vJ7ZIutDxpgni/GafKsFnZB9wTN9y+1NFtsA59n8/DRL9CFD9NaUk4NlH+8CeEnrnV1mQ4DoqbJP233tfdoynW6Zv+uYRNg/6HeLVu+FRYR9EtgqFjazbXREb5Dpx8yoT751SwZLeZfkX2xGfEu2dOXCAx+dD4Crj5Stq31maOi4MkdC2dQuvz5bmzZ0at5XZHZCivKeZQ19XWYy8vXr5FBh5KyRDr4deGgGiL8zgS1puvobzivlUYaTj+X9bSZUuzaUtSd5Z051hueOkvBiIjnW+VXn3CKCvZtAJn1Hffnw6/duYig9CIAACIAACGwQAs7c73gZJKAbYIhetUGKjmKAAAiAAAiAwN5NwDIdFbN2Nc/9uHt3TaH0IAACIAACINAvgU0KP92TswSGjpm3Nne/CBAbCIAACIAACOyFBGRbX6xNAXGmtG3btrvuhbhQZBAAARAAARDYOARy85zJV2KWA1KmH8zKmtvGIY2SgAAIgAAIgMCCEch9UdOXIoWAn1nmF/dh7WzBcCA7IAACIAACILD3EBAhoKXjmC+sMf/m3kMKJQUBEAABEACBDUbAees6LWYmoAhrmD5tk+QJLax3bcJywgZrSCgOCIAACIDA8hEQe9fOmuLkDoCArYBCELBiGtPQR8QS4Rrzo9eS5NfETKpYXcs8Glp7T0v0MGOSF4q1OWej+ozlI4UcgwAIgAAIgMAGIyC2ri2T+BZoJwTEPwcBYIO1IRQHBEAABEBgiQmIz4QBvaf5wgUEgCVuJ8g6CIAACIDABiSQOYdhunng2QAIABuLcdJuAAAC8UlEQVSw7aBIIAACIAACS05AtPwtZx6t/K/2Po8hACx5G0H2QQAEQAAENiiBbJugobcPtCQAAWCDthsUCwRAAARAYIMQYOYHWEOftFEuhYPKhBAANkj7QDFAAARAAAQ2OAHZ3meZjrP96AdAANjg7QXFAwEQAAEQ2GAEMuNBRE+zRMdbpiujlQUN/RiuhjdYo0BxQAAEQAAE9j4CaZpaS/R4S3SI5eRwQ/TWlOifraFjLPORYiDIMh+UEj2Ome++9xFCiUEABEAABEAABEAABEAABEAABEAABEAABEAABEAABEAABEAABEAABEAABEAABEAABEAABEAABEAABEAABEAABEAABEAABEAABEAABEAABEAABEAABEAABEAABEAABEAABEAABEAABEAABEAABEAABEAABEAABEAABEAABEAABEAABEAABEAABEAABEAABEAABEAABEAABEAABEAABEAABEAABEAABEAABEAABEAABEAABEAABEAABEAABEAABEAABEAABEAABEAABEAABEAABEAABEAABEAABEAABEAABEAABEAABEAABEAABEAABEAABEAABEAABEAABEAABEAABEAABEAABEAABEAABEAABEAABEAABEAABEAABEAABEAABEAABEAABEAABEAABEAABEAABEAABEAABEAABEAABEAABEAABEAABEAABEAABEAABEAABEAABEAABEAABEAABEAABEAABEAABEAABEAABEAABEAABEAABEAABEAABEAABEAABEAABEAABEAABEAABEAABEAABEAABEAABEAABEAABEAABEAABEAABEAABEAABEAABEAABEAABEAABEAABEAABEAABEAABEAABEAABEAABEAABEAABEAABEAABEAABEAABEAABEAABEAABEAABEAABEAABEAABEAABEAABEAABEAABEAABEAABEAABEAABEAABEAABEAABEAABEAABEAABEAABEAABEBgVgT+P5QOwmz3gV1rAAAAAElFTkSuQmCC;" parent="1" vertex="1">
          <mxGeometry x="-1480" y="420" width="50" height="50" as="geometry" />
        </mxCell>
        <mxCell id="4u6XK5poKMazU-7-HOl9-1" value="&lt;b&gt;&lt;font style=&quot;font-size: 24px;&quot;&gt;High Level Architecture&lt;/font&gt;&lt;/b&gt;" style="text;html=1;align=center;verticalAlign=middle;whiteSpace=wrap;rounded=0;" vertex="1" parent="1">
          <mxGeometry x="-1430" y="380" width="340" height="30" as="geometry" />
        </mxCell>
      </root>
    </mxGraphModel>
  </diagram>
</mxfile>
